AsbirSansItalic-ItalicDisplayBlack.ufo
<glyph name="exclam" format="2">
  <advance width="552"/>
  <unicode hex="0021"/>
  <outline>
    <contour>
      <point x="92" y="472" type="line"/>
      <point x="440" y="472" type="line"/>
      <point x="647" y="1490" type="line"/>
      <point x="223" y="1490" type="line"/>
    </contour>
    <contour>
      <point x="202" y="-19" type="curve" smooth="yes"/>
      <point x="307" y="-19"/>
      <point x="403" y="61"/>
      <point x="420" y="163" type="curve" smooth="yes"/>
      <point x="441" y="291"/>
      <point x="355" y="397"/>
      <point x="230" y="397" type="curve" smooth="yes"/>
      <point x="125" y="397"/>
      <point x="29" y="317"/>
      <point x="12" y="215" type="curve" smooth="yes"/>
      <point x="-9" y="87"/>
      <point x="77" y="-19"/>
    </contour>
  </outline>
</glyph>
<glyph name="numbersign" format="2">
  <advance width="1324"/>
  <unicode hex="0023"/>
  <outline>
    <contour>
      <point x="568.59" y="0" type="line"/>
      <point x="858.59" y="0" type="line"/>
      <point x="1351.258" y="1490" type="line"/>
      <point x="1059.258" y="1490" type="line"/>
    </contour>
    <contour>
      <point x="-35.123" y="340" type="line"/>
      <point x="1162.877" y="340" type="line"/>
      <point x="1261.217" y="632" type="line"/>
      <point x="63.217" y="632" type="line"/>
    </contour>
    <contour>
      <point x="44.59" y="0" type="line"/>
      <point x="336.59" y="0" type="line"/>
      <point x="827.258" y="1490" type="line"/>
      <point x="535.258" y="1490" type="line"/>
    </contour>
    <contour>
      <point x="134.631" y="858" type="line"/>
      <point x="1332.631" y="858" type="line"/>
      <point x="1430.971" y="1150" type="line"/>
      <point x="232.971" y="1150" type="line"/>
    </contour>
  </outline>
</glyph>
<glyph name="ampersand" format="2">
  <advance width="1386"/>
  <unicode hex="0026"/>
  <outline>
    <contour>
      <point x="492" y="-24" type="curve" smooth="yes"/>
      <point x="606" y="-24"/>
      <point x="751" y="4"/>
      <point x="883" y="81" type="curve"/>
      <point x="1005" y="132" type="line"/>
      <point x="1219" y="268"/>
      <point x="1328" y="510"/>
      <point x="1370" y="776" type="curve"/>
      <point x="1052" y="776" type="line"/>
      <point x="1008" y="522"/>
      <point x="742" y="290"/>
      <point x="527" y="290" type="curve" smooth="yes"/>
      <point x="450" y="290"/>
      <point x="407" y="327"/>
      <point x="407" y="392" type="curve" smooth="yes"/>
      <point x="407" y="454"/>
      <point x="444" y="501"/>
      <point x="531" y="556" type="curve" smooth="yes"/>
      <point x="878" y="774" type="line" smooth="yes"/>
      <point x="1019" y="863"/>
      <point x="1097" y="976"/>
      <point x="1119" y="1108" type="curve" smooth="yes"/>
      <point x="1156" y="1328"/>
      <point x="1021" y="1512"/>
      <point x="760" y="1512" type="curve" smooth="yes"/>
      <point x="509" y="1512"/>
      <point x="317" y="1340"/>
      <point x="282" y="1126" type="curve" smooth="yes"/>
      <point x="246" y="909"/>
      <point x="368" y="746"/>
      <point x="441" y="650" type="curve" smooth="yes"/>
      <point x="934" y="0" type="line"/>
      <point x="1327" y="0" type="line"/>
      <point x="728" y="784" type="line" smooth="yes"/>
      <point x="618" y="928"/>
      <point x="582" y="1004"/>
      <point x="582" y="1068" type="curve" smooth="yes"/>
      <point x="582" y="1153"/>
      <point x="646" y="1196"/>
      <point x="720" y="1196" type="curve" smooth="yes"/>
      <point x="785" y="1196"/>
      <point x="827" y="1163"/>
      <point x="827" y="1115" type="curve" smooth="yes"/>
      <point x="827" y="1071"/>
      <point x="792" y="1033"/>
      <point x="705" y="985" type="curve" smooth="yes"/>
      <point x="330" y="776" type="line"/>
      <point x="162" y="671"/>
      <point x="53" y="576"/>
      <point x="27" y="422" type="curve" smooth="yes"/>
      <point x="-13" y="178"/>
      <point x="160" y="-24"/>
    </contour>
  </outline>
</glyph>
<glyph name="quotesingle" format="2">
  <advance width="586"/>
  <unicode hex="0027"/>
  <outline>
    <contour>
      <point x="209.273" y="880" type="line"/>
      <point x="493.273" y="880" type="line"/>
      <point x="629.258" y="1490" type="line"/>
      <point x="275.258" y="1490" type="line"/>
    </contour>
  </outline>
</glyph>
<glyph name="parenleft" format="2">
  <advance width="736"/>
  <unicode hex="0028"/>
  <outline>
    <contour>
      <point x="106.595" y="592" type="curve" smooth="yes"/>
      <point x="52.295" y="264"/>
      <point x="79.472" y="-43"/>
      <point x="185.919" y="-294" type="curve"/>
      <point x="567.919" y="-294" type="line"/>
      <point x="495.04" y="45"/>
      <point x="461.593" y="296"/>
      <point x="510.595" y="592" type="curve" smooth="yes"/>
      <point x="566.551" y="930"/>
      <point x="717.479" y="1292"/>
      <point x="875.84" y="1566" type="curve"/>
      <point x="493.84" y="1566" type="line"/>
      <point x="322.088" y="1344"/>
      <point x="166.027" y="951"/>
    </contour>
  </outline>
</glyph>
<glyph name="parenright" format="2">
  <advance width="736"/>
  <unicode hex="0029"/>
  <outline>
    <contour>
      <point x="-104.081" y="-294" type="curve"/>
      <point x="277.919" y="-294" type="line"/>
      <point x="467.472" y="-43"/>
      <point x="596.295" y="264"/>
      <point x="650.595" y="592" type="curve" smooth="yes"/>
      <point x="710.027" y="951"/>
      <point x="684.088" y="1344"/>
      <point x="585.84" y="1566" type="curve"/>
      <point x="203.84" y="1566" type="line"/>
      <point x="271.479" y="1292"/>
      <point x="302.551" y="930"/>
      <point x="246.595" y="592" type="curve" smooth="yes"/>
      <point x="197.593" y="296"/>
      <point x="81.04" y="45"/>
    </contour>
  </outline>
</glyph>
<glyph name="asterisk" format="2">
  <advance width="1214"/>
  <unicode hex="002A"/>
  <outline>
    <contour>
      <point x="510.528" y="652" type="line"/>
      <point x="742.528" y="652" type="line"/>
      <point x="762.909" y="908" type="line"/>
      <point x="950.407" y="760" type="line"/>
      <point x="1099.848" y="962" type="line"/>
      <point x="885.728" y="1070" type="line"/>
      <point x="1135.607" y="1178" type="line"/>
      <point x="1053.379" y="1382" type="line"/>
      <point x="816.878" y="1234" type="line"/>
      <point x="881.258" y="1490" type="line"/>
      <point x="649.258" y="1490" type="line"/>
      <point x="630.878" y="1234" type="line"/>
      <point x="443.379" y="1382" type="line"/>
      <point x="291.607" y="1178" type="line"/>
      <point x="507.728" y="1070" type="line"/>
      <point x="255.848" y="962" type="line"/>
      <point x="340.407" y="760" type="line"/>
      <point x="576.909" y="908" type="line"/>
    </contour>
  </outline>
</glyph>
<glyph name="plus" format="2">
  <advance width="1388"/>
  <unicode hex="002B"/>
  <outline>
    <contour>
      <point x="455" y="66" type="line"/>
      <point x="781" y="66" type="line"/>
      <point x="959" y="1144" type="line"/>
      <point x="633" y="1144" type="line"/>
    </contour>
    <contour>
      <point x="142" y="442" type="line"/>
      <point x="1218" y="442" type="line"/>
      <point x="1272" y="768" type="line"/>
      <point x="196" y="768" type="line"/>
    </contour>
  </outline>
</glyph>
<glyph name="hyphen" format="2">
  <advance width="940"/>
  <unicode hex="002D"/>
  <outline>
    <contour>
      <point x="851" y="720" type="line"/>
      <point x="153" y="720" type="line"/>
      <point x="103" y="418" type="line"/>
      <point x="801" y="418" type="line"/>
    </contour>
  </outline>
</glyph>
<glyph name="slash" format="2">
  <advance width="812"/>
  <unicode hex="002F"/>
  <outline>
    <contour>
      <point x="986.846" y="1560" type="line"/>
      <point x="646.846" y="1560" type="line"/>
      <point x="-128.493" y="-224" type="line"/>
      <point x="211.507" y="-224" type="line"/>
    </contour>
  </outline>
</glyph>
<glyph name="zero" format="2">
  <advance width="1396"/>
  <unicode hex="0030"/>
  <anchor x="734" y="745" name="center"/>
  <anchor x="858" y="1490" name="top"/>
  <outline>
    <contour>
      <point x="607" y="-24" type="curve" smooth="yes"/>
      <point x="1020" y="-24"/>
      <point x="1313" y="267"/>
      <point x="1392" y="744" type="curve" smooth="yes"/>
      <point x="1471" y="1222"/>
      <point x="1275" y="1514"/>
      <point x="862" y="1514" type="curve" smooth="yes"/>
      <point x="449" y="1514"/>
      <point x="155" y="1221"/>
      <point x="76" y="744" type="curve" smooth="yes"/>
      <point x="-3" y="268"/>
      <point x="194" y="-24"/>
    </contour>
    <contour>
      <point x="660" y="296" type="curve" smooth="yes"/>
      <point x="495" y="296"/>
      <point x="422" y="466"/>
      <point x="468" y="744" type="curve" smooth="yes"/>
      <point x="514" y="1023"/>
      <point x="644" y="1194"/>
      <point x="809" y="1194" type="curve" smooth="yes"/>
      <point x="974" y="1194"/>
      <point x="1046" y="1023"/>
      <point x="1000" y="744" type="curve" smooth="yes"/>
      <point x="954" y="466"/>
      <point x="825" y="296"/>
    </contour>
  </outline>
</glyph>
<glyph name="one" format="2">
  <advance width="845"/>
  <unicode hex="0031"/>
  <outline>
    <contour>
      <point x="365.0" y="0" type="line"/>
      <point x="765.0" y="0" type="line"/>
      <point x="1032.84" y="1488" type="line"/>
      <point x="678.8399999999999" y="1488" type="line"/>
      <point x="635.88" y="1316"/>
      <point x="519.74" y="1243"/>
      <point x="369.74" y="1243" type="curve" smooth="yes"/>
      <point x="287.74" y="1243" type="line"/>
      <point x="234.45999999999998" y="947" type="line"/>
      <point x="341.46" y="947"/>
      <point x="447.46" y="947"/>
      <point x="554.46" y="947" type="curve"/>
      <point x="540.14" y="973" type="line"/>
    </contour>
  </outline>
</glyph>
<glyph name="two" format="2">
  <advance width="1290"/>
  <unicode hex="0032"/>
  <anchor x="759" y="649" name="cross"/>
  <anchor x="801" y="1490" name="top"/>
  <outline>
    <contour>
      <point x="-13" y="0" type="line"/>
      <point x="1131" y="0" type="line"/>
      <point x="1184" y="322" type="line"/>
      <point x="620" y="322" type="line"/>
      <point x="621" y="324" type="line"/>
      <point x="894" y="524" type="line" smooth="yes"/>
      <point x="1117" y="687"/>
      <point x="1262" y="817"/>
      <point x="1299" y="1036" type="curve" smooth="yes"/>
      <point x="1348.008" y="1335"/>
      <point x="1128" y="1514"/>
      <point x="784" y="1514" type="curve" smooth="yes"/>
      <point x="433" y="1514"/>
      <point x="187" y="1297"/>
      <point x="130" y="952" type="curve"/>
      <point x="511" y="952" type="line"/>
      <point x="536" y="1107"/>
      <point x="641" y="1194"/>
      <point x="761" y="1194" type="curve" smooth="yes"/>
      <point x="873" y="1194"/>
      <point x="935" y="1124"/>
      <point x="917" y="1012" type="curve" smooth="yes"/>
      <point x="896" y="887"/>
      <point x="759" y="806"/>
      <point x="670" y="742" type="curve" smooth="yes"/>
      <point x="35.009" y="290" type="line"/>
    </contour>
  </outline>
</glyph>
<glyph name="three" format="2">
  <advance width="1306"/>
  <unicode hex="0033"/>
  <anchor x="817" y="1490" name="top"/>
  <outline>
    <contour>
      <point x="570" y="-24" type="curve" smooth="yes"/>
      <point x="935" y="-24"/>
      <point x="1205" y="165"/>
      <point x="1248" y="420" type="curve" smooth="yes"/>
      <point x="1277" y="598"/>
      <point x="1183" y="756"/>
      <point x="963" y="779" type="curve"/>
      <point x="963" y="782" type="line"/>
      <point x="1136" y="802"/>
      <point x="1284" y="918"/>
      <point x="1314" y="1100" type="curve" smooth="yes"/>
      <point x="1354" y="1343"/>
      <point x="1143" y="1514"/>
      <point x="813" y="1514" type="curve" smooth="yes"/>
      <point x="449" y="1514"/>
      <point x="206" y="1305"/>
      <point x="161" y="1032" type="curve"/>
      <point x="549" y="1032" type="line"/>
      <point x="567" y="1139"/>
      <point x="661" y="1214"/>
      <point x="771" y="1214" type="curve" smooth="yes"/>
      <point x="876" y="1214"/>
      <point x="941" y="1145"/>
      <point x="925" y="1050" type="curve" smooth="yes"/>
      <point x="909" y="953"/>
      <point x="820" y="896"/>
      <point x="686" y="896" type="curve" smooth="yes"/>
      <point x="542" y="896" type="line"/>
      <point x="496" y="616" type="line"/>
      <point x="640" y="616" type="line" smooth="yes"/>
      <point x="779" y="616"/>
      <point x="857" y="551"/>
      <point x="841" y="451" type="curve" smooth="yes"/>
      <point x="825" y="354"/>
      <point x="730" y="286"/>
      <point x="611" y="286" type="curve" smooth="yes"/>
      <point x="479" y="286"/>
      <point x="413" y="371"/>
      <point x="437" y="512" type="curve"/>
      <point x="47" y="512" type="line"/>
      <point x="1" y="234"/>
      <point x="144" y="-24"/>
    </contour>
  </outline>
</glyph>
<glyph name="four" format="2">
  <advance width="1414"/>
  <unicode hex="0034"/>
  <outline>
    <contour>
      <point x="115.84" y="288" type="line"/>
      <point x="1399.84" y="288" type="line"/>
      <point x="1454.92" y="594" type="line"/>
      <point x="577.92" y="594" type="line"/>
      <point x="578.28" y="596" type="line"/>
      <point x="1342.2" y="1490" type="line"/>
      <point x="939.2" y="1490" type="line"/>
      <point x="172.36" y="602" type="line"/>
    </contour>
    <contour>
      <point x="792.0" y="0" type="line"/>
      <point x="1174.0" y="0" type="line"/>
      <point x="1341.04" y="928" type="line"/>
      <point x="959.04" y="928" type="line"/>
      <point x="885.96" y="522" type="line"/>
      <point x="861.12" y="384" type="line"/>
    </contour>
  </outline>
</glyph>
<glyph name="five" format="2">
  <advance width="1271"/>
  <unicode hex="0035"/>
  <outline>
    <contour>
      <point x="557" y="-24" type="curve" smooth="yes"/>
      <point x="919" y="-24"/>
      <point x="1176" y="200"/>
      <point x="1228" y="512" type="curve" smooth="yes"/>
      <point x="1280" y="828"/>
      <point x="1069" y="1017"/>
      <point x="780" y="1017" type="curve" smooth="yes"/>
      <point x="670" y="1017"/>
      <point x="588" y="985"/>
      <point x="517" y="925" type="curve"/>
      <point x="515" y="925" type="line"/>
      <point x="574" y="1166" type="line"/>
      <point x="1244" y="1166" type="line"/>
      <point x="1298" y="1490" type="line"/>
      <point x="264" y="1490" type="line"/>
      <point x="74" y="600" type="line"/>
      <point x="446" y="600" type="line"/>
      <point x="482" y="674"/>
      <point x="573" y="724"/>
      <point x="676" y="724" type="curve" smooth="yes"/>
      <point x="796" y="724"/>
      <point x="857" y="631"/>
      <point x="836" y="500" type="curve" smooth="yes"/>
      <point x="814" y="370"/>
      <point x="709" y="282"/>
      <point x="587" y="282" type="curve" smooth="yes"/>
      <point x="467" y="282"/>
      <point x="399" y="366"/>
      <point x="417" y="480" type="curve"/>
      <point x="32" y="480" type="line"/>
      <point x="0" y="166"/>
      <point x="213" y="-24"/>
    </contour>
  </outline>
</glyph>
<glyph name="six" format="2">
  <advance width="1321"/>
  <unicode hex="0036"/>
  <outline>
    <contour>
      <point x="618" y="-24" type="curve" smooth="yes"/>
      <point x="966" y="-24"/>
      <point x="1225" y="186"/>
      <point x="1276" y="498" type="curve" smooth="yes"/>
      <point x="1326" y="793"/>
      <point x="1134" y="1000"/>
      <point x="812" y="1000" type="curve" smooth="yes"/>
      <point x="663" y="1000"/>
      <point x="567" y="950"/>
      <point x="471" y="838" type="curve"/>
      <point x="469" y="838" type="line"/>
      <point x="507" y="1069"/>
      <point x="626" y="1210"/>
      <point x="801" y="1210" type="curve" smooth="yes"/>
      <point x="914" y="1210"/>
      <point x="965" y="1150"/>
      <point x="967" y="1056" type="curve"/>
      <point x="1349" y="1056" type="line"/>
      <point x="1366" y="1311"/>
      <point x="1156" y="1514"/>
      <point x="827" y="1514" type="curve" smooth="yes"/>
      <point x="421" y="1514"/>
      <point x="155" y="1227"/>
      <point x="76" y="745" type="curve" smooth="yes"/>
      <point x="-3" y="271"/>
      <point x="211" y="-24"/>
    </contour>
    <contour>
      <point x="634" y="288" type="curve" smooth="yes"/>
      <point x="515" y="288"/>
      <point x="450" y="376"/>
      <point x="470" y="498" type="curve" smooth="yes"/>
      <point x="491" y="621"/>
      <point x="594" y="708"/>
      <point x="719" y="708" type="curve" smooth="yes"/>
      <point x="840" y="708"/>
      <point x="905" y="620"/>
      <point x="884" y="498" type="curve" smooth="yes"/>
      <point x="864" y="376"/>
      <point x="755" y="288"/>
    </contour>
  </outline>
</glyph>
<glyph name="seven" format="2">
  <advance width="1186"/>
  <unicode hex="0037"/>
  <outline>
    <contour>
      <point x="46" y="0" type="line"/>
      <point x="470" y="0" type="line"/>
      <point x="1251" y="1166" type="line"/>
      <point x="1305" y="1490" type="line"/>
      <point x="199" y="1490" type="line"/>
      <point x="143" y="1152" type="line"/>
      <point x="821" y="1152" type="line"/>
      <point x="820" y="1150" type="line"/>
    </contour>
  </outline>
</glyph>
<glyph name="eight" format="2">
  <advance width="1314"/>
  <unicode hex="0038"/>
  <outline>
    <contour>
      <point x="580" y="-24" type="curve" smooth="yes"/>
      <point x="953" y="-24"/>
      <point x="1210" y="146"/>
      <point x="1253" y="404" type="curve" smooth="yes"/>
      <point x="1284" y="593"/>
      <point x="1174" y="738"/>
      <point x="975" y="770" type="curve"/>
      <point x="976" y="772" type="line"/>
      <point x="1159" y="804"/>
      <point x="1295" y="935"/>
      <point x="1323" y="1106" type="curve" smooth="yes"/>
      <point x="1364" y="1355"/>
      <point x="1152" y="1514"/>
      <point x="803" y="1514" type="curve" smooth="yes"/>
      <point x="462" y="1514"/>
      <point x="221" y="1350"/>
      <point x="181" y="1106" type="curve" smooth="yes"/>
      <point x="153" y="935"/>
      <point x="246" y="803"/>
      <point x="418" y="772" type="curve"/>
      <point x="417" y="770" type="line"/>
      <point x="208" y="738"/>
      <point x="50" y="593"/>
      <point x="19" y="404" type="curve" smooth="yes"/>
      <point x="-24" y="146"/>
      <point x="208" y="-24"/>
    </contour>
    <contour>
      <point x="610" y="254" type="curve" smooth="yes"/>
      <point x="496" y="254"/>
      <point x="427" y="330"/>
      <point x="444" y="436" type="curve" smooth="yes"/>
      <point x="462" y="541"/>
      <point x="556" y="616"/>
      <point x="670" y="616" type="curve" smooth="yes"/>
      <point x="785" y="616"/>
      <point x="856" y="541"/>
      <point x="838" y="436" type="curve" smooth="yes"/>
      <point x="821" y="331"/>
      <point x="724" y="254"/>
    </contour>
    <contour>
      <point x="718" y="907" type="curve" smooth="yes"/>
      <point x="612" y="907"/>
      <point x="554" y="969"/>
      <point x="570" y="1066" type="curve" smooth="yes"/>
      <point x="587" y="1163"/>
      <point x="665" y="1225"/>
      <point x="771" y="1225" type="curve" smooth="yes"/>
      <point x="878" y="1225"/>
      <point x="937" y="1163"/>
      <point x="920" y="1066" type="curve" smooth="yes"/>
      <point x="904" y="969"/>
      <point x="825" y="907"/>
    </contour>
  </outline>
</glyph>
<glyph name="nine" format="2">
  <advance width="1322"/>
  <unicode hex="0039"/>
  <outline>
    <contour>
      <point x="607" y="-24" type="curve" smooth="yes"/>
      <point x="1013" y="-24"/>
      <point x="1241" y="280"/>
      <point x="1321" y="762" type="curve" smooth="yes"/>
      <point x="1400" y="1236"/>
      <point x="1183" y="1514"/>
      <point x="776" y="1514" type="curve" smooth="yes"/>
      <point x="428" y="1514"/>
      <point x="169" y="1304"/>
      <point x="117" y="992" type="curve" smooth="yes"/>
      <point x="69" y="701"/>
      <point x="262" y="490"/>
      <point x="566" y="490" type="curve" smooth="yes"/>
      <point x="715" y="490"/>
      <point x="826" y="540"/>
      <point x="923" y="652" type="curve"/>
      <point x="925" y="652" type="line"/>
      <point x="887" y="421"/>
      <point x="775" y="280"/>
      <point x="600" y="280" type="curve" smooth="yes"/>
      <point x="487" y="280"/>
      <point x="428" y="340"/>
      <point x="427" y="434" type="curve"/>
      <point x="45" y="434" type="line"/>
      <point x="28" y="179"/>
      <point x="278" y="-24"/>
    </contour>
    <contour>
      <point x="682" y="782" type="curve" smooth="yes"/>
      <point x="561" y="782"/>
      <point x="489" y="870"/>
      <point x="509" y="992" type="curve" smooth="yes"/>
      <point x="529" y="1114"/>
      <point x="631" y="1202"/>
      <point x="752" y="1202" type="curve" smooth="yes"/>
      <point x="871" y="1202"/>
      <point x="943" y="1114"/>
      <point x="923" y="992" type="curve" smooth="yes"/>
      <point x="903" y="870"/>
      <point x="801" y="782"/>
    </contour>
  </outline>
</glyph>
<glyph name="less" format="2">
  <advance width="1388"/>
  <unicode hex="003C"/>
  <outline>
    <contour>
      <point x="127.776" y="430" type="line"/>
      <point x="1138.259" y="-2" type="line"/>
      <point x="1198.85" y="364" type="line"/>
      <point x="550.251" y="602" type="line"/>
      <point x="559.271" y="584" type="line"/>
      <point x="566.224" y="626" type="line"/>
      <point x="551.244" y="608" type="line"/>
      <point x="1278.645" y="846" type="line"/>
      <point x="1339.567" y="1214" type="line"/>
      <point x="185.718" y="780" type="line"/>
    </contour>
  </outline>
</glyph>
<glyph name="equal" format="2">
  <advance width="1388"/>
  <unicode hex="003D"/>
  <outline>
    <contour>
      <point x="184.806" y="702" type="line"/>
      <point x="1260.806" y="702" type="line"/>
      <point x="1314.443" y="1026" type="line"/>
      <point x="238.443" y="1026" type="line"/>
    </contour>
    <contour>
      <point x="99.051" y="184" type="line"/>
      <point x="1175.051" y="184" type="line"/>
      <point x="1229.02" y="510" type="line"/>
      <point x="153.02" y="510" type="line"/>
    </contour>
  </outline>
</glyph>
<glyph name="greater" format="2">
  <advance width="1388"/>
  <unicode hex="003E"/>
  <outline>
    <contour>
      <point x="1228" y="430" type="line"/>
      <point x="1286" y="780" type="line"/>
      <point x="276" y="1214" type="line"/>
      <point x="215" y="846" type="line"/>
      <point x="865" y="608" type="line"/>
      <point x="856" y="626" type="line"/>
      <point x="849" y="584" type="line"/>
      <point x="864" y="602" type="line"/>
      <point x="135" y="364" type="line"/>
      <point x="74" y="-2" type="line"/>
    </contour>
  </outline>
</glyph>
<glyph name="question" format="2">
  <advance width="1237"/>
  <unicode hex="003F"/>
  <outline>
    <contour>
      <point x="410" y="496" type="line"/>
      <point x="752" y="496" type="line"/>
      <point x="754" y="508" type="line" smooth="yes"/>
      <point x="771" y="609"/>
      <point x="875" y="669"/>
      <point x="1004" y="744" type="curve" smooth="yes"/>
      <point x="1146" y="826"/>
      <point x="1226" y="945"/>
      <point x="1252" y="1100" type="curve" smooth="yes"/>
      <point x="1292" y="1340"/>
      <point x="1056" y="1510"/>
      <point x="739" y="1510" type="curve" smooth="yes"/>
      <point x="405" y="1510"/>
      <point x="192" y="1302"/>
      <point x="145" y="1018" type="curve"/>
      <point x="517" y="1018" type="line"/>
      <point x="534" y="1126"/>
      <point x="617" y="1198"/>
      <point x="724" y="1198" type="curve" smooth="yes"/>
      <point x="820" y="1198"/>
      <point x="876" y="1138"/>
      <point x="862" y="1052" type="curve" smooth="yes"/>
      <point x="851" y="982"/>
      <point x="797" y="920"/>
      <point x="698" y="875" type="curve" smooth="yes"/>
      <point x="511" y="790"/>
      <point x="448" y="710"/>
      <point x="416" y="530" type="curve" smooth="yes"/>
    </contour>
    <contour>
      <point x="502" y="-19" type="curve" smooth="yes"/>
      <point x="617" y="-19"/>
      <point x="725" y="74"/>
      <point x="744" y="189" type="curve" smooth="yes"/>
      <point x="763" y="304"/>
      <point x="686" y="397"/>
      <point x="571" y="397" type="curve" smooth="yes"/>
      <point x="456" y="397"/>
      <point x="347" y="304"/>
      <point x="328" y="189" type="curve" smooth="yes"/>
      <point x="309" y="74"/>
      <point x="387" y="-19"/>
    </contour>
  </outline>
</glyph>
<glyph name="at" format="2">
  <advance width="2121"/>
  <unicode hex="0040"/>
  <outline>
    <contour>
      <point x="938" y="-457" type="curve" smooth="yes"/>
      <point x="1195" y="-457"/>
      <point x="1370" y="-396"/>
      <point x="1472" y="-354" type="curve"/>
      <point x="1380" y="-85" type="line"/>
      <point x="1286" y="-121"/>
      <point x="1127" y="-155"/>
      <point x="954" y="-155" type="curve" smooth="yes"/>
      <point x="514" y="-155"/>
      <point x="297" y="107"/>
      <point x="366" y="527" type="curve" smooth="yes"/>
      <point x="436" y="946"/>
      <point x="764" y="1211"/>
      <point x="1207" y="1211" type="curve" smooth="yes"/>
      <point x="1617" y="1211"/>
      <point x="1830" y="983"/>
      <point x="1766" y="595" type="curve" smooth="yes"/>
      <point x="1733" y="397"/>
      <point x="1643" y="262"/>
      <point x="1547" y="262" type="curve" smooth="yes"/>
      <point x="1520" y="262"/>
      <point x="1495" y="273"/>
      <point x="1504" y="329" type="curve" smooth="yes"/>
      <point x="1619" y="1019" type="line"/>
      <point x="1363" y="1019" type="line"/>
      <point x="1347" y="924" type="line"/>
      <point x="1345" y="924" type="line"/>
      <point x="1321" y="993"/>
      <point x="1217" y="1041"/>
      <point x="1084" y="1041" type="curve" smooth="yes"/>
      <point x="838" y="1041"/>
      <point x="582" y="876"/>
      <point x="524" y="528" type="curve" smooth="yes"/>
      <point x="471" y="207"/>
      <point x="631" y="-4"/>
      <point x="922" y="-4" type="curve" smooth="yes"/>
      <point x="1087" y="-4"/>
      <point x="1202" y="65"/>
      <point x="1245" y="142" type="curve"/>
      <point x="1247" y="142" type="line"/>
      <point x="1249" y="47"/>
      <point x="1361" y="-13"/>
      <point x="1517" y="-13" type="curve" smooth="yes"/>
      <point x="1817" y="-13"/>
      <point x="2027" y="208"/>
      <point x="2092" y="597" type="curve" smooth="yes"/>
      <point x="2183" y="1149"/>
      <point x="1835" y="1513"/>
      <point x="1217" y="1513" type="curve" smooth="yes"/>
      <point x="582" y="1513"/>
      <point x="140" y="1129"/>
      <point x="40" y="526" type="curve" smooth="yes"/>
      <point x="-60" y="-78"/>
      <point x="296" y="-457"/>
    </contour>
    <contour>
      <point x="995" y="292" type="curve" smooth="yes"/>
      <point x="852" y="292"/>
      <point x="794" y="377"/>
      <point x="819" y="528" type="curve" smooth="yes"/>
      <point x="845" y="680"/>
      <point x="947" y="765"/>
      <point x="1090" y="765" type="curve" smooth="yes"/>
      <point x="1225" y="765"/>
      <point x="1279" y="680"/>
      <point x="1253" y="528" type="curve" smooth="yes"/>
      <point x="1228" y="377"/>
      <point x="1131" y="292"/>
    </contour>
  </outline>
</glyph>
<glyph name="A" format="2">
  <advance width="1565"/>
  <unicode hex="0041"/>
  <anchor x="696" y="0" name="bottom"/>
  <anchor x="1478" y="0" name="ogonek"/>
  <anchor x="590" y="1490" name="tonos"/>
  <anchor x="943" y="1490" name="top"/>
  <outline>
    <contour>
      <point x="-87" y="0" type="line"/>
      <point x="381" y="0" type="line"/>
      <point x="650" y="578" type="line" smooth="yes"/>
      <point x="767" y="829"/>
      <point x="874" y="1067"/>
      <point x="984" y="1331" type="curve"/>
      <point x="872" y="1331" type="line"/>
      <point x="893" y="1067"/>
      <point x="921" y="829"/>
      <point x="952" y="578" type="curve" smooth="yes"/>
      <point x="1023" y="0" type="line"/>
      <point x="1478" y="0" type="line"/>
      <point x="1220" y="1490" type="line"/>
      <point x="660" y="1490" type="line"/>
    </contour>
    <contour>
      <point x="327" y="245" type="line"/>
      <point x="1147" y="245" type="line"/>
      <point x="1200" y="565" type="line"/>
      <point x="380" y="565" type="line"/>
    </contour>
  </outline>
</glyph>
<glyph name="B" format="2">
  <advance width="1331"/>
  <unicode hex="0042"/>
  <anchor x="561" y="0" name="bottom"/>
  <anchor x="301" y="459" name="cross"/>
  <anchor x="809" y="1490" name="top"/>
  <anchor x="239" y="1490" name="topl"/>
  <outline>
    <contour>
      <point x="-7" y="0" type="line"/>
      <point x="705" y="0" type="line" smooth="yes"/>
      <point x="1028" y="0"/>
      <point x="1236" y="165"/>
      <point x="1274" y="396" type="curve" smooth="yes"/>
      <point x="1311" y="619"/>
      <point x="1181" y="768"/>
      <point x="990" y="783" type="curve"/>
      <point x="990" y="784" type="line"/>
      <point x="1168" y="817"/>
      <point x="1313" y="932"/>
      <point x="1339" y="1092" type="curve" smooth="yes"/>
      <point x="1377" y="1322"/>
      <point x="1215" y="1490"/>
      <point x="875" y="1490" type="curve" smooth="yes"/>
      <point x="239" y="1490" type="line"/>
    </contour>
    <contour>
      <point x="448" y="312" type="line"/>
      <point x="497" y="606" type="line"/>
      <point x="717" y="606" type="line" smooth="yes"/>
      <point x="818" y="606"/>
      <point x="873" y="548"/>
      <point x="859" y="459" type="curve" smooth="yes"/>
      <point x="844" y="370"/>
      <point x="769" y="312"/>
      <point x="668" y="312" type="curve" smooth="yes"/>
    </contour>
    <contour>
      <point x="546" y="900" type="line"/>
      <point x="592" y="1178" type="line"/>
      <point x="787" y="1178" type="line" smooth="yes"/>
      <point x="879" y="1178"/>
      <point x="929" y="1123"/>
      <point x="915" y="1039" type="curve" smooth="yes"/>
      <point x="901" y="955"/>
      <point x="833" y="900"/>
      <point x="741" y="900" type="curve" smooth="yes"/>
    </contour>
  </outline>
</glyph>
<glyph name="C" format="2">
  <advance width="1509"/>
  <unicode hex="0043"/>
  <anchor x="665" y="6" name="cedilla"/>
  <anchor x="794" y="745" name="center"/>
  <anchor x="918" y="1490" name="top"/>
  <anchor x="1523" y="928" name="topr"/>
  <outline>
    <contour>
      <point x="694" y="-24" type="curve" smooth="yes"/>
      <point x="1065" y="-24"/>
      <point x="1362" y="208"/>
      <point x="1462" y="560" type="curve"/>
      <point x="1043" y="560" type="line"/>
      <point x="993" y="420"/>
      <point x="874" y="336"/>
      <point x="721" y="336" type="curve" smooth="yes"/>
      <point x="561" y="336"/>
      <point x="482" y="428"/>
      <point x="482" y="600" type="curve" smooth="yes"/>
      <point x="482" y="851"/>
      <point x="610" y="1154"/>
      <point x="897" y="1154" type="curve" smooth="yes"/>
      <point x="1030" y="1154"/>
      <point x="1102" y="1069"/>
      <point x="1104" y="928" type="curve"/>
      <point x="1523" y="928" type="line"/>
      <point x="1540" y="1290"/>
      <point x="1289" y="1514"/>
      <point x="908" y="1514" type="curve" smooth="yes"/>
      <point x="393" y="1514"/>
      <point x="66" y="1090"/>
      <point x="66" y="597" type="curve" smooth="yes"/>
      <point x="66" y="198"/>
      <point x="327" y="-24"/>
    </contour>
  </outline>
</glyph>
<glyph name="D" format="2">
  <advance width="1456"/>
  <unicode hex="0044"/>
  <anchor x="579" y="0" name="bottom"/>
  <anchor x="407" y="745" name="cross"/>
  <anchor x="746" y="1490" name="top"/>
  <anchor x="240" y="1490" name="topl"/>
  <outline>
    <contour>
      <point x="655" y="0" type="line"/>
      <point x="1114" y="0"/>
      <point x="1377" y="292"/>
      <point x="1452" y="744" type="curve" smooth="yes"/>
      <point x="1527" y="1197"/>
      <point x="1252" y="1490"/>
      <point x="792" y="1490" type="curve" smooth="yes"/>
      <point x="408" y="1490" type="line"/>
      <point x="351" y="1146" type="line"/>
      <point x="733" y="1146" type="line" smooth="yes"/>
      <point x="984" y="1146"/>
      <point x="1077" y="1017"/>
      <point x="1032" y="744" type="curve" smooth="yes"/>
      <point x="987" y="473"/>
      <point x="855" y="344"/>
      <point x="612" y="344" type="curve" smooth="yes"/>
      <point x="224" y="344" type="line"/>
      <point x="167" y="0" type="line"/>
    </contour>
    <contour>
      <point x="656" y="1490" type="line"/>
      <point x="240" y="1490" type="line"/>
      <point x="-7" y="0" type="line"/>
      <point x="409" y="0" type="line"/>
    </contour>
  </outline>
</glyph>
<glyph name="E" format="2">
  <advance width="1289"/>
  <unicode hex="0045"/>
  <anchor x="570" y="0" name="bottom"/>
  <anchor x="568" y="0" name="cedilla"/>
  <anchor x="1147" y="0" name="ogonek"/>
  <anchor x="240" y="1490" name="tonos"/>
  <anchor x="817" y="1490" name="top"/>
  <outline>
    <contour>
      <point x="-7" y="0" type="line"/>
      <point x="1147" y="0" type="line"/>
      <point x="1205" y="352" type="line"/>
      <point x="467" y="352" type="line"/>
      <point x="504" y="574" type="line"/>
      <point x="1185" y="574" type="line"/>
      <point x="1241" y="914" type="line"/>
      <point x="560" y="914" type="line"/>
      <point x="597" y="1138" type="line"/>
      <point x="1335" y="1138" type="line"/>
      <point x="1393" y="1490" type="line"/>
      <point x="240" y="1490" type="line"/>
    </contour>
  </outline>
</glyph>
<glyph name="F" format="2">
  <advance width="1240"/>
  <unicode hex="0046"/>
  <anchor x="201" y="0" name="bottom"/>
  <anchor x="242" y="250" name="cross"/>
  <anchor x="-7" y="0" name="lfthook"/>
  <anchor x="797" y="1490" name="top"/>
  <outline>
    <contour>
      <point x="-7" y="0" type="line"/>
      <point x="409" y="0" type="line"/>
      <point x="498" y="536" type="line"/>
      <point x="1161" y="536" type="line"/>
      <point x="1217" y="874" type="line"/>
      <point x="554" y="874" type="line"/>
      <point x="597" y="1138" type="line"/>
      <point x="1300" y="1138" type="line"/>
      <point x="1359" y="1490" type="line"/>
      <point x="240" y="1490" type="line"/>
    </contour>
  </outline>
</glyph>
<glyph name="G" format="2">
  <advance width="1530"/>
  <unicode hex="0047"/>
  <anchor x="752.0" y="0" name="bottom"/>
  <anchor x="1252.76" y="432" name="cross"/>
  <anchor x="1024.2" y="1490" name="top"/>
  <anchor x="1624.68" y="976" name="topr"/>
  <outline>
    <contour>
      <point x="712.68" y="-24" type="curve" smooth="yes"/>
      <point x="1002.68" y="-24"/>
      <point x="1259.76" y="132"/>
      <point x="1317.54" y="453" type="curve" smooth="yes"/>
      <point x="1333.74" y="543" type="line"/>
      <point x="1151.74" y="543" type="line"/>
      <point x="1129.42" y="419"/>
      <point x="1020.48" y="336"/>
      <point x="847.48" y="336" type="curve" smooth="yes"/>
      <point x="632.48" y="336"/>
      <point x="546.22" y="479"/>
      <point x="593.92" y="744" type="curve" smooth="yes"/>
      <point x="641.62" y="1009"/>
      <point x="777.72" y="1154"/>
      <point x="988.72" y="1154" type="curve" smooth="yes"/>
      <point x="1131.72" y="1154"/>
      <point x="1199.66" y="1087"/>
      <point x="1200.68" y="976" type="curve"/>
      <point x="1624.68" y="976" type="line"/>
      <point x="1656.0" y="1300"/>
      <point x="1399.52" y="1514"/>
      <point x="1036.52" y="1514" type="curve" smooth="yes"/>
      <point x="629.52" y="1514"/>
      <point x="263.56" y="1242"/>
      <point x="173.92" y="744" type="curve" smooth="yes"/>
      <point x="89.14" y="273"/>
      <point x="337.68" y="-24"/>
    </contour>
    <contour>
      <point x="1211.0" y="0" type="line"/>
      <point x="1460.0" y="0" type="line"/>
      <point x="1609.76" y="832" type="line"/>
      <point x="933.76" y="832" type="line"/>
      <point x="880.3" y="535" type="line"/>
      <point x="1252.3" y="535" type="line"/>
      <point x="1216.48" y="336" type="line"/>
    </contour>
  </outline>
</glyph>
<glyph name="H" format="2">
  <advance width="1489"/>
  <unicode hex="0048"/>
  <anchor x="657" y="0" name="bottom"/>
  <anchor x="201" y="0" name="cedilla"/>
  <anchor x="1321" y="0" name="cyrtic"/>
  <anchor x="905" y="0" name="lfthook"/>
  <anchor x="1321" y="0" name="right"/>
  <anchor x="240" y="1490" name="tonos"/>
  <anchor x="904" y="1490" name="top"/>
  <outline>
    <contour>
      <point x="-7" y="0" type="line"/>
      <point x="409" y="0" type="line"/>
      <point x="505" y="581" type="line"/>
      <point x="1001" y="581" type="line"/>
      <point x="905" y="0" type="line"/>
      <point x="1321" y="0" type="line"/>
      <point x="1568" y="1490" type="line"/>
      <point x="1152" y="1490" type="line"/>
      <point x="1059" y="933" type="line"/>
      <point x="563" y="933" type="line"/>
      <point x="656" y="1490" type="line"/>
      <point x="240" y="1490" type="line"/>
    </contour>
  </outline>
</glyph>
<glyph name="I" format="2">
  <advance width="577"/>
  <unicode hex="0049"/>
  <anchor x="201" y="0" name="bottom"/>
  <anchor x="332" y="788" name="cross"/>
  <anchor x="409" y="0" name="ogonek"/>
  <anchor x="435" y="0" name="right"/>
  <anchor x="240" y="1490" name="tonos"/>
  <anchor x="448" y="1490" name="top"/>
  <outline>
    <contour>
      <point x="708" y="1490" type="line"/>
      <point x="188" y="1490" type="line"/>
      <point x="170" y="1382" type="line"/>
      <point x="222" y="1382" type="line"/>
      <point x="11" y="108" type="line"/>
      <point x="-41" y="108" type="line"/>
      <point x="-59" y="0" type="line"/>
      <point x="461" y="0" type="line"/>
      <point x="479" y="108" type="line"/>
      <point x="427" y="108" type="line"/>
      <point x="638" y="1382" type="line"/>
      <point x="690" y="1382" type="line"/>
    </contour>
  </outline>
</glyph>
<glyph name="J" format="2">
  <advance width="1200"/>
  <unicode hex="004A"/>
  <anchor x="970" y="884" name="cross"/>
  <anchor x="1071" y="1490" name="top"/>
  <outline>
    <contour>
      <point x="498" y="-24" type="curve" smooth="yes"/>
      <point x="849" y="-24"/>
      <point x="1056" y="150"/>
      <point x="1108" y="462" type="curve" smooth="yes"/>
      <point x="1279" y="1490" type="line"/>
      <point x="863" y="1490" type="line"/>
      <point x="694" y="470" type="line" smooth="yes"/>
      <point x="678" y="374"/>
      <point x="620" y="320"/>
      <point x="532" y="320" type="curve" smooth="yes"/>
      <point x="457" y="320"/>
      <point x="417" y="360"/>
      <point x="417" y="431" type="curve" smooth="yes"/>
      <point x="417" y="443"/>
      <point x="418" y="456"/>
      <point x="440" y="592" type="curve"/>
      <point x="56" y="592" type="line"/>
      <point x="30" y="436"/>
      <point x="26" y="400"/>
      <point x="26" y="366" type="curve" smooth="yes"/>
      <point x="26" y="114"/>
      <point x="199" y="-24"/>
    </contour>
  </outline>
</glyph>
<glyph name="K" format="2">
  <advance width="1493"/>
  <unicode hex="004B"/>
  <anchor x="647" y="0" name="bottom"/>
  <anchor x="894" y="1490" name="top"/>
  <outline>
    <contour>
      <point x="335" y="213" type="line"/>
      <point x="837" y="723" type="line"/>
      <point x="875" y="723" type="line"/>
      <point x="1625" y="1490" type="line"/>
      <point x="1128" y="1490" type="line"/>
      <point x="768" y="1107" type="line" smooth="yes"/>
      <point x="646" y="977"/>
      <point x="525" y="848"/>
      <point x="403" y="718" type="curve"/>
    </contour>
    <contour>
      <point x="-7" y="0" type="line"/>
      <point x="409" y="0" type="line"/>
      <point x="499" y="544" type="line"/>
      <point x="532" y="741" type="line"/>
      <point x="603" y="1170" type="line"/>
      <point x="656" y="1490" type="line"/>
      <point x="240" y="1490" type="line"/>
    </contour>
    <contour>
      <point x="954" y="0" type="line"/>
      <point x="1406" y="0" type="line"/>
      <point x="970" y="911" type="line"/>
      <point x="694" y="599" type="line"/>
    </contour>
  </outline>
</glyph>
<glyph name="L" format="2">
  <advance width="1178"/>
  <unicode hex="004C"/>
  <anchor x="501" y="0" name="bottom"/>
  <anchor x="417" y="745" name="cross"/>
  <anchor x="651" y="872" name="dot"/>
  <anchor x="852" y="1490" name="raccent"/>
  <anchor x="448" y="1490" name="top"/>
  <outline>
    <contour>
      <point x="-7" y="0" type="line"/>
      <point x="1051" y="0" type="line"/>
      <point x="1109" y="352" type="line"/>
      <point x="467" y="352" type="line"/>
      <point x="656" y="1490" type="line"/>
      <point x="240" y="1490" type="line"/>
    </contour>
  </outline>
</glyph>
<glyph name="M" format="2">
  <advance width="1895"/>
  <unicode hex="004D"/>
  <anchor x="860" y="0" name="bottom"/>
  <anchor x="1727" y="0" name="cyrtic"/>
  <anchor x="1107" y="1490" name="top"/>
  <outline>
    <contour>
      <point x="-7" y="0" type="line"/>
      <point x="401" y="0" type="line"/>
      <point x="496" y="576" type="line" smooth="yes"/>
      <point x="519" y="712"/>
      <point x="556" y="1035"/>
      <point x="594" y="1264" type="curve"/>
      <point x="541" y="1264" type="line"/>
      <point x="562" y="1035"/>
      <point x="592" y="719"/>
      <point x="612" y="576" type="curve" smooth="yes"/>
      <point x="693" y="0" type="line"/>
      <point x="1029" y="0" type="line"/>
      <point x="1297" y="576" type="line" smooth="yes"/>
      <point x="1364" y="719"/>
      <point x="1496" y="1035"/>
      <point x="1591" y="1264" type="curve"/>
      <point x="1544" y="1264" type="line"/>
      <point x="1506" y="1035"/>
      <point x="1437" y="712"/>
      <point x="1414" y="576" type="curve" smooth="yes"/>
      <point x="1319" y="0" type="line"/>
      <point x="1727" y="0" type="line"/>
      <point x="1974" y="1490" type="line"/>
      <point x="1351" y="1490" type="line"/>
      <point x="1141" y="1024" type="line" smooth="yes"/>
      <point x="1070" y="864"/>
      <point x="929" y="528"/>
      <point x="869" y="368" type="curve"/>
      <point x="976" y="368" type="line"/>
      <point x="968" y="528"/>
      <point x="938" y="864"/>
      <point x="918" y="1024" type="curve" smooth="yes"/>
      <point x="861" y="1490" type="line"/>
      <point x="240" y="1490" type="line"/>
    </contour>
  </outline>
</glyph>
<glyph name="N" format="2">
  <advance width="1513"/>
  <unicode hex="004E"/>
  <anchor x="671" y="0" name="bottom"/>
  <anchor x="-7" y="0" name="lfthook"/>
  <anchor x="1345" y="0" name="lfthook2"/>
  <anchor x="918" y="1490" name="top"/>
  <outline>
    <contour>
      <point x="-7" y="0" type="line"/>
      <point x="409" y="0" type="line"/>
      <point x="499" y="544" type="line" smooth="yes"/>
      <point x="514" y="633"/>
      <point x="549" y="845"/>
      <point x="568" y="1056" type="curve"/>
      <point x="482" y="1032" type="line"/>
      <point x="550" y="835"/>
      <point x="628" y="641"/>
      <point x="673" y="544" type="curve" smooth="yes"/>
      <point x="921" y="0" type="line"/>
      <point x="1345" y="0" type="line"/>
      <point x="1592" y="1490" type="line"/>
      <point x="1176" y="1490" type="line"/>
      <point x="1085" y="944" type="line" smooth="yes"/>
      <point x="1066" y="825"/>
      <point x="1027" y="566"/>
      <point x="1010" y="404" type="curve"/>
      <point x="1079" y="520" type="line"/>
      <point x="1031" y="652"/>
      <point x="964" y="829"/>
      <point x="930" y="905" type="curve" smooth="yes"/>
      <point x="664" y="1490" type="line"/>
      <point x="240" y="1490" type="line"/>
    </contour>
  </outline>
</glyph>
<glyph name="O" format="2">
  <advance width="1530"/>
  <unicode hex="004F"/>
  <anchor x="678" y="0" name="bottom"/>
  <anchor x="801" y="745" name="center"/>
  <anchor x="1535" y="893" name="ogonek"/>
  <anchor x="330" y="1490" name="tonos"/>
  <anchor x="924" y="1490" name="top"/>
  <anchor x="928" y="1514" name="tophorn"/>
  <outline>
    <contour>
      <point x="694" y="-24" type="curve" smooth="yes"/>
      <point x="1200" y="-24"/>
      <point x="1535" y="389"/>
      <point x="1535" y="893" type="curve" smooth="yes"/>
      <point x="1535" y="1294"/>
      <point x="1273" y="1514"/>
      <point x="908" y="1514" type="curve" smooth="yes"/>
      <point x="393" y="1514"/>
      <point x="66" y="1090"/>
      <point x="66" y="597" type="curve" smooth="yes"/>
      <point x="66" y="198"/>
      <point x="327" y="-24"/>
    </contour>
    <contour>
      <point x="713" y="336" type="curve" smooth="yes"/>
      <point x="560" y="336"/>
      <point x="482" y="430"/>
      <point x="482" y="601" type="curve" smooth="yes"/>
      <point x="482" y="853"/>
      <point x="615" y="1154"/>
      <point x="889" y="1154" type="curve" smooth="yes"/>
      <point x="1042" y="1154"/>
      <point x="1120" y="1060"/>
      <point x="1120" y="890" type="curve" smooth="yes"/>
      <point x="1120" y="642"/>
      <point x="992" y="336"/>
    </contour>
  </outline>
</glyph>
<glyph name="P" format="2">
  <advance width="1325"/>
  <unicode hex="0050"/>
  <anchor x="232" y="1490" name="tonos"/>
  <anchor x="814" y="1490" name="top"/>
  <anchor x="244" y="1490" name="topl"/>
  <outline>
    <contour>
      <point x="-7" y="0" type="line"/>
      <point x="409" y="0" type="line"/>
      <point x="599" y="1148" type="line"/>
      <point x="785" y="1148" type="line" smooth="yes"/>
      <point x="910" y="1148"/>
      <point x="978" y="1079"/>
      <point x="960" y="970" type="curve" smooth="yes"/>
      <point x="941" y="861"/>
      <point x="851" y="792"/>
      <point x="726" y="792" type="curve" smooth="yes"/>
      <point x="363" y="792" type="line"/>
      <point x="306" y="450" type="line"/>
      <point x="700" y="450" type="line" smooth="yes"/>
      <point x="1056" y="450"/>
      <point x="1313" y="651"/>
      <point x="1366" y="970" type="curve" smooth="yes"/>
      <point x="1418" y="1289"/>
      <point x="1228" y="1490"/>
      <point x="873" y="1490" type="curve" smooth="yes"/>
      <point x="240" y="1490" type="line"/>
    </contour>
  </outline>
</glyph>
<glyph name="Q" format="2">
  <advance width="1530"/>
  <unicode hex="0051"/>
  <anchor x="678" y="0" name="bottom"/>
  <anchor x="801" y="745" name="center"/>
  <anchor x="1535" y="893" name="ogonek"/>
  <anchor x="330" y="1490" name="tonos"/>
  <anchor x="924" y="1490" name="top"/>
  <anchor x="928" y="1514" name="tophorn"/>
  <outline>
    <contour>
      <point x="601" y="552" type="line"/>
      <point x="770" y="268" type="line"/>
      <point x="884" y="96" type="line"/>
      <point x="1020" y="-110" type="line"/>
      <point x="1343" y="-110" type="line"/>
      <point x="1135" y="192" type="line"/>
      <point x="979" y="410" type="line"/>
      <point x="888" y="552" type="line"/>
    </contour>
    <component base="O"/>
  </outline>
</glyph>
<glyph name="R" format="2">
  <advance width="1363"/>
  <unicode hex="0052"/>
  <anchor x="601" y="0" name="bottom"/>
  <anchor x="832" y="1490" name="top"/>
  <outline>
    <contour>
      <point x="-7" y="0" type="line"/>
      <point x="409" y="0" type="line"/>
      <point x="600" y="1152" type="line"/>
      <point x="786" y="1152" type="line" smooth="yes"/>
      <point x="911" y="1152"/>
      <point x="978" y="1079"/>
      <point x="960" y="970" type="curve" smooth="yes"/>
      <point x="942" y="861"/>
      <point x="850" y="788"/>
      <point x="725" y="788" type="curve" smooth="yes"/>
      <point x="379" y="788" type="line"/>
      <point x="326" y="466" type="line"/>
      <point x="681" y="466" type="line" smooth="yes"/>
      <point x="1050" y="466"/>
      <point x="1314" y="660"/>
      <point x="1366" y="970" type="curve" smooth="yes"/>
      <point x="1418" y="1289"/>
      <point x="1228" y="1490"/>
      <point x="873" y="1490" type="curve" smooth="yes"/>
      <point x="240" y="1490" type="line"/>
    </contour>
    <contour>
      <point x="825" y="0" type="line"/>
      <point x="1249" y="0" type="line"/>
      <point x="1029" y="676" type="line"/>
      <point x="613" y="676" type="line"/>
    </contour>
  </outline>
</glyph>
<glyph name="S" format="2">
  <advance width="1403"/>
  <unicode hex="0053"/>
  <anchor x="617" y="0" name="bottom"/>
  <anchor x="614" y="0" name="cedilla"/>
  <anchor x="860" y="1490" name="top"/>
  <outline>
    <contour>
      <point x="633" y="-24" type="curve" smooth="yes"/>
      <point x="1027" y="-24"/>
      <point x="1275" y="141"/>
      <point x="1324" y="440" type="curve" smooth="yes"/>
      <point x="1365" y="691"/>
      <point x="1236" y="834"/>
      <point x="903" y="897" type="curve" smooth="yes"/>
      <point x="786" y="919" type="line" smooth="yes"/>
      <point x="636" y="947"/>
      <point x="586" y="987"/>
      <point x="598" y="1058" type="curve" smooth="yes"/>
      <point x="610" y="1133"/>
      <point x="701" y="1186"/>
      <point x="818" y="1186" type="curve" smooth="yes"/>
      <point x="946" y="1186"/>
      <point x="1014" y="1126"/>
      <point x="1007" y="1018" type="curve"/>
      <point x="1389" y="1018" type="line"/>
      <point x="1431" y="1330"/>
      <point x="1218" y="1514"/>
      <point x="844" y="1514" type="curve" smooth="yes"/>
      <point x="492" y="1514"/>
      <point x="226" y="1334"/>
      <point x="181" y="1064" type="curve" smooth="yes"/>
      <point x="142" y="830"/>
      <point x="282" y="665"/>
      <point x="560" y="611" type="curve" smooth="yes"/>
      <point x="704" y="583" type="line" smooth="yes"/>
      <point x="866" y="552"/>
      <point x="925" y="507"/>
      <point x="913" y="435" type="curve" smooth="yes"/>
      <point x="900" y="357"/>
      <point x="803" y="304"/>
      <point x="672" y="304" type="curve" smooth="yes"/>
      <point x="521" y="304"/>
      <point x="438" y="375"/>
      <point x="452" y="496" type="curve"/>
      <point x="59" y="496" type="line"/>
      <point x="5" y="169"/>
      <point x="210" y="-24"/>
    </contour>
  </outline>
</glyph>
<glyph name="T" format="2">
  <advance width="1345"/>
  <unicode hex="0054"/>
  <anchor x="584" y="0" name="bottom"/>
  <anchor x="793" y="0" name="bottomr"/>
  <anchor x="578" y="0" name="cedilla"/>
  <anchor x="694" y="666" name="cross"/>
  <anchor x="793" y="0" name="cyrtic"/>
  <anchor x="738" y="0" name="right"/>
  <anchor x="833" y="1490" name="top"/>
  <outline>
    <contour>
      <point x="141" y="1138" type="line"/>
      <point x="565" y="1138" type="line"/>
      <point x="377" y="0" type="line"/>
      <point x="793" y="0" type="line"/>
      <point x="981" y="1138" type="line"/>
      <point x="1405" y="1138" type="line"/>
      <point x="1464" y="1490" type="line"/>
      <point x="200" y="1490" type="line"/>
    </contour>
  </outline>
</glyph>
<glyph name="U" format="2">
  <advance width="1444"/>
  <unicode hex="0055"/>
  <anchor x="635" y="0" name="bottom"/>
  <anchor x="1362" y="517" name="ogonek"/>
  <anchor x="763" y="0" name="right"/>
  <anchor x="1119" y="1490" name="rtophorn"/>
  <anchor x="881" y="1490" name="top"/>
  <outline>
    <contour>
      <point x="651" y="-24" type="curve" smooth="yes"/>
      <point x="1030" y="-24"/>
      <point x="1306" y="181"/>
      <point x="1362" y="517" type="curve" smooth="yes"/>
      <point x="1523" y="1490" type="line"/>
      <point x="1119" y="1490" type="line"/>
      <point x="968" y="577" type="line" smooth="yes"/>
      <point x="945" y="438"/>
      <point x="818" y="326"/>
      <point x="668" y="326" type="curve" smooth="yes"/>
      <point x="540" y="326"/>
      <point x="465" y="413"/>
      <point x="488" y="551" type="curve" smooth="yes"/>
      <point x="643" y="1490" type="line"/>
      <point x="239" y="1490" type="line"/>
      <point x="82" y="543" type="line" smooth="yes"/>
      <point x="26" y="206"/>
      <point x="251" y="-24"/>
    </contour>
  </outline>
</glyph>
<glyph name="V" format="2">
  <advance width="1536"/>
  <unicode hex="0056"/>
  <anchor x="680" y="0" name="bottom"/>
  <anchor x="927" y="1490" name="top"/>
  <outline>
    <contour>
      <point x="412" y="0" type="line"/>
      <point x="964" y="0" type="line"/>
      <point x="1695" y="1490" type="line"/>
      <point x="1231" y="1490" type="line"/>
      <point x="969" y="912" type="line" smooth="yes"/>
      <point x="857" y="661"/>
      <point x="751" y="410"/>
      <point x="645" y="159" type="curve"/>
      <point x="767" y="159" type="line"/>
      <point x="742" y="410"/>
      <point x="716" y="661"/>
      <point x="682" y="912" type="curve" smooth="yes"/>
      <point x="605" y="1490" type="line"/>
      <point x="159" y="1490" type="line"/>
    </contour>
  </outline>
</glyph>
<glyph name="W" format="2">
  <advance width="2124"/>
  <unicode hex="0057"/>
  <anchor x="974" y="0" name="bottom"/>
  <anchor x="1221" y="1490" name="top"/>
  <outline>
    <contour>
      <point x="307" y="0" type="line"/>
      <point x="764" y="0" type="line"/>
      <point x="1047" y="688" type="line" smooth="yes"/>
      <point x="1090" y="794"/>
      <point x="1140" y="944"/>
      <point x="1228" y="1168" type="curve"/>
      <point x="1106" y="1168" type="line"/>
      <point x="1120" y="944"/>
      <point x="1120" y="794"/>
      <point x="1129" y="688" type="curve" smooth="yes"/>
      <point x="1184" y="0" type="line"/>
      <point x="1641" y="0" type="line"/>
      <point x="2283" y="1490" type="line"/>
      <point x="1831" y="1490" type="line"/>
      <point x="1615" y="912" type="line" smooth="yes"/>
      <point x="1533" y="693"/>
      <point x="1460" y="475"/>
      <point x="1386" y="256" type="curve"/>
      <point x="1483" y="256" type="line"/>
      <point x="1478" y="475"/>
      <point x="1473" y="693"/>
      <point x="1459" y="912" type="curve" smooth="yes"/>
      <point x="1423" y="1490" type="line"/>
      <point x="1019" y="1490" type="line"/>
      <point x="791" y="912" type="line" smooth="yes"/>
      <point x="705" y="693"/>
      <point x="628" y="475"/>
      <point x="549" y="256" type="curve"/>
      <point x="645" y="256" type="line"/>
      <point x="645" y="475"/>
      <point x="643" y="693"/>
      <point x="634" y="912" type="curve" smooth="yes"/>
      <point x="611" y="1490" type="line"/>
      <point x="159" y="1490" type="line"/>
    </contour>
  </outline>
</glyph>
<glyph name="X" format="2">
  <advance width="1518"/>
  <unicode hex="0058"/>
  <anchor x="672" y="0" name="bottom"/>
  <anchor x="799" y="766" name="cross"/>
  <anchor x="1404" y="0" name="cyrtic"/>
  <anchor x="919" y="1490" name="top"/>
  <outline>
    <contour>
      <point x="-87" y="0" type="line"/>
      <point x="393" y="0" type="line"/>
      <point x="606" y="256" type="line" smooth="yes"/>
      <point x="670" y="332"/>
      <point x="728" y="407"/>
      <point x="788" y="483" type="curve"/>
      <point x="734" y="483" type="line"/>
      <point x="768" y="407"/>
      <point x="802" y="332"/>
      <point x="838" y="256" type="curve" smooth="yes"/>
      <point x="958" y="0" type="line"/>
      <point x="1431" y="0" type="line"/>
      <point x="960" y="915" type="line"/>
      <point x="913" y="626" type="line"/>
      <point x="1620" y="1490" type="line"/>
      <point x="1150" y="1490" type="line"/>
      <point x="996" y="1296" type="line" smooth="yes"/>
      <point x="917" y="1196"/>
      <point x="842" y="1095"/>
      <point x="767" y="995" type="curve"/>
      <point x="889" y="995" type="line"/>
      <point x="848" y="1095"/>
      <point x="806" y="1196"/>
      <point x="762" y="1296" type="curve" smooth="yes"/>
      <point x="676" y="1490" type="line"/>
      <point x="220" y="1490" type="line"/>
      <point x="655" y="602" type="line"/>
      <point x="706" y="911" type="line"/>
    </contour>
  </outline>
</glyph>
<glyph name="Y" format="2">
  <advance width="1496"/>
  <unicode hex="0059"/>
  <anchor x="666" y="0" name="bottom"/>
  <anchor x="719" y="307" name="cross"/>
  <anchor x="868" y="0" name="ogonek"/>
  <anchor x="159" y="1490" name="tonos"/>
  <anchor x="907" y="1490" name="top"/>
  <outline>
    <contour>
      <point x="467" y="0" type="line"/>
      <point x="869" y="0" type="line"/>
      <point x="953" y="508" type="line"/>
      <point x="1655" y="1490" type="line"/>
      <point x="1166" y="1490" type="line"/>
      <point x="895" y="1072" type="line" smooth="yes"/>
      <point x="851" y="1003"/>
      <point x="809" y="933"/>
      <point x="769" y="864" type="curve"/>
      <point x="828" y="864" type="line"/>
      <point x="807" y="933"/>
      <point x="787" y="1003"/>
      <point x="763" y="1072" type="curve" smooth="yes"/>
      <point x="619" y="1490" type="line"/>
      <point x="159" y="1490" type="line"/>
      <point x="551" y="508" type="line"/>
    </contour>
  </outline>
</glyph>
<glyph name="Z" format="2">
  <advance width="1391"/>
  <unicode hex="005A"/>
  <anchor x="609" y="0" name="bottom"/>
  <anchor x="1215" y="0" name="bottomr"/>
  <anchor x="731" y="745" name="cross"/>
  <anchor x="860" y="1490" name="top"/>
  <outline>
    <contour>
      <point x="-1" y="0" type="line"/>
      <point x="1215" y="0" type="line"/>
      <point x="1269" y="326" type="line"/>
      <point x="567" y="326" type="line"/>
      <point x="1427" y="1266" type="line"/>
      <point x="1464" y="1490" type="line"/>
      <point x="248" y="1490" type="line"/>
      <point x="194" y="1164" type="line"/>
      <point x="896" y="1164" type="line"/>
      <point x="36" y="224" type="line"/>
    </contour>
  </outline>
</glyph>
<glyph name="bracketleft" format="2">
  <advance width="736"/>
  <unicode hex="005B"/>
  <anchor x="325.879" y="636" name="cross"/>
  <outline>
    <contour>
      <point x="-28.081" y="-294" type="line"/>
      <point x="539.919" y="-294" type="line"/>
      <point x="590.246" y="10" type="line"/>
      <point x="422.246" y="10" type="line"/>
      <point x="629.513" y="1262" type="line"/>
      <point x="797.513" y="1262" type="line"/>
      <point x="847.84" y="1566" type="line"/>
      <point x="279.84" y="1566" type="line"/>
    </contour>
  </outline>
</glyph>
<glyph name="backslash" format="2">
  <advance width="812"/>
  <unicode hex="005C"/>
  <outline>
    <contour>
      <point x="351.507" y="-224" type="line"/>
      <point x="691.507" y="-224" type="line"/>
      <point x="506.846" y="1560" type="line"/>
      <point x="166.846" y="1560" type="line"/>
    </contour>
  </outline>
</glyph>
<glyph name="bracketright" format="2">
  <advance width="736"/>
  <unicode hex="005D"/>
  <anchor x="445.879" y="636" name="cross"/>
  <outline>
    <contour>
      <point x="-76.081" y="-294" type="line"/>
      <point x="491.919" y="-294" type="line"/>
      <point x="799.84" y="1566" type="line"/>
      <point x="231.84" y="1566" type="line"/>
      <point x="181.513" y="1262" type="line"/>
      <point x="349.513" y="1262" type="line"/>
      <point x="142.246" y="10" type="line"/>
      <point x="-25.754" y="10" type="line"/>
    </contour>
  </outline>
</glyph>
<glyph name="asciicircum" format="2">
  <advance width="992"/>
  <unicode hex="005E"/>
  <outline>
    <contour>
      <point x="598.797" y="1306" type="line"/>
      <point x="584.891" y="1222" type="line"/>
      <point x="636.891" y="1222" type="line"/>
      <point x="650.797" y="1306" type="line"/>
    </contour>
    <contour>
      <point x="89.347" y="814" type="line"/>
      <point x="365.347" y="814" type="line"/>
      <point x="621.526" y="1250" type="line"/>
      <point x="609.526" y="1250" type="line"/>
      <point x="721.347" y="814" type="line"/>
      <point x="997.347" y="814" type="line"/>
      <point x="793.285" y="1466" type="line"/>
      <point x="509.285" y="1466" type="line"/>
    </contour>
  </outline>
</glyph>
<glyph name="underscore" format="2">
  <advance width="1011"/>
  <unicode hex="005F"/>
  <anchor x="441" y="137" name="_bottom"/>
  <outline>
    <contour>
      <point x="923" y="0" type="line"/>
      <point x="-87" y="0" type="line"/>
      <point x="-134" y="-286" type="line"/>
      <point x="876" y="-286" type="line"/>
    </contour>
  </outline>
</glyph>
<glyph name="a" format="2">
  <advance width="1274"/>
  <unicode hex="0061"/>
  <anchor x="647.0" y="0" name="bottom"/>
  <anchor x="1188.0" y="0" name="bottomr"/>
  <anchor x="1188.0" y="0" name="ogonek"/>
  <anchor x="812.08" y="1056" name="top"/>
  <anchor x="1378.08" y="1056" name="topr"/>
  <outline>
    <contour>
      <point x="497.68" y="-24" type="curve" smooth="yes"/>
      <point x="637.68" y="-24"/>
      <point x="753.2" y="40"/>
      <point x="822.08" y="156" type="curve"/>
      <point x="826.08" y="156" type="line"/>
      <point x="798.0" y="0" type="line"/>
      <point x="1188.0" y="0" type="line"/>
      <point x="1378.08" y="1056" type="line"/>
      <point x="988.0799999999999" y="1056" type="line"/>
      <point x="964.3199999999999" y="924" type="line"/>
      <point x="959.3199999999999" y="924" type="line"/>
      <point x="915.86" y="1027"/>
      <point x="829.4" y="1080"/>
      <point x="692.4" y="1080" type="curve" smooth="yes"/>
      <point x="427.4" y="1080"/>
      <point x="199.54" y="853"/>
      <point x="141.39999999999998" y="530" type="curve" smooth="yes"/>
      <point x="80.92" y="194"/>
      <point x="220.68" y="-24"/>
    </contour>
    <contour>
      <point x="673.2" y="290" type="curve" smooth="yes"/>
      <point x="564.2" y="290"/>
      <point x="519.12" y="384"/>
      <point x="545.4" y="530" type="curve" smooth="yes"/>
      <point x="571.5" y="675"/>
      <point x="650.24" y="768"/>
      <point x="759.24" y="768" type="curve" smooth="yes"/>
      <point x="868.24" y="768"/>
      <point x="929.5" y="675"/>
      <point x="903.4" y="530" type="curve" smooth="yes"/>
      <point x="877.12" y="384"/>
      <point x="782.2" y="290"/>
    </contour>
  </outline>
</glyph>
<glyph name="b" format="2">
  <advance width="1282"/>
  <unicode hex="0062"/>
  <anchor x="629" y="0" name="bottom"/>
  <anchor x="504" y="1262" name="cross"/>
  <anchor x="916" y="1304" name="top"/>
  <anchor x="245" y="1490" name="topbar"/>
  <outline>
    <contour>
      <point x="715" y="-24" type="curve" smooth="yes"/>
      <point x="1056" y="-24"/>
      <point x="1241" y="310"/>
      <point x="1241" y="618" type="curve" smooth="yes"/>
      <point x="1241" y="895"/>
      <point x="1091" y="1080"/>
      <point x="853" y="1080" type="curve" smooth="yes"/>
      <point x="728" y="1080"/>
      <point x="608" y="1029"/>
      <point x="557" y="930" type="curve"/>
      <point x="556" y="930" type="line"/>
      <point x="645" y="1490" type="line"/>
      <point x="245" y="1490" type="line"/>
      <point x="-1" y="0" type="line"/>
      <point x="395" y="0" type="line"/>
      <point x="424" y="176" type="line"/>
      <point x="425" y="176" type="line"/>
      <point x="456" y="47"/>
      <point x="558" y="-24"/>
    </contour>
    <contour>
      <point x="599" y="290" type="curve" smooth="yes"/>
      <point x="515" y="290"/>
      <point x="463" y="349"/>
      <point x="463" y="448" type="curve" smooth="yes"/>
      <point x="463" y="596"/>
      <point x="564" y="768"/>
      <point x="719" y="768" type="curve" smooth="yes"/>
      <point x="800" y="768"/>
      <point x="841" y="714"/>
      <point x="841" y="622" type="curve" smooth="yes"/>
      <point x="841" y="477"/>
      <point x="757" y="290"/>
    </contour>
  </outline>
</glyph>
<glyph name="c" format="2">
  <advance width="1193"/>
  <unicode hex="0063"/>
  <anchor x="523" y="0" name="bottom"/>
  <anchor x="523" y="0" name="cedilla"/>
  <anchor x="618" y="528" name="center"/>
  <anchor x="697" y="1056" name="top"/>
  <anchor x="1165" y="618" name="topr"/>
  <outline>
    <contour>
      <point x="539" y="-24" type="curve" smooth="yes"/>
      <point x="847" y="-24"/>
      <point x="1090" y="160"/>
      <point x="1136" y="442" type="curve"/>
      <point x="754" y="442" type="line"/>
      <point x="735" y="357"/>
      <point x="652" y="286"/>
      <point x="557" y="286" type="curve" smooth="yes"/>
      <point x="480" y="286"/>
      <point x="440" y="336"/>
      <point x="440" y="430" type="curve" smooth="yes"/>
      <point x="440" y="583"/>
      <point x="522" y="770"/>
      <point x="679" y="770" type="curve" smooth="yes"/>
      <point x="768" y="770"/>
      <point x="790" y="696"/>
      <point x="783" y="618" type="curve"/>
      <point x="1165" y="618" type="line"/>
      <point x="1202" y="900"/>
      <point x="978" y="1080"/>
      <point x="681" y="1080" type="curve" smooth="yes"/>
      <point x="291" y="1080"/>
      <point x="40" y="787"/>
      <point x="40" y="440" type="curve" smooth="yes"/>
      <point x="40" y="159"/>
      <point x="230" y="-24"/>
    </contour>
  </outline>
</glyph>
<glyph name="d" format="2">
  <advance width="1279"/>
  <unicode hex="0064"/>
  <anchor x="572" y="0" name="bottom"/>
  <anchor x="1106" y="0" name="bottomr"/>
  <anchor x="1019" y="1262" name="cross"/>
  <anchor x="1470" y="1490" name="raccent"/>
  <anchor x="587" y="1304" name="top"/>
  <anchor x="1352" y="1490" name="topbar"/>
  <outline>
    <contour>
      <point x="430" y="-24" type="curve" smooth="yes"/>
      <point x="560" y="-24"/>
      <point x="668" y="26"/>
      <point x="734" y="154" type="curve"/>
      <point x="735" y="154" type="line"/>
      <point x="710" y="0" type="line"/>
      <point x="1106" y="0" type="line"/>
      <point x="1352" y="1490" type="line"/>
      <point x="952" y="1490" type="line"/>
      <point x="855" y="899" type="line"/>
      <point x="854" y="899" type="line"/>
      <point x="803" y="1017"/>
      <point x="715" y="1080"/>
      <point x="568" y="1080" type="curve" smooth="yes"/>
      <point x="238" y="1080"/>
      <point x="38" y="746"/>
      <point x="38" y="415" type="curve" smooth="yes"/>
      <point x="38" y="146"/>
      <point x="184" y="-24"/>
    </contour>
    <contour>
      <point x="560" y="290" type="curve" smooth="yes"/>
      <point x="479" y="290"/>
      <point x="439" y="344"/>
      <point x="439" y="436" type="curve" smooth="yes"/>
      <point x="439" y="584"/>
      <point x="522" y="768"/>
      <point x="680" y="768" type="curve" smooth="yes"/>
      <point x="764" y="768"/>
      <point x="817" y="710"/>
      <point x="817" y="611" type="curve" smooth="yes"/>
      <point x="817" y="465"/>
      <point x="716" y="290"/>
    </contour>
  </outline>
</glyph>
<glyph name="e" format="2">
  <advance width="1200"/>
  <unicode hex="0065"/>
  <anchor x="547" y="0" name="bottom"/>
  <anchor x="544" y="0" name="cedilla"/>
  <anchor x="1131" y="360" name="ogonek"/>
  <anchor x="718" y="1056" name="top"/>
  <outline>
    <contour>
      <point x="550" y="-24" type="curve" smooth="yes"/>
      <point x="859" y="-24"/>
      <point x="1054" y="128"/>
      <point x="1131" y="360" type="curve"/>
      <point x="765" y="360" type="line"/>
      <point x="746" y="297"/>
      <point x="693" y="255"/>
      <point x="584" y="255" type="curve" smooth="yes"/>
      <point x="413" y="255"/>
      <point x="410" y="357"/>
      <point x="433" y="515" type="curve" smooth="yes"/>
      <point x="453" y="651"/>
      <point x="456" y="798"/>
      <point x="664" y="798" type="curve" smooth="yes"/>
      <point x="754" y="798"/>
      <point x="805" y="770"/>
      <point x="805" y="724" type="curve" smooth="yes"/>
      <point x="805" y="664"/>
      <point x="719" y="633"/>
      <point x="191" y="633" type="curve"/>
      <point x="154" y="401" type="line"/>
      <point x="769" y="401"/>
      <point x="1168" y="395"/>
      <point x="1168" y="729" type="curve" smooth="yes"/>
      <point x="1168" y="970"/>
      <point x="960" y="1080"/>
      <point x="706" y="1080" type="curve" smooth="yes"/>
      <point x="360" y="1080"/>
      <point x="102" y="874"/>
      <point x="45" y="528" type="curve" smooth="yes"/>
      <point x="-15" y="166"/>
      <point x="191" y="-24"/>
    </contour>
  </outline>
</glyph>
<glyph name="f" format="2">
  <advance width="858"/>
  <unicode hex="0066"/>
  <anchor x="439" y="768" name="cross"/>
  <anchor x="650" y="1490" name="top"/>
  <anchor x="310" y="0" name="bottom"/>
  <outline>
    <contour>
      <point x="905" y="1056" type="line"/>
      <point x="108" y="1056" type="line"/>
      <point x="57" y="752" type="line"/>
      <point x="855" y="752" type="line"/>
    </contour>
    <component base="_part.f_base" xOffset="31"/>
  </outline>
</glyph>
<glyph name="g" format="2">
  <advance width="1278"/>
  <unicode hex="0067"/>
  <anchor x="475" y="-418" name="bottom"/>
  <anchor x="994" y="568" name="cross"/>
  <anchor x="705" y="1056" name="top"/>
  <anchor x="1279" y="1056" name="topr"/>
  <outline>
    <contour>
      <point x="492" y="-432" type="curve" smooth="yes"/>
      <point x="838" y="-432"/>
      <point x="1057" y="-291"/>
      <point x="1115" y="63" type="curve" smooth="yes"/>
      <point x="1279" y="1056" type="line"/>
      <point x="881" y="1056" type="line"/>
      <point x="856" y="903" type="line"/>
      <point x="855" y="903" type="line"/>
      <point x="809" y="1008"/>
      <point x="714" y="1080"/>
      <point x="567" y="1080" type="curve" smooth="yes"/>
      <point x="254" y="1080"/>
      <point x="41" y="767"/>
      <point x="41" y="446" type="curve" smooth="yes"/>
      <point x="41" y="192"/>
      <point x="187" y="16"/>
      <point x="436" y="16" type="curve" smooth="yes"/>
      <point x="573" y="16"/>
      <point x="667" y="70"/>
      <point x="737" y="195" type="curve"/>
      <point x="738" y="195" type="line"/>
      <point x="715" y="45" type="line" smooth="yes"/>
      <point x="695" y="-83"/>
      <point x="617" y="-158"/>
      <point x="496" y="-158" type="curve" smooth="yes"/>
      <point x="414" y="-158"/>
      <point x="375" y="-123"/>
      <point x="370" y="-72" type="curve"/>
      <point x="0" y="-72" type="line"/>
      <point x="0" y="-274"/>
      <point x="129" y="-432"/>
    </contour>
    <contour>
      <point x="564" y="322" type="curve" smooth="yes"/>
      <point x="483" y="322"/>
      <point x="442" y="374"/>
      <point x="442" y="463" type="curve" smooth="yes"/>
      <point x="442" y="605"/>
      <point x="526" y="776"/>
      <point x="681" y="776" type="curve" smooth="yes"/>
      <point x="765" y="776"/>
      <point x="818" y="721"/>
      <point x="818" y="626" type="curve" smooth="yes"/>
      <point x="818" y="485"/>
      <point x="718" y="322"/>
    </contour>
  </outline>
</glyph>
<glyph name="h" format="2">
  <advance width="1266"/>
  <unicode hex="0068"/>
  <anchor x="546" y="0" name="bottom"/>
  <anchor x="200" y="0" name="cedilla"/>
  <anchor x="504" y="1262" name="cross"/>
  <anchor x="693" y="0" name="lfthook"/>
  <anchor x="446" y="1490" name="top"/>
  <outline>
    <contour>
      <point x="492" y="560" type="line" smooth="yes"/>
      <point x="512" y="682"/>
      <point x="575" y="742"/>
      <point x="669" y="742" type="curve" smooth="yes"/>
      <point x="763" y="742"/>
      <point x="805" y="682"/>
      <point x="788" y="576" type="curve" smooth="yes"/>
      <point x="693" y="0" type="line"/>
      <point x="1093" y="0" type="line"/>
      <point x="1203" y="666" type="line" smooth="yes"/>
      <point x="1245" y="920"/>
      <point x="1135" y="1080"/>
      <point x="900" y="1080" type="curve" smooth="yes"/>
      <point x="686" y="1080"/>
      <point x="564" y="949"/>
      <point x="469" y="765" type="curve"/>
      <point x="526" y="765" type="line"/>
      <point x="646" y="1490" type="line"/>
      <point x="246" y="1490" type="line"/>
      <point x="-1" y="0" type="line"/>
      <point x="399" y="0" type="line"/>
    </contour>
  </outline>
</glyph>
<glyph name="k" format="2">
  <advance width="1202"/>
  <unicode hex="006B"/>
  <anchor x="525" y="0" name="bottom"/>
  <anchor x="446" y="1490" name="top"/>
  <outline>
    <contour>
      <point x="397" y="240" type="line"/>
      <point x="645" y="498" type="line"/>
      <point x="757" y="498" type="line"/>
      <point x="1298" y="1056" type="line"/>
      <point x="846" y="1056" type="line"/>
      <point x="521" y="712" type="line"/>
      <point x="475" y="712" type="line"/>
    </contour>
    <contour>
      <point x="-1" y="0" type="line"/>
      <point x="399" y="0" type="line"/>
      <point x="646" y="1490" type="line"/>
      <point x="246" y="1490" type="line"/>
    </contour>
    <contour>
      <point x="681" y="0" type="line"/>
      <point x="1135" y="0" type="line"/>
      <point x="801" y="690" type="line"/>
      <point x="497" y="410" type="line"/>
    </contour>
  </outline>
</glyph>
<glyph name="l" format="2">
  <advance width="573"/>
  <unicode hex="006C"/>
  <anchor x="198" y="0" name="bottom"/>
  <anchor x="399" y="0" name="bottomr"/>
  <anchor x="522" y="745" name="centerr"/>
  <anchor x="326" y="768" name="cross"/>
  <anchor x="762" y="1490" name="raccent"/>
  <anchor x="446" y="1490" name="top"/>
  <outline>
    <contour>
      <point x="646" y="1490" type="line"/>
      <point x="246" y="1490" type="line"/>
      <point x="-1" y="0" type="line"/>
      <point x="399" y="0" type="line"/>
    </contour>
  </outline>
</glyph>
<glyph name="m" format="2">
  <advance width="1888"/>
  <unicode hex="006D"/>
  <anchor x="857" y="0" name="bottom"/>
  <anchor x="1315" y="0" name="lfthook"/>
  <anchor x="1031" y="1056" name="top"/>
  <outline>
    <contour>
      <point x="-1" y="0" type="line"/>
      <point x="399" y="0" type="line"/>
      <point x="497" y="593" type="line" smooth="yes"/>
      <point x="513" y="689"/>
      <point x="587" y="762"/>
      <point x="678" y="762" type="curve" smooth="yes"/>
      <point x="751" y="762"/>
      <point x="785" y="715"/>
      <point x="769" y="619" type="curve" smooth="yes"/>
      <point x="667" y="0" type="line"/>
      <point x="1047" y="0" type="line"/>
      <point x="1145" y="593" type="line" smooth="yes"/>
      <point x="1161" y="689"/>
      <point x="1235" y="762"/>
      <point x="1325" y="762" type="curve" smooth="yes"/>
      <point x="1398" y="762"/>
      <point x="1433" y="715"/>
      <point x="1417" y="619" type="curve" smooth="yes"/>
      <point x="1315" y="0" type="line"/>
      <point x="1715" y="0" type="line"/>
      <point x="1829" y="693" type="line" smooth="yes"/>
      <point x="1867" y="920"/>
      <point x="1737" y="1080"/>
      <point x="1515" y="1080" type="curve" smooth="yes"/>
      <point x="1357" y="1080"/>
      <point x="1196" y="1000"/>
      <point x="1131" y="813" type="curve"/>
      <point x="1157" y="787" type="line"/>
      <point x="1164" y="976"/>
      <point x="1034" y="1080"/>
      <point x="867" y="1080" type="curve" smooth="yes"/>
      <point x="724" y="1080"/>
      <point x="581" y="1007"/>
      <point x="500" y="813" type="curve"/>
      <point x="518" y="800" type="line"/>
      <point x="557" y="1056" type="line"/>
      <point x="173" y="1056" type="line"/>
    </contour>
  </outline>
</glyph>
<glyph name="n" format="2">
  <advance width="1266"/>
  <unicode hex="006E"/>
  <anchor x="545" y="0" name="bottom"/>
  <anchor x="1093" y="0" name="bottomr"/>
  <anchor x="-1" y="0" name="lfthook"/>
  <anchor x="719" y="1056" name="top"/>
  <anchor x="573" y="1056" name="topr"/>
  <outline>
    <contour>
      <point x="489" y="547" type="line" smooth="yes"/>
      <point x="509" y="669"/>
      <point x="569" y="742"/>
      <point x="673" y="742" type="curve" smooth="yes"/>
      <point x="757" y="742"/>
      <point x="807" y="695"/>
      <point x="790" y="589" type="curve" smooth="yes"/>
      <point x="693" y="0" type="line"/>
      <point x="1093" y="0" type="line"/>
      <point x="1201" y="653" type="line" smooth="yes"/>
      <point x="1243" y="907"/>
      <point x="1140" y="1080"/>
      <point x="895" y="1080" type="curve" smooth="yes"/>
      <point x="691" y="1080"/>
      <point x="562" y="961"/>
      <point x="467" y="777" type="curve"/>
      <point x="521" y="765" type="line"/>
      <point x="568" y="1056" type="line"/>
      <point x="173" y="1056" type="line"/>
      <point x="-1" y="0" type="line"/>
      <point x="399" y="0" type="line"/>
    </contour>
  </outline>
</glyph>
<glyph name="o" format="2">
  <advance width="1244"/>
  <unicode hex="006F"/>
  <anchor x="535" y="0" name="bottom"/>
  <anchor x="622" y="528" name="center"/>
  <anchor x="1198" y="528" name="ogonek"/>
  <anchor x="709" y="1056" name="top"/>
  <anchor x="713" y="1080" name="tophorn"/>
  <outline>
    <contour>
      <point x="551" y="-24" type="curve" smooth="yes"/>
      <point x="953" y="-24"/>
      <point x="1204" y="266"/>
      <point x="1204" y="616" type="curve" smooth="yes"/>
      <point x="1204" y="901"/>
      <point x="1007" y="1080"/>
      <point x="693" y="1080" type="curve" smooth="yes"/>
      <point x="313" y="1080"/>
      <point x="40" y="813"/>
      <point x="40" y="440" type="curve" smooth="yes"/>
      <point x="40" y="154"/>
      <point x="238" y="-24"/>
    </contour>
    <contour>
      <point x="578" y="288" type="curve" smooth="yes"/>
      <point x="507" y="288"/>
      <point x="440" y="336"/>
      <point x="440" y="438" type="curve" smooth="yes"/>
      <point x="440" y="589"/>
      <point x="516" y="768"/>
      <point x="666" y="768" type="curve" smooth="yes"/>
      <point x="737" y="768"/>
      <point x="804" y="720"/>
      <point x="804" y="618" type="curve" smooth="yes"/>
      <point x="804" y="467"/>
      <point x="728" y="288"/>
    </contour>
  </outline>
</glyph>
<glyph name="p" format="2">
  <advance width="1280"/>
  <unicode hex="0070"/>
  <anchor x="129" y="-418" name="bottom"/>
  <anchor x="172" y="-162" name="cross"/>
  <anchor x="726" y="1056" name="top"/>
  <anchor x="573" y="1056" name="topr"/>
  <outline>
    <contour>
      <point x="-71" y="-418" type="line"/>
      <point x="329" y="-418" type="line"/>
      <point x="426" y="168" type="line"/>
      <point x="427" y="168" type="line"/>
      <point x="456" y="52"/>
      <point x="557" y="-24"/>
      <point x="707" y="-24" type="curve" smooth="yes"/>
      <point x="1048" y="-24"/>
      <point x="1241" y="310"/>
      <point x="1241" y="634" type="curve" smooth="yes"/>
      <point x="1241" y="900"/>
      <point x="1091" y="1080"/>
      <point x="853" y="1080" type="curve" smooth="yes"/>
      <point x="726" y="1080"/>
      <point x="627" y="1040"/>
      <point x="549" y="924" type="curve"/>
      <point x="548" y="924" type="line"/>
      <point x="569" y="1056" type="line"/>
      <point x="173" y="1056" type="line"/>
    </contour>
    <contour>
      <point x="599" y="290" type="curve" smooth="yes"/>
      <point x="515" y="290"/>
      <point x="463" y="349"/>
      <point x="463" y="448" type="curve" smooth="yes"/>
      <point x="463" y="596"/>
      <point x="564" y="768"/>
      <point x="719" y="768" type="curve" smooth="yes"/>
      <point x="800" y="768"/>
      <point x="841" y="714"/>
      <point x="841" y="622" type="curve" smooth="yes"/>
      <point x="841" y="477"/>
      <point x="757" y="290"/>
    </contour>
  </outline>
</glyph>
<glyph name="q" format="2">
  <advance width="1279"/>
  <unicode hex="0071"/>
  <anchor x="836" y="-418" name="bottom"/>
  <anchor x="879" y="-162" name="cross"/>
  <anchor x="726" y="1056" name="top"/>
  <anchor x="1280" y="1056" name="topr"/>
  <outline>
    <contour>
      <point x="1036" y="-418" type="line"/>
      <point x="1280" y="1056" type="line"/>
      <point x="884" y="1056" type="line"/>
      <point x="859" y="901" type="line"/>
      <point x="858" y="901" type="line"/>
      <point x="808" y="1016"/>
      <point x="715" y="1080"/>
      <point x="568" y="1080" type="curve" smooth="yes"/>
      <point x="238" y="1080"/>
      <point x="38" y="746"/>
      <point x="38" y="415" type="curve" smooth="yes"/>
      <point x="38" y="146"/>
      <point x="184" y="-24"/>
      <point x="430" y="-24" type="curve" smooth="yes"/>
      <point x="560" y="-24"/>
      <point x="661" y="28"/>
      <point x="728" y="144" type="curve"/>
      <point x="729" y="144" type="line"/>
      <point x="636" y="-418" type="line"/>
    </contour>
    <contour>
      <point x="560" y="290" type="curve" smooth="yes"/>
      <point x="479" y="290"/>
      <point x="439" y="344"/>
      <point x="439" y="436" type="curve" smooth="yes"/>
      <point x="439" y="584"/>
      <point x="522" y="768"/>
      <point x="680" y="768" type="curve" smooth="yes"/>
      <point x="764" y="768"/>
      <point x="817" y="710"/>
      <point x="817" y="611" type="curve" smooth="yes"/>
      <point x="817" y="465"/>
      <point x="716" y="290"/>
    </contour>
  </outline>
</glyph>
<glyph name="r" format="2">
  <advance width="853"/>
  <unicode hex="0072"/>
  <anchor x="199" y="0" name="bottom"/>
  <anchor x="399" y="0" name="bottomr"/>
  <anchor x="287" y="528" name="cross"/>
  <anchor x="554" y="1056" name="top"/>
  <outline>
    <contour>
      <point x="-1" y="0" type="line"/>
      <point x="399" y="0" type="line"/>
      <point x="483" y="506" type="line" smooth="yes"/>
      <point x="506" y="647"/>
      <point x="600" y="736"/>
      <point x="725" y="736" type="curve" smooth="yes"/>
      <point x="775" y="736"/>
      <point x="843" y="736"/>
      <point x="871" y="736" type="curve"/>
      <point x="924" y="1056" type="line"/>
      <point x="892" y="1056"/>
      <point x="862" y="1056"/>
      <point x="824" y="1056" type="curve" smooth="yes"/>
      <point x="679" y="1056"/>
      <point x="594" y="1006"/>
      <point x="532" y="864" type="curve"/>
      <point x="530" y="864" type="line"/>
      <point x="562" y="1056" type="line"/>
      <point x="174" y="1056" type="line"/>
    </contour>
  </outline>
</glyph>
<glyph name="s" format="2">
  <advance width="1144"/>
  <unicode hex="0073"/>
  <anchor x="489" y="0" name="bottom"/>
  <anchor x="486" y="0" name="cedilla"/>
  <anchor x="6" y="345" name="rthook"/>
  <anchor x="663" y="1056" name="top"/>
  <outline>
    <contour>
      <point x="508" y="-27" type="curve" smooth="yes"/>
      <point x="840" y="-27"/>
      <point x="1080" y="150"/>
      <point x="1080" y="380" type="curve" smooth="yes"/>
      <point x="1080" y="523"/>
      <point x="987" y="603"/>
      <point x="784" y="638" type="curve" smooth="yes"/>
      <point x="565" y="676" type="line" smooth="yes"/>
      <point x="516" y="684"/>
      <point x="493" y="702"/>
      <point x="493" y="732" type="curve" smooth="yes"/>
      <point x="493" y="778"/>
      <point x="550" y="813"/>
      <point x="625" y="813" type="curve" smooth="yes"/>
      <point x="706" y="813"/>
      <point x="750" y="773"/>
      <point x="745" y="705" type="curve"/>
      <point x="1109" y="705" type="line"/>
      <point x="1112" y="723"/>
      <point x="1113" y="744"/>
      <point x="1113" y="759" type="curve" smooth="yes"/>
      <point x="1113" y="955"/>
      <point x="930" y="1077"/>
      <point x="637" y="1077" type="curve" smooth="yes"/>
      <point x="312" y="1077"/>
      <point x="88" y="919"/>
      <point x="88" y="689" type="curve" smooth="yes"/>
      <point x="88" y="538"/>
      <point x="190" y="441"/>
      <point x="382" y="409" type="curve" smooth="yes"/>
      <point x="575" y="377" type="line" smooth="yes"/>
      <point x="639" y="366"/>
      <point x="666" y="349"/>
      <point x="666" y="318" type="curve" smooth="yes"/>
      <point x="666" y="273"/>
      <point x="606" y="239"/>
      <point x="525" y="239" type="curve" smooth="yes"/>
      <point x="441" y="239"/>
      <point x="395" y="277"/>
      <point x="397" y="345" type="curve"/>
      <point x="6" y="345" type="line"/>
      <point x="6" y="342"/>
      <point x="6" y="339"/>
      <point x="6" y="336" type="curve" smooth="yes"/>
      <point x="6" y="114"/>
      <point x="211" y="-27"/>
    </contour>
  </outline>
</glyph>
<glyph name="t" format="2">
  <advance width="744"/>
  <unicode hex="0074"/>
  <anchor x="376.0" y="0" name="bottom"/>
  <anchor x="428.0" y="0" name="cedilla"/>
  <anchor x="704.0" y="0" name="lfthook"/>
  <anchor x="527.92" y="1344" name="top"/>
  <anchor x="886.2" y="1490" name="raccent"/>
  <outline>
    <contour>
      <point x="894.0799999999999" y="1056" type="line"/>
      <point x="486.08" y="1056" type="line"/>
      <point x="431.36" y="752" type="line"/>
      <point x="839.36" y="752" type="line"/>
    </contour>
    <component base="_part.t_base" yxScale="0.18" xOffset="-72.0"/>
  </outline>
</glyph>
<glyph name="v" format="2">
  <advance width="1208"/>
  <unicode hex="0076"/>
  <anchor x="516" y="0" name="bottom"/>
  <anchor x="680" y="1056" name="top"/>
  <outline>
    <contour>
      <point x="286" y="0" type="line"/>
      <point x="746" y="0" type="line"/>
      <point x="1299" y="1056" type="line"/>
      <point x="871" y="1056" type="line"/>
      <point x="671" y="608" type="line" smooth="yes"/>
      <point x="607" y="464"/>
      <point x="547" y="320"/>
      <point x="487" y="176" type="curve"/>
      <point x="582" y="176" type="line"/>
      <point x="569" y="320"/>
      <point x="556" y="464"/>
      <point x="538" y="608" type="curve" smooth="yes"/>
      <point x="483" y="1056" type="line"/>
      <point x="83" y="1056" type="line"/>
    </contour>
  </outline>
</glyph>
<glyph name="w" format="2">
  <advance width="1792"/>
  <unicode hex="0077"/>
  <anchor x="808" y="0" name="bottom"/>
  <anchor x="983" y="1056" name="top"/>
  <outline>
    <contour>
      <point x="232" y="0" type="line"/>
      <point x="644" y="0" type="line"/>
      <point x="814" y="368" type="line" smooth="yes"/>
      <point x="863" y="474"/>
      <point x="909" y="589"/>
      <point x="957" y="704" type="curve"/>
      <point x="893" y="704" type="line"/>
      <point x="903" y="589"/>
      <point x="910" y="474"/>
      <point x="924" y="368" type="curve" smooth="yes"/>
      <point x="972" y="0" type="line"/>
      <point x="1384" y="0" type="line"/>
      <point x="1883" y="1056" type="line"/>
      <point x="1455" y="1056" type="line"/>
      <point x="1345" y="768" type="line" smooth="yes"/>
      <point x="1284" y="608"/>
      <point x="1226" y="432"/>
      <point x="1166" y="264" type="curve"/>
      <point x="1217" y="264" type="line"/>
      <point x="1206" y="432"/>
      <point x="1196" y="609"/>
      <point x="1182" y="768" type="curve" smooth="yes"/>
      <point x="1157" y="1056" type="line"/>
      <point x="809" y="1056" type="line"/>
      <point x="688" y="768" type="line" smooth="yes"/>
      <point x="622" y="609"/>
      <point x="554" y="432"/>
      <point x="487" y="264" type="curve"/>
      <point x="540" y="264" type="line"/>
      <point x="534" y="432"/>
      <point x="531" y="609"/>
      <point x="521" y="768" type="curve" smooth="yes"/>
      <point x="503" y="1056" type="line"/>
      <point x="83" y="1056" type="line"/>
    </contour>
  </outline>
</glyph>
<glyph name="x" format="2">
  <advance width="1152"/>
  <unicode hex="0078"/>
  <anchor x="489" y="0" name="bottom"/>
  <anchor x="999" y="0" name="cyrtic"/>
  <anchor x="871" y="0" name="right"/>
  <anchor x="664" y="1056" name="top"/>
  <outline>
    <contour>
      <point x="-91" y="0" type="line"/>
      <point x="355" y="0" type="line"/>
      <point x="426" y="96" type="line" smooth="yes"/>
      <point x="496" y="191"/>
      <point x="549" y="269"/>
      <point x="608" y="352" type="curve"/>
      <point x="530" y="352" type="line"/>
      <point x="560" y="269"/>
      <point x="583" y="191"/>
      <point x="619" y="96" type="curve" smooth="yes"/>
      <point x="655" y="0" type="line"/>
      <point x="1069" y="0" type="line"/>
      <point x="773" y="609" type="line"/>
      <point x="741" y="479" type="line"/>
      <point x="1228" y="1056" type="line"/>
      <point x="788" y="1056" type="line"/>
      <point x="720" y="960" type="line" smooth="yes"/>
      <point x="651" y="863"/>
      <point x="601" y="781"/>
      <point x="543" y="696" type="curve"/>
      <point x="646" y="696" type="line"/>
      <point x="618" y="781"/>
      <point x="596" y="862"/>
      <point x="561" y="960" type="curve" smooth="yes"/>
      <point x="527" y="1056" type="line"/>
      <point x="113" y="1056" type="line"/>
      <point x="391" y="479" type="line"/>
      <point x="423" y="609" type="line"/>
    </contour>
  </outline>
</glyph>
<glyph name="y" format="2">
  <advance width="1208"/>
  <unicode hex="0079"/>
  <anchor x="894" y="0" name="bottom"/>
  <anchor x="725" y="0" name="ogonek"/>
  <anchor x="659" y="1056" name="top"/>
  <outline>
    <contour>
      <point x="-30" y="-418" type="line"/>
      <point x="58" y="-418"/>
      <point x="154" y="-418"/>
      <point x="242" y="-418" type="curve" smooth="yes"/>
      <point x="432" y="-418"/>
      <point x="545" y="-340"/>
      <point x="656" y="-134" type="curve" smooth="yes"/>
      <point x="1299" y="1056" type="line"/>
      <point x="871" y="1056" type="line"/>
      <point x="659" y="608" type="line" smooth="yes"/>
      <point x="592" y="466"/>
      <point x="529" y="320"/>
      <point x="470" y="176" type="curve"/>
      <point x="587" y="176" type="line"/>
      <point x="574" y="320"/>
      <point x="561" y="465"/>
      <point x="542" y="608" type="curve" smooth="yes"/>
      <point x="483" y="1056" type="line"/>
      <point x="83" y="1056" type="line"/>
      <point x="313" y="0" type="line"/>
      <point x="305" y="-16" type="line" smooth="yes"/>
      <point x="268" y="-89"/>
      <point x="254" y="-114"/>
      <point x="180" y="-114" type="curve" smooth="yes"/>
      <point x="20" y="-114" type="line"/>
    </contour>
  </outline>
</glyph>
<glyph name="z" format="2">
  <advance width="1148"/>
  <unicode hex="007A"/>
  <anchor x="487" y="0" name="bottom"/>
  <anchor x="963" y="0" name="bottomr"/>
  <anchor x="576" y="528" name="cross"/>
  <anchor x="660" y="1056" name="top"/>
  <outline>
    <contour>
      <point x="11" y="0" type="line"/>
      <point x="963" y="0" type="line"/>
      <point x="1013" y="302" type="line"/>
      <point x="547" y="302" type="line"/>
      <point x="547" y="304" type="line"/>
      <point x="1083" y="784" type="line"/>
      <point x="1128" y="1056" type="line"/>
      <point x="186" y="1056" type="line"/>
      <point x="135" y="752" type="line"/>
      <point x="604" y="752" type="line"/>
      <point x="604" y="750" type="line"/>
      <point x="53" y="256" type="line"/>
    </contour>
  </outline>
</glyph>
<glyph name="braceleft" format="2">
  <advance width="995"/>
  <unicode hex="007B"/>
  <outline>
    <contour>
      <point x="132.257" y="596" type="line"/>
      <point x="648.257" y="596"/>
      <point x="777.559" y="773"/>
      <point x="801.564" y="918" type="curve" smooth="yes"/>
      <point x="830.701" y="1094" type="line" smooth="yes"/>
      <point x="853.712" y="1233"/>
      <point x="901.837" y="1270"/>
      <point x="1057.837" y="1270" type="curve"/>
      <point x="1106.84" y="1566" type="line"/>
      <point x="806.84" y="1566"/>
      <point x="518.674" y="1565"/>
      <point x="449.309" y="1146" type="curve" smooth="yes"/>
      <point x="428.119" y="1018" type="line" smooth="yes"/>
      <point x="404.445" y="875"/>
      <point x="336.685" y="810"/>
      <point x="167.685" y="810" type="curve"/>
    </contour>
    <contour>
      <point x="798.919" y="-294" type="curve"/>
      <point x="847.921" y="2" type="line"/>
      <point x="691.921" y="2"/>
      <point x="656.047" y="39"/>
      <point x="679.058" y="178" type="curve" smooth="yes"/>
      <point x="708.194" y="354" type="line" smooth="yes"/>
      <point x="732.199" y="499"/>
      <point x="661.501" y="676"/>
      <point x="145.501" y="676" type="curve"/>
      <point x="110.074" y="462" type="line"/>
      <point x="279.074" y="462"/>
      <point x="325.313" y="397"/>
      <point x="301.64" y="254" type="curve" smooth="yes"/>
      <point x="280.449" y="126" type="line" smooth="yes"/>
      <point x="211.084" y="-293"/>
      <point x="498.919" y="-294"/>
    </contour>
    <contour>
      <point x="110.074" y="462" type="line"/>
      <point x="470.074" y="462" type="line"/>
      <point x="527.685" y="810" type="line"/>
      <point x="167.685" y="810" type="line"/>
    </contour>
  </outline>
</glyph>
<glyph name="bar" format="2">
  <advance width="798"/>
  <unicode hex="007C"/>
  <outline>
    <contour>
      <point x="832.722" y="1970" type="line"/>
      <point x="440.722" y="1970" type="line"/>
      <point x="35.127" y="-480" type="line"/>
      <point x="427.127" y="-480" type="line"/>
    </contour>
  </outline>
</glyph>
<glyph name="braceright" format="2">
  <advance width="995"/>
  <unicode hex="007D"/>
  <outline>
    <contour>
      <point x="885" y="596" type="curve"/>
      <point x="921" y="810" type="line"/>
      <point x="752" y="810"/>
      <point x="705" y="875"/>
      <point x="729" y="1018" type="curve" smooth="yes"/>
      <point x="750" y="1146" type="line" smooth="yes"/>
      <point x="820" y="1565"/>
      <point x="532" y="1566"/>
      <point x="232" y="1566" type="curve"/>
      <point x="183" y="1270" type="line"/>
      <point x="339" y="1270"/>
      <point x="375" y="1233"/>
      <point x="352" y="1094" type="curve" smooth="yes"/>
      <point x="323" y="918" type="line" smooth="yes"/>
      <point x="299" y="773"/>
      <point x="369" y="596"/>
    </contour>
    <contour>
      <point x="-76" y="-294" type="line"/>
      <point x="224" y="-294"/>
      <point x="512" y="-293"/>
      <point x="581" y="126" type="curve" smooth="yes"/>
      <point x="603" y="254" type="line" smooth="yes"/>
      <point x="626" y="397"/>
      <point x="694" y="462"/>
      <point x="863" y="462" type="curve"/>
      <point x="899" y="676" type="line"/>
      <point x="383" y="676"/>
      <point x="253" y="499"/>
      <point x="229" y="354" type="curve" smooth="yes"/>
      <point x="200" y="178" type="line" smooth="yes"/>
      <point x="177" y="39"/>
      <point x="129" y="2"/>
      <point x="-27" y="2" type="curve"/>
    </contour>
    <contour>
      <point x="863" y="462" type="line"/>
      <point x="921" y="810" type="line"/>
      <point x="561" y="810" type="line"/>
      <point x="503" y="462" type="line"/>
    </contour>
  </outline>
</glyph>
<glyph name="asciitilde" format="2">
  <advance width="1388"/>
  <unicode hex="007E"/>
  <outline>
    <contour>
      <point x="106.837" y="376" type="curve"/>
      <point x="398.837" y="376" type="line"/>
      <point x="414.04" y="492"/>
      <point x="468.655" y="538"/>
      <point x="529.655" y="538" type="curve" smooth="yes"/>
      <point x="578.655" y="538"/>
      <point x="595.013" y="516"/>
      <point x="640.067" y="468" type="curve" smooth="yes"/>
      <point x="724.664" y="381"/>
      <point x="798.87" y="346"/>
      <point x="893.87" y="346" type="curve" smooth="yes"/>
      <point x="1114.87" y="346"/>
      <point x="1269.49" y="537"/>
      <point x="1306.658" y="834" type="curve"/>
      <point x="1014.658" y="834" type="line"/>
      <point x="999.454" y="718"/>
      <point x="942.839" y="672"/>
      <point x="883.839" y="672" type="curve" smooth="yes"/>
      <point x="832.839" y="672"/>
      <point x="808.806" y="702"/>
      <point x="769.427" y="742" type="curve" smooth="yes"/>
      <point x="679.155" y="837"/>
      <point x="606.624" y="864"/>
      <point x="519.624" y="864" type="curve" smooth="yes"/>
      <point x="289.624" y="864"/>
      <point x="144.005" y="673"/>
    </contour>
  </outline>
</glyph>
<glyph name="exclamdown" format="2">
  <advance width="552"/>
  <unicode hex="00A1"/>
  <outline>
    <contour>
      <point x="-93" y="-418" type="line"/>
      <point x="331" y="-418" type="line"/>
      <point x="460" y="589" type="line"/>
      <point x="112" y="589" type="line"/>
    </contour>
    <contour>
      <point x="298" y="664" type="curve" smooth="yes"/>
      <point x="413" y="664"/>
      <point x="521" y="757"/>
      <point x="540" y="872" type="curve" smooth="yes"/>
      <point x="559" y="987"/>
      <point x="482" y="1080"/>
      <point x="367" y="1080" type="curve" smooth="yes"/>
      <point x="252" y="1080"/>
      <point x="143" y="987"/>
      <point x="124" y="872" type="curve" smooth="yes"/>
      <point x="105" y="757"/>
      <point x="183" y="664"/>
    </contour>
  </outline>
</glyph>
<glyph name="cent" format="2">
  <advance width="1193"/>
  <unicode hex="00A2"/>
  <anchor x="559" y="217" name="bottom"/>
  <anchor x="559" y="217" name="cedilla"/>
  <anchor x="654" y="745" name="center"/>
  <anchor x="733" y="1273" name="top"/>
  <anchor x="1201" y="835" name="topr"/>
  <outline>
    <contour>
      <point x="477" y="0" type="line"/>
      <point x="581" y="0" type="line"/>
      <point x="828" y="1490" type="line"/>
      <point x="724" y="1490" type="line"/>
    </contour>
    <component base="c" xOffset="36" yOffset="217"/>
  </outline>
</glyph>
<glyph name="sterling" format="2">
  <advance width="1314"/>
  <unicode hex="00A3"/>
  <outline>
    <contour>
      <point x="8" y="266" type="line"/>
      <point x="255" y="266"/>
      <point x="554" y="285"/>
      <point x="585" y="524" type="curve" smooth="yes"/>
      <point x="645" y="988" type="line" smooth="yes"/>
      <point x="663" y="1129"/>
      <point x="736" y="1186"/>
      <point x="831" y="1186" type="curve" smooth="yes"/>
      <point x="925" y="1186"/>
      <point x="973" y="1131"/>
      <point x="948" y="976" type="curve"/>
      <point x="1328" y="976" type="line"/>
      <point x="1383" y="1308"/>
      <point x="1175" y="1514"/>
      <point x="862" y="1514" type="curve" smooth="yes"/>
      <point x="554" y="1514"/>
      <point x="269" y="1325"/>
      <point x="235" y="964" type="curve" smooth="yes"/>
      <point x="186" y="448" type="line" smooth="yes"/>
      <point x="178" y="368"/>
      <point x="122" y="328"/>
      <point x="18" y="328" type="curve"/>
    </contour>
    <contour>
      <point x="-37" y="0" type="line"/>
      <point x="794" y="0" type="line" smooth="yes"/>
      <point x="1038" y="0"/>
      <point x="1192" y="124"/>
      <point x="1231" y="346" type="curve" smooth="yes"/>
      <point x="1242" y="409" type="line"/>
      <point x="869" y="409" type="line"/>
      <point x="860" y="358" type="line" smooth="yes"/>
      <point x="857" y="339"/>
      <point x="844" y="328"/>
      <point x="825" y="328" type="curve" smooth="yes"/>
      <point x="17" y="328" type="line"/>
    </contour>
    <contour>
      <point x="57" y="568" type="line"/>
      <point x="835" y="568" type="line"/>
      <point x="885" y="872" type="line"/>
      <point x="107" y="872" type="line"/>
    </contour>
  </outline>
</glyph>
<glyph name="currency" format="2">
  <advance width="1592"/>
  <unicode hex="00A4"/>
  <outline>
    <contour>
      <point x="707.279" y="-20" type="curve" smooth="yes"/>
      <point x="1046.279" y="-20"/>
      <point x="1374.474" y="253"/>
      <point x="1435.244" y="608" type="curve" smooth="yes"/>
      <point x="1492.014" y="963"/>
      <point x="1253.712" y="1233"/>
      <point x="914.878" y="1234" type="curve" smooth="yes"/>
      <point x="570.712" y="1233"/>
      <point x="244.014" y="963"/>
      <point x="187.244" y="608" type="curve"/>
      <point x="126.474" y="253"/>
      <point x="363.279" y="-20"/>
    </contour>
    <contour>
      <point x="742.044" y="190" type="curve" smooth="yes"/>
      <point x="502.879" y="189"/>
      <point x="348.678" y="369"/>
      <point x="389.244" y="608" type="curve"/>
      <point x="428.141" y="849"/>
      <point x="641.609" y="1027"/>
      <point x="880.443" y="1026" type="curve" smooth="yes"/>
      <point x="1112.609" y="1027"/>
      <point x="1272.141" y="849"/>
      <point x="1233.244" y="608" type="curve" smooth="yes"/>
      <point x="1192.678" y="369"/>
      <point x="973.879" y="189"/>
    </contour>
    <contour>
      <point x="1318.909" y="908" type="line"/>
      <point x="1565.012" y="1114" type="line"/>
      <point x="1433.168" y="1272" type="line"/>
      <point x="1190.734" y="1064" type="line"/>
    </contour>
    <contour>
      <point x="1217.293" y="-32" type="line"/>
      <point x="1401.449" y="126" type="line"/>
      <point x="1222.89" y="328" type="line"/>
      <point x="1043.396" y="174" type="line"/>
    </contour>
    <contour>
      <point x="193.293" y="-32" type="line"/>
      <point x="439.396" y="174" type="line"/>
      <point x="308.89" y="328" type="line"/>
      <point x="65.449" y="126" type="line"/>
    </contour>
    <contour>
      <point x="404.909" y="908" type="line"/>
      <point x="586.734" y="1064" type="line"/>
      <point x="409.168" y="1272" type="line"/>
      <point x="229.012" y="1114" type="line"/>
    </contour>
  </outline>
</glyph>
<glyph name="yen" format="2">
  <advance width="1172"/>
  <unicode hex="00A5"/>
  <outline>
    <contour>
      <point x="577.258" y="1490" type="line"/>
      <point x="173.258" y="1490" type="line"/>
      <point x="419.629" y="562" type="line"/>
      <point x="719.705" y="792" type="line"/>
    </contour>
    <contour>
      <point x="547.36" y="802" type="line"/>
      <point x="759.629" y="562" type="line"/>
      <point x="1319.258" y="1490" type="line"/>
      <point x="913.258" y="1490" type="line"/>
    </contour>
    <contour>
      <point x="820.712" y="786" type="line"/>
      <point x="422.712" y="786" type="line"/>
      <point x="292.59" y="0" type="line"/>
      <point x="690.59" y="0" type="line"/>
    </contour>
    <contour>
      <point x="1094.712" y="786" type="line"/>
      <point x="110.712" y="786" type="line"/>
      <point x="75.615" y="574" type="line"/>
      <point x="1059.615" y="574" type="line"/>
    </contour>
    <contour>
      <point x="1047.034" y="498" type="line"/>
      <point x="63.034" y="498" type="line"/>
      <point x="27.937" y="286" type="line"/>
      <point x="1011.937" y="286" type="line"/>
    </contour>
  </outline>
</glyph>
<glyph name="brokenbar" format="2">
  <advance width="782"/>
  <unicode hex="00A6"/>
  <outline>
    <contour>
      <point x="196.783" y="424" type="line"/>
      <point x="80.236" y="-280" type="line"/>
      <point x="434.236" y="-280" type="line"/>
      <point x="550.783" y="424" type="line"/>
    </contour>
    <contour>
      <point x="727.258" y="1490" type="line"/>
      <point x="373.258" y="1490" type="line"/>
      <point x="257.043" y="788" type="line"/>
      <point x="611.043" y="788" type="line"/>
    </contour>
  </outline>
</glyph>
<glyph name="section" format="2">
  <advance width="1104"/>
  <unicode hex="00A7"/>
  <outline>
    <contour>
      <point x="416" y="-300" type="curve" smooth="yes"/>
      <point x="697" y="-300"/>
      <point x="915" y="-145"/>
      <point x="956" y="94" type="curve" smooth="yes"/>
      <point x="977" y="217"/>
      <point x="946" y="335"/>
      <point x="842" y="398" type="curve"/>
      <point x="843" y="399" type="line"/>
      <point x="937" y="414"/>
      <point x="1059" y="501"/>
      <point x="1084" y="648" type="curve" smooth="yes"/>
      <point x="1108" y="788"/>
      <point x="1029" y="892"/>
      <point x="888" y="926" type="curve" smooth="yes"/>
      <point x="652" y="983" type="line" smooth="yes"/>
      <point x="549" y="1008"/>
      <point x="507" y="1054"/>
      <point x="517" y="1113" type="curve" smooth="yes"/>
      <point x="526" y="1168"/>
      <point x="574" y="1198"/>
      <point x="647" y="1198" type="curve" smooth="yes"/>
      <point x="724" y="1198"/>
      <point x="761" y="1164"/>
      <point x="752" y="1108" type="curve"/>
      <point x="1096" y="1108" type="line"/>
      <point x="1138" y="1360"/>
      <point x="987" y="1514"/>
      <point x="697" y="1514" type="curve" smooth="yes"/>
      <point x="411" y="1514"/>
      <point x="212" y="1363"/>
      <point x="171" y="1114" type="curve" smooth="yes"/>
      <point x="145" y="956"/>
      <point x="201" y="864"/>
      <point x="279" y="802" type="curve"/>
      <point x="279" y="801" type="line"/>
      <point x="194" y="791"/>
      <point x="73" y="721"/>
      <point x="47" y="569" type="curve" smooth="yes"/>
      <point x="23" y="425"/>
      <point x="101" y="314"/>
      <point x="251" y="275" type="curve" smooth="yes"/>
      <point x="488" y="214" type="line" smooth="yes"/>
      <point x="583" y="190"/>
      <point x="617" y="148"/>
      <point x="609" y="99" type="curve" smooth="yes"/>
      <point x="600" y="46"/>
      <point x="547" y="16"/>
      <point x="467" y="16" type="curve" smooth="yes"/>
      <point x="378" y="16"/>
      <point x="329" y="53"/>
      <point x="340" y="116" type="curve"/>
      <point x="-2" y="116" type="line"/>
      <point x="-44" y="-134"/>
      <point x="126" y="-300"/>
    </contour>
    <contour>
      <point x="645" y="470" type="curve" smooth="yes"/>
      <point x="449" y="514" type="line" smooth="yes"/>
      <point x="370" y="532"/>
      <point x="328" y="593"/>
      <point x="356" y="659" type="curve" smooth="yes"/>
      <point x="382" y="721"/>
      <point x="446" y="734"/>
      <point x="483" y="725" type="curve" smooth="yes"/>
      <point x="673" y="677" type="line" smooth="yes"/>
      <point x="772" y="652"/>
      <point x="784" y="588"/>
      <point x="764" y="539" type="curve" smooth="yes"/>
      <point x="740" y="481"/>
      <point x="680" y="462"/>
    </contour>
  </outline>
</glyph>
<glyph name="copyright" format="2">
  <advance width="1842"/>
  <unicode hex="00A9"/>
  <outline>
    <contour>
      <point x="565" y="744" type="curve" smooth="yes"/>
      <point x="528" y="527"/>
      <point x="685" y="350"/>
      <point x="904" y="350" type="curve" smooth="yes"/>
      <point x="1097" y="350"/>
      <point x="1274" y="490"/>
      <point x="1324" y="674" type="curve"/>
      <point x="1082" y="674" type="line"/>
      <point x="1061" y="620"/>
      <point x="998" y="582"/>
      <point x="934" y="582" type="curve" smooth="yes"/>
      <point x="844" y="582"/>
      <point x="783" y="656"/>
      <point x="797" y="746" type="curve" smooth="yes"/>
      <point x="812" y="836"/>
      <point x="898" y="908"/>
      <point x="988" y="908" type="curve" smooth="yes"/>
      <point x="1052" y="908"/>
      <point x="1102" y="870"/>
      <point x="1105" y="814" type="curve"/>
      <point x="1347" y="814" type="line"/>
      <point x="1358" y="999"/>
      <point x="1212" y="1140"/>
      <point x="1019" y="1140" type="curve" smooth="yes"/>
      <point x="800" y="1140"/>
      <point x="600" y="963"/>
    </contour>
    <component base="circlewhite"/>
  </outline>
</glyph>
<glyph name="ordfeminine" format="2">
  <advance width="947"/>
  <unicode hex="00AA"/>
  <anchor x="487" y="647" name="bottom"/>
  <anchor x="895" y="647" name="ogonek"/>
  <anchor x="629" y="1492" name="top"/>
  <outline>
    <contour>
      <point x="347" y="632" type="curve" smooth="yes"/>
      <point x="459" y="632"/>
      <point x="543" y="668"/>
      <point x="613" y="766" type="curve"/>
      <point x="616" y="766" type="line"/>
      <point x="596" y="647" type="line"/>
      <point x="895" y="647" type="line"/>
      <point x="989" y="1213" type="line" smooth="yes"/>
      <point x="1020" y="1403"/>
      <point x="900" y="1511"/>
      <point x="644" y="1511" type="curve" smooth="yes"/>
      <point x="389" y="1511"/>
      <point x="233" y="1403"/>
      <point x="189" y="1214" type="curve"/>
      <point x="470" y="1214" type="line"/>
      <point x="485" y="1267"/>
      <point x="531" y="1296"/>
      <point x="597" y="1296" type="curve" smooth="yes"/>
      <point x="660" y="1296"/>
      <point x="695" y="1269"/>
      <point x="688" y="1228" type="curve" smooth="yes"/>
      <point x="688" y="1224" type="line" smooth="yes"/>
      <point x="680" y="1176"/>
      <point x="620" y="1161"/>
      <point x="466" y="1150" type="curve" smooth="yes"/>
      <point x="284" y="1137"/>
      <point x="131" y="1069"/>
      <point x="100" y="881" type="curve" smooth="yes"/>
      <point x="72" y="713"/>
      <point x="179" y="632"/>
    </contour>
    <contour>
      <point x="477" y="825" type="curve" smooth="yes"/>
      <point x="419" y="825"/>
      <point x="382" y="852"/>
      <point x="390" y="898" type="curve" smooth="yes"/>
      <point x="397" y="944"/>
      <point x="443" y="974"/>
      <point x="515" y="986" type="curve" smooth="yes"/>
      <point x="581" y="997"/>
      <point x="624" y="1006"/>
      <point x="657" y="1018" type="curve"/>
      <point x="645" y="948" type="line" smooth="yes"/>
      <point x="632" y="870"/>
      <point x="553" y="825"/>
    </contour>
  </outline>
</glyph>
<glyph name="logicalnot" format="2">
  <advance width="1388"/>
  <unicode hex="00AC"/>
  <outline>
    <contour>
      <point x="810" y="315" type="line"/>
      <point x="1136" y="315" type="line"/>
      <point x="1219" y="814" type="line"/>
      <point x="255" y="814" type="line"/>
      <point x="203" y="504" type="line"/>
      <point x="841" y="504" type="line"/>
    </contour>
  </outline>
</glyph>
<glyph name="registered" format="2">
  <advance width="1318"/>
  <unicode hex="00AE"/>
  <outline>
    <contour>
      <point x="627" y="346" type="curve" smooth="yes"/>
      <point x="950" y="346"/>
      <point x="1252" y="607"/>
      <point x="1306" y="928" type="curve" smooth="yes"/>
      <point x="1359" y="1249"/>
      <point x="1142" y="1510"/>
      <point x="820" y="1510" type="curve" smooth="yes"/>
      <point x="499" y="1510"/>
      <point x="197" y="1249"/>
      <point x="144" y="928" type="curve" smooth="yes"/>
      <point x="90" y="607"/>
      <point x="306" y="346"/>
    </contour>
    <contour>
      <point x="654" y="510" type="curve" smooth="yes"/>
      <point x="424" y="510"/>
      <point x="267" y="697"/>
      <point x="306" y="928" type="curve" smooth="yes"/>
      <point x="344" y="1159"/>
      <point x="563" y="1346"/>
      <point x="793" y="1346" type="curve" smooth="yes"/>
      <point x="1025" y="1346"/>
      <point x="1182" y="1159"/>
      <point x="1144" y="928" type="curve" smooth="yes"/>
      <point x="1105" y="696"/>
      <point x="887" y="510"/>
    </contour>
    <contour>
      <point x="765" y="662" type="line"/>
      <point x="943" y="662" type="line"/>
      <point x="866" y="906" type="line"/>
      <point x="700" y="906" type="line"/>
    </contour>
    <contour>
      <point x="454" y="662" type="line"/>
      <point x="625" y="662" type="line"/>
      <point x="690" y="1060" type="line"/>
      <point x="751" y="1060" type="line" smooth="yes"/>
      <point x="794" y="1060"/>
      <point x="819" y="1038"/>
      <point x="813" y="1005" type="curve" smooth="yes"/>
      <point x="808" y="973"/>
      <point x="776" y="951"/>
      <point x="733" y="951" type="curve" smooth="yes"/>
      <point x="607" y="951" type="line"/>
      <point x="586" y="819" type="line"/>
      <point x="716" y="819" type="line" smooth="yes"/>
      <point x="861" y="819"/>
      <point x="962" y="891"/>
      <point x="980" y="1005" type="curve" smooth="yes"/>
      <point x="1000" y="1123"/>
      <point x="926" y="1198"/>
      <point x="787" y="1198" type="curve" smooth="yes"/>
      <point x="542" y="1198" type="line"/>
    </contour>
  </outline>
</glyph>
<glyph name="degree" format="2">
  <advance width="916"/>
  <unicode hex="00B0"/>
  <outline>
    <contour>
      <point x="496" y="754" type="curve" smooth="yes"/>
      <point x="702" y="753"/>
      <point x="896" y="920"/>
      <point x="929" y="1126" type="curve" smooth="yes"/>
      <point x="965" y="1332"/>
      <point x="825" y="1498"/>
      <point x="619" y="1498" type="curve" smooth="yes"/>
      <point x="413" y="1498"/>
      <point x="220" y="1332"/>
      <point x="185" y="1126" type="curve" smooth="yes"/>
      <point x="151" y="920"/>
      <point x="290" y="753"/>
    </contour>
    <contour>
      <point x="537" y="1000" type="curve" smooth="yes"/>
      <point x="468" y="1001"/>
      <point x="421" y="1057"/>
      <point x="433" y="1126" type="curve" smooth="yes"/>
      <point x="444" y="1195"/>
      <point x="509" y="1251"/>
      <point x="578" y="1250" type="curve" smooth="yes"/>
      <point x="647" y="1251"/>
      <point x="694" y="1195"/>
      <point x="683" y="1126" type="curve" smooth="yes"/>
      <point x="671" y="1057"/>
      <point x="606" y="1001"/>
    </contour>
  </outline>
</glyph>
<glyph name="plusminus" format="2">
  <advance width="1388"/>
  <unicode hex="00B1"/>
  <outline>
    <contour>
      <point x="72.205" y="46" type="line"/>
      <point x="1154.205" y="46" type="line"/>
      <point x="1204.532" y="350" type="line"/>
      <point x="122.532" y="350" type="line"/>
    </contour>
    <contour>
      <point x="174.515" y="664" type="line"/>
      <point x="1256.515" y="664" type="line"/>
      <point x="1304.524" y="954" type="line"/>
      <point x="222.524" y="954" type="line"/>
    </contour>
    <contour>
      <point x="515.763" y="442" type="line"/>
      <point x="841.763" y="442" type="line"/>
      <point x="963.276" y="1176" type="line"/>
      <point x="637.276" y="1176" type="line"/>
    </contour>
  </outline>
</glyph>
<glyph name="two.sups" format="2">
  <advance width="831"/>
  <unicode hex="00B2"/>
  <anchor x="694.04" y="1228" name="cross"/>
  <anchor x="717.28" y="1696" name="top"/>
  <outline>
    <contour>
      <point x="217.72" y="854" type="line"/>
      <point x="922.72" y="854" type="line"/>
      <point x="961.06" y="1067" type="line"/>
      <point x="632.06" y="1067" type="line"/>
      <point x="632.24" y="1068" type="line"/>
      <point x="770.64" y="1148" type="line" smooth="yes"/>
      <point x="902.3199999999999" y="1224"/>
      <point x="1001.18" y="1301"/>
      <point x="1025.48" y="1436" type="curve" smooth="yes"/>
      <point x="1056.62" y="1609"/>
      <point x="926.8" y="1710"/>
      <point x="722.8" y="1710" type="curve" smooth="yes"/>
      <point x="498.8" y="1710"/>
      <point x="338.47999999999996" y="1586"/>
      <point x="301.22" y="1379" type="curve"/>
      <point x="555.22" y="1379" type="line"/>
      <point x="569.44" y="1458"/>
      <point x="620.8199999999999" y="1499"/>
      <point x="683.8199999999999" y="1499" type="curve" smooth="yes"/>
      <point x="740.8199999999999" y="1499"/>
      <point x="774.06" y="1467"/>
      <point x="765.6" y="1420" type="curve" smooth="yes"/>
      <point x="753.72" y="1354"/>
      <point x="672.88" y="1316"/>
      <point x="635.56" y="1292" type="curve" smooth="yes"/>
      <point x="252.1" y="1045" type="line"/>
    </contour>
  </outline>
</glyph>
<glyph name="three.sups" format="2">
  <advance width="846"/>
  <unicode hex="00B3"/>
  <anchor x="736.28" y="1696" name="top"/>
  <outline>
    <contour>
      <point x="579.2" y="840" type="curve" smooth="yes"/>
      <point x="805.2" y="840"/>
      <point x="976.64" y="948"/>
      <point x="1002.74" y="1093" type="curve" smooth="yes"/>
      <point x="1020.92" y="1194"/>
      <point x="965.3" y="1285"/>
      <point x="831.28" y="1296" type="curve"/>
      <point x="831.64" y="1298" type="line"/>
      <point x="932.9" y="1305"/>
      <point x="1024.24" y="1368"/>
      <point x="1043.32" y="1474" type="curve" smooth="yes"/>
      <point x="1068.34" y="1613"/>
      <point x="943.8" y="1710"/>
      <point x="738.8" y="1710" type="curve" smooth="yes"/>
      <point x="511.8" y="1710"/>
      <point x="357.65999999999997" y="1587"/>
      <point x="329.4" y="1430" type="curve"/>
      <point x="588.4" y="1430" type="line"/>
      <point x="597.04" y="1478"/>
      <point x="647.3399999999999" y="1513"/>
      <point x="704.3399999999999" y="1513" type="curve" smooth="yes"/>
      <point x="757.3399999999999" y="1513"/>
      <point x="791.5799999999999" y="1481"/>
      <point x="784.02" y="1439" type="curve" smooth="yes"/>
      <point x="776.28" y="1396"/>
      <point x="731.78" y="1371"/>
      <point x="658.78" y="1371" type="curve" smooth="yes"/>
      <point x="565.78" y="1371" type="line"/>
      <point x="532.84" y="1188" type="line"/>
      <point x="625.84" y="1188" type="line" smooth="yes"/>
      <point x="697.84" y="1188"/>
      <point x="739.8" y="1160"/>
      <point x="731.7" y="1115" type="curve" smooth="yes"/>
      <point x="724.14" y="1073"/>
      <point x="674.92" y="1044"/>
      <point x="614.92" y="1044" type="curve" smooth="yes"/>
      <point x="544.92" y="1044"/>
      <point x="510.29999999999995" y="1085"/>
      <point x="522.9" y="1155" type="curve"/>
      <point x="263.9" y="1155" type="line"/>
      <point x="235.28" y="996"/>
      <point x="311.2" y="840"/>
    </contour>
  </outline>
</glyph>
<glyph name="micro" format="2">
  <advance width="1301"/>
  <unicode hex="00B5"/>
  <outline>
    <contour>
      <point x="-71" y="-418" type="line"/>
      <point x="329" y="-418" type="line"/>
      <point x="467" y="417" type="line"/>
      <point x="411" y="417" type="line"/>
      <point x="362" y="119"/>
      <point x="452" y="32"/>
      <point x="566" y="32" type="curve" smooth="yes"/>
      <point x="673" y="32"/>
      <point x="788" y="119"/>
      <point x="837" y="417" type="curve"/>
      <point x="781" y="417" type="line"/>
      <point x="764" y="316" type="line" smooth="yes"/>
      <point x="731" y="113"/>
      <point x="809" y="0"/>
      <point x="1010" y="0" type="curve" smooth="yes"/>
      <point x="1214" y="0" type="line"/>
      <point x="1264" y="304" type="line"/>
      <point x="1206" y="304" type="line" smooth="yes"/>
      <point x="1164" y="304"/>
      <point x="1146" y="328"/>
      <point x="1153" y="370" type="curve" smooth="yes"/>
      <point x="1267" y="1056" type="line"/>
      <point x="867" y="1056" type="line"/>
      <point x="770" y="472" type="line" smooth="yes"/>
      <point x="752" y="364"/>
      <point x="691" y="298"/>
      <point x="594" y="298" type="curve" smooth="yes"/>
      <point x="497" y="298"/>
      <point x="458" y="364"/>
      <point x="476" y="472" type="curve" smooth="yes"/>
      <point x="573" y="1056" type="line"/>
      <point x="173" y="1056" type="line"/>
    </contour>
  </outline>
</glyph>
<glyph name="paragraph" format="2">
  <advance width="1185"/>
  <unicode hex="00B6"/>
  <outline>
    <contour>
      <point x="1183" y="1198" type="line"/>
      <point x="1232" y="1490" type="line"/>
      <point x="706" y="1490" type="line" smooth="yes"/>
      <point x="371" y="1490"/>
      <point x="157" y="1289"/>
      <point x="114" y="1022" type="curve" smooth="yes"/>
      <point x="68" y="751"/>
      <point x="216" y="552"/>
      <point x="550" y="552" type="curve" smooth="yes"/>
      <point x="638" y="552" type="line"/>
      <point x="745" y="1198" type="line"/>
    </contour>
    <contour>
      <point x="727" y="0" type="line"/>
      <point x="1017" y="0" type="line"/>
      <point x="1264" y="1490" type="line"/>
      <point x="974" y="1490" type="line"/>
    </contour>
  </outline>
</glyph>
<glyph name="one.sups" format="2">
  <advance width="562"/>
  <unicode hex="00B9"/>
  <outline>
    <contour>
      <point x="806.28" y="1696" type="line"/>
      <point x="562.28" y="1696" type="line"/>
      <point x="318.78" y="1571" type="line"/>
      <point x="278.1" y="1345" type="line"/>
      <point x="494.9" y="1455" type="line"/>
      <point x="495.9" y="1455" type="line"/>
      <point x="387.72" y="854" type="line"/>
      <point x="654.72" y="854" type="line"/>
    </contour>
  </outline>
</glyph>
<glyph name="ordmasculine" format="2">
  <advance width="987"/>
  <unicode hex="00BA"/>
  <anchor x="514" y="647" name="bottom"/>
  <anchor x="584" y="1069" name="center"/>
  <anchor x="1039" y="1069" name="ogonek"/>
  <anchor x="654" y="1492" name="top"/>
  <anchor x="657" y="1511" name="tophorn"/>
  <outline>
    <contour>
      <point x="511" y="628" type="curve" smooth="yes"/>
      <point x="782" y="628"/>
      <point x="994" y="800"/>
      <point x="1039" y="1069" type="curve" smooth="yes"/>
      <point x="1084" y="1338"/>
      <point x="928" y="1511"/>
      <point x="657" y="1511" type="curve" smooth="yes"/>
      <point x="385" y="1511"/>
      <point x="173" y="1338"/>
      <point x="128" y="1069" type="curve" smooth="yes"/>
      <point x="83" y="799"/>
      <point x="240" y="628"/>
    </contour>
    <contour>
      <point x="551" y="868" type="curve" smooth="yes"/>
      <point x="468" y="868"/>
      <point x="415" y="938"/>
      <point x="437" y="1069" type="curve" smooth="yes"/>
      <point x="459" y="1201"/>
      <point x="534" y="1271"/>
      <point x="617" y="1271" type="curve" smooth="yes"/>
      <point x="699" y="1271"/>
      <point x="752" y="1201"/>
      <point x="730" y="1069" type="curve" smooth="yes"/>
      <point x="708" y="938"/>
      <point x="633" y="868"/>
    </contour>
  </outline>
</glyph>
<glyph name="AE" format="2">
  <advance width="2101"/>
  <unicode hex="00C6"/>
  <anchor x="1474" y="1490" name="top"/>
  <outline>
    <contour>
      <point x="-87" y="0" type="line"/>
      <point x="341" y="0" type="line"/>
      <point x="955" y="1146" type="line"/>
      <point x="1074" y="1146" type="line"/>
      <point x="884" y="0" type="line"/>
      <point x="1954" y="0" type="line"/>
      <point x="2011" y="344" type="line"/>
      <point x="1339" y="344" type="line"/>
      <point x="1380" y="590" type="line"/>
      <point x="1956" y="590" type="line"/>
      <point x="2008" y="904" type="line"/>
      <point x="1432" y="904" type="line"/>
      <point x="1472" y="1146" type="line"/>
      <point x="2148" y="1146" type="line"/>
      <point x="2205" y="1490" type="line"/>
      <point x="740" y="1490" type="line"/>
    </contour>
    <contour>
      <point x="319" y="302" type="line"/>
      <point x="1047" y="302" type="line"/>
      <point x="1097" y="604" type="line"/>
      <point x="369" y="604" type="line"/>
    </contour>
  </outline>
</glyph>
<glyph name="multiply" format="2">
  <advance width="1388"/>
  <unicode hex="00D7"/>
  <outline>
    <contour>
      <point x="941" y="32" type="line"/>
      <point x="1225" y="276" type="line"/>
      <point x="475" y="1178" type="line"/>
      <point x="188" y="930" type="line"/>
    </contour>
    <contour>
      <point x="285" y="32" type="line"/>
      <point x="1334" y="930" type="line"/>
      <point x="1131" y="1178" type="line"/>
      <point x="79" y="276" type="line"/>
    </contour>
  </outline>
</glyph>
<glyph name="Thorn" format="2">
  <advance width="1396"/>
  <unicode hex="00DE"/>
  <outline>
    <contour>
      <point x="241.258" y="1490" type="line"/>
      <point x="-5.41" y="0" type="line"/>
      <point x="400.59" y="0" type="line"/>
      <point x="647.258" y="1490" type="line"/>
    </contour>
    <contour>
      <point x="387.871" y="1240" type="line"/>
      <point x="338.206" y="940" type="line"/>
      <point x="726.206" y="940" type="line" smooth="yes"/>
      <point x="887.206" y="940"/>
      <point x="923.313" y="844"/>
      <point x="910.738" y="762" type="curve" smooth="yes"/>
      <point x="896.826" y="684"/>
      <point x="829.43" y="591"/>
      <point x="668.264" y="590" type="curve" smooth="yes"/>
      <point x="280.264" y="590" type="line"/>
      <point x="231.262" y="294" type="line"/>
      <point x="619.262" y="294" type="line" smooth="yes"/>
      <point x="1007.262" y="294"/>
      <point x="1251.047" y="486"/>
      <point x="1297.401" y="766" type="curve" smooth="yes"/>
      <point x="1343.423" y="1044"/>
      <point x="1163.705" y="1239"/>
      <point x="775.871" y="1240" type="curve" smooth="yes"/>
    </contour>
  </outline>
</glyph>
<glyph name="germandbls" format="2">
  <advance width="1389"/>
  <unicode hex="00DF"/>
  <outline>
    <contour>
      <point x="-7.41" y="0" type="line"/>
      <point x="394.59" y="0" type="line"/>
      <point x="562.126" y="1012" type="line" smooth="yes"/>
      <point x="579.839" y="1119"/>
      <point x="658.6" y="1184"/>
      <point x="770.6" y="1184" type="curve" smooth="yes"/>
      <point x="877.6" y="1184"/>
      <point x="928.667" y="1124"/>
      <point x="914.099" y="1036" type="curve" smooth="yes"/>
      <point x="900.855" y="956"/>
      <point x="838.253" y="898"/>
      <point x="761.253" y="898" type="curve" smooth="yes"/>
      <point x="693.253" y="898" type="line"/>
      <point x="644.913" y="606" type="line"/>
      <point x="750.913" y="606" type="line" smooth="yes"/>
      <point x="878.913" y="606"/>
      <point x="949.973" y="552"/>
      <point x="934.743" y="460" type="curve" smooth="yes"/>
      <point x="919.678" y="369"/>
      <point x="838.573" y="314"/>
      <point x="724.573" y="314" type="curve" smooth="yes"/>
      <point x="590.573" y="314" type="line"/>
      <point x="538.59" y="0" type="line"/>
      <point x="758.59" y="0" type="line" smooth="yes"/>
      <point x="1054.59" y="0"/>
      <point x="1288.443" y="132"/>
      <point x="1334.465" y="410" type="curve" smooth="yes"/>
      <point x="1369.231" y="620"/>
      <point x="1280.553" y="779"/>
      <point x="1085.043" y="788" type="curve"/>
      <point x="1088.023" y="806" type="line"/>
      <point x="1222.989" y="836"/>
      <point x="1314.027" y="951"/>
      <point x="1337.701" y="1094" type="curve" smooth="yes"/>
      <point x="1384.551" y="1377"/>
      <point x="1127.569" y="1510"/>
      <point x="810.569" y="1510" type="curve" smooth="yes"/>
      <point x="461.569" y="1510"/>
      <point x="216.247" y="1351"/>
      <point x="172.707" y="1088" type="curve" smooth="yes"/>
    </contour>
  </outline>
</glyph>
<glyph name="ae" format="2">
  <advance width="1869"/>
  <unicode hex="00E6"/>
  <anchor x="995" y="1056" name="top"/>
  <outline>
    <contour>
      <point x="379" y="-19" type="curve" smooth="yes"/>
      <point x="749" y="-19"/>
      <point x="914" y="122"/>
      <point x="956" y="374" type="curve"/>
      <point x="973" y="374" type="line"/>
      <point x="1032" y="724" type="line"/>
      <point x="1064" y="920"/>
      <point x="995" y="1080"/>
      <point x="671" y="1080" type="curve" smooth="yes"/>
      <point x="341" y="1080"/>
      <point x="150" y="905"/>
      <point x="103" y="706" type="curve"/>
      <point x="469" y="706" type="line"/>
      <point x="486" y="768"/>
      <point x="542" y="802"/>
      <point x="625" y="802" type="curve" smooth="yes"/>
      <point x="710" y="802"/>
      <point x="751" y="768"/>
      <point x="741" y="706" type="curve"/>
      <point x="686" y="374" type="line"/>
      <point x="670" y="280"/>
      <point x="572" y="230"/>
      <point x="486" y="230" type="curve" smooth="yes"/>
      <point x="418" y="230"/>
      <point x="375" y="262"/>
      <point x="384" y="316" type="curve" smooth="yes"/>
      <point x="393" y="370"/>
      <point x="450" y="409"/>
      <point x="534" y="411" type="curve" smooth="yes"/>
      <point x="604" y="413"/>
      <point x="673" y="416"/>
      <point x="743" y="416" type="curve"/>
      <point x="777" y="626" type="line"/>
      <point x="674" y="623"/>
      <point x="571" y="623"/>
      <point x="468" y="621" type="curve" smooth="yes"/>
      <point x="218" y="616"/>
      <point x="40" y="494"/>
      <point x="6" y="292" type="curve" smooth="yes"/>
      <point x="-26" y="101"/>
      <point x="118" y="-19"/>
    </contour>
    <contour>
      <point x="1219" y="-24" type="curve" smooth="yes"/>
      <point x="1528" y="-24"/>
      <point x="1723" y="128"/>
      <point x="1800" y="360" type="curve"/>
      <point x="1434" y="360" type="line"/>
      <point x="1415" y="297"/>
      <point x="1362" y="255"/>
      <point x="1253" y="255" type="curve" smooth="yes"/>
      <point x="1164" y="255"/>
      <point x="1091" y="284"/>
      <point x="1091" y="403" type="curve" smooth="yes"/>
      <point x="1091" y="453"/>
      <point x="1109" y="563"/>
      <point x="1118" y="612" type="curve" smooth="yes"/>
      <point x="1145" y="757"/>
      <point x="1208" y="798"/>
      <point x="1333" y="798" type="curve" smooth="yes"/>
      <point x="1423" y="798"/>
      <point x="1474" y="768"/>
      <point x="1474" y="724" type="curve" smooth="yes"/>
      <point x="1474" y="664"/>
      <point x="1390" y="631"/>
      <point x="860" y="631" type="curve"/>
      <point x="823" y="416" type="line"/>
      <point x="1438" y="416"/>
      <point x="1837" y="459"/>
      <point x="1837" y="761" type="curve" smooth="yes"/>
      <point x="1837" y="978"/>
      <point x="1629" y="1080"/>
      <point x="1375" y="1080" type="curve" smooth="yes"/>
      <point x="1029" y="1080"/>
      <point x="771" y="874"/>
      <point x="714" y="528" type="curve" smooth="yes"/>
      <point x="654" y="166"/>
      <point x="860" y="-24"/>
    </contour>
  </outline>
</glyph>
<glyph name="eth" format="2">
  <advance width="1222"/>
  <unicode hex="00F0"/>
  <outline>
    <contour>
      <point x="1068" y="1394" type="line"/>
      <point x="1095" y="1556" type="line"/>
      <point x="293" y="1170" type="line"/>
      <point x="266" y="1006" type="line"/>
    </contour>
    <contour>
      <point x="512" y="-24" type="curve" smooth="yes"/>
      <point x="871" y="-23"/>
      <point x="1127" y="225"/>
      <point x="1187" y="590" type="curve" smooth="yes"/>
      <point x="1277" y="1135"/>
      <point x="868" y="1496"/>
      <point x="359" y="1564" type="curve"/>
      <point x="326" y="1370" type="line"/>
      <point x="519" y="1311"/>
      <point x="776" y="1154"/>
      <point x="854" y="930" type="curve"/>
      <point x="838" y="930" type="line"/>
      <point x="784" y="989"/>
      <point x="699" y="1025"/>
      <point x="585" y="1026" type="curve" smooth="yes"/>
      <point x="301" y="1025"/>
      <point x="88" y="794"/>
      <point x="42" y="512" type="curve" smooth="yes"/>
      <point x="-12" y="189"/>
      <point x="179" y="-23"/>
    </contour>
    <contour>
      <point x="572" y="270" type="curve" smooth="yes"/>
      <point x="455" y="269"/>
      <point x="396" y="371"/>
      <point x="425" y="542" type="curve" smooth="yes"/>
      <point x="451" y="703"/>
      <point x="532" y="797"/>
      <point x="660" y="798" type="curve" smooth="yes"/>
      <point x="787" y="797"/>
      <point x="838" y="704"/>
      <point x="811" y="542" type="curve" smooth="yes"/>
      <point x="783" y="369"/>
      <point x="689" y="269"/>
    </contour>
  </outline>
</glyph>
<glyph name="divide" format="2">
  <advance width="1388"/>
  <unicode hex="00F7"/>
  <outline>
    <contour>
      <point x="1269.745" y="756" type="line"/>
      <point x="193.745" y="756" type="line"/>
      <point x="143.749" y="454" type="line"/>
      <point x="1219.749" y="454" type="line"/>
    </contour>
    <contour>
      <point x="602.617" y="-24" type="curve" smooth="yes"/>
      <point x="714.783" y="-23"/>
      <point x="820.847" y="68"/>
      <point x="841.051" y="184" type="curve" smooth="yes"/>
      <point x="858.427" y="295"/>
      <point x="782.658" y="387"/>
      <point x="670.492" y="386" type="curve" smooth="yes"/>
      <point x="555.658" y="387"/>
      <point x="448.427" y="295"/>
      <point x="431.051" y="184" type="curve" smooth="yes"/>
      <point x="410.847" y="68"/>
      <point x="487.783" y="-23"/>
    </contour>
    <contour>
      <point x="743.002" y="824" type="curve" smooth="yes"/>
      <point x="855.837" y="823"/>
      <point x="961.233" y="916"/>
      <point x="981.106" y="1030" type="curve" smooth="yes"/>
      <point x="998.813" y="1143"/>
      <point x="923.712" y="1233"/>
      <point x="810.878" y="1234" type="curve" smooth="yes"/>
      <point x="696.712" y="1233"/>
      <point x="588.813" y="1143"/>
      <point x="571.106" y="1030" type="curve" smooth="yes"/>
      <point x="551.233" y="916"/>
      <point x="628.837" y="823"/>
    </contour>
  </outline>
</glyph>
<glyph name="thorn" format="2">
  <advance width="1281"/>
  <unicode hex="00FE"/>
  <outline>
    <contour>
      <point x="688.617" y="-24" type="curve" smooth="yes"/>
      <point x="965.617" y="-24"/>
      <point x="1180.707" y="194"/>
      <point x="1236.331" y="530" type="curve" smooth="yes"/>
      <point x="1289.803" y="853"/>
      <point x="1140.383" y="1080"/>
      <point x="875.383" y="1080" type="curve" smooth="yes"/>
      <point x="738.383" y="1080"/>
      <point x="637.609" y="1027"/>
      <point x="558.557" y="924" type="curve"/>
      <point x="553.557" y="924" type="line"/>
      <point x="647.258" y="1490" type="line"/>
      <point x="245.258" y="1490" type="line"/>
      <point x="-70.609" y="-418" type="line"/>
      <point x="331.391" y="-418" type="line"/>
      <point x="426.416" y="156" type="line"/>
      <point x="430.416" y="156" type="line"/>
      <point x="459.212" y="40"/>
      <point x="548.617" y="-24"/>
    </contour>
    <contour>
      <point x="621.599" y="290" type="curve" smooth="yes"/>
      <point x="512.599" y="290"/>
      <point x="450.161" y="384"/>
      <point x="474.331" y="530" type="curve" smooth="yes"/>
      <point x="498.336" y="675"/>
      <point x="591.732" y="768"/>
      <point x="700.732" y="768" type="curve" smooth="yes"/>
      <point x="809.732" y="768"/>
      <point x="856.336" y="675"/>
      <point x="832.331" y="530" type="curve" smooth="yes"/>
      <point x="808.161" y="384"/>
      <point x="730.599" y="290"/>
    </contour>
  </outline>
</glyph>
<glyph name="Hbar" format="2">
  <advance width="1674"/>
  <unicode hex="0126"/>
  <anchor x="741" y="0" name="bottom"/>
  <anchor x="285" y="0" name="cedilla"/>
  <anchor x="1405" y="0" name="cyrtic"/>
  <anchor x="989" y="0" name="lfthook"/>
  <anchor x="1405" y="0" name="right"/>
  <anchor x="324" y="1490" name="tonos"/>
  <anchor x="988" y="1490" name="top"/>
  <outline>
    <contour>
      <point x="1756.506" y="1268" type="line"/>
      <point x="162.506" y="1268" type="line"/>
      <point x="130.721" y="1076" type="line"/>
      <point x="1724.721" y="1076" type="line"/>
    </contour>
    <component base="H" xOffset="84"/>
  </outline>
</glyph>
<glyph name="kgreenlandic" format="2">
  <advance width="1263"/>
  <unicode hex="0138"/>
  <outline>
    <contour>
      <point x="576" y="1056" type="line"/>
      <point x="174" y="1056" type="line"/>
      <point x="-1" y="0" type="line"/>
      <point x="401" y="0" type="line"/>
    </contour>
    <contour>
      <point x="1370" y="1056" type="line"/>
      <point x="910" y="1056" type="line"/>
      <point x="606" y="672" type="line"/>
      <point x="428" y="672" type="line"/>
      <point x="418" y="368" type="line"/>
      <point x="782" y="368" type="line"/>
    </contour>
    <contour>
      <point x="713" y="0" type="line"/>
      <point x="1195" y="0" type="line"/>
      <point x="929" y="556" type="line"/>
      <point x="562" y="392" type="line"/>
    </contour>
  </outline>
</glyph>
<glyph name="OE" format="2">
  <advance width="2169"/>
  <unicode hex="0152"/>
  <anchor x="1450" y="0" name="bottom"/>
  <anchor x="1448" y="0" name="cedilla"/>
  <anchor x="2027" y="0" name="ogonek"/>
  <anchor x="1120" y="1490" name="tonos"/>
  <anchor x="1697" y="1490" name="top"/>
  <outline>
    <contour>
      <point x="706.59" y="0" type="curve"/>
      <point x="1114.59" y="0" type="line"/>
      <point x="1171.539" y="344" type="line"/>
      <point x="783.539" y="344" type="line" smooth="yes"/>
      <point x="540.539" y="344"/>
      <point x="450.895" y="473"/>
      <point x="495.759" y="744" type="curve" smooth="yes"/>
      <point x="540.953" y="1017"/>
      <point x="677.309" y="1146"/>
      <point x="928.309" y="1146" type="curve" smooth="yes"/>
      <point x="1310.309" y="1146" type="line"/>
      <point x="1367.258" y="1490" type="line"/>
      <point x="959.258" y="1490" type="line" smooth="yes"/>
      <point x="499.258" y="1490"/>
      <point x="151.752" y="1197"/>
      <point x="75.759" y="744" type="curve" smooth="yes"/>
      <point x="-0.07" y="292"/>
      <point x="247.59" y="0"/>
    </contour>
    <component base="E" xOffset="880"/>
  </outline>
</glyph>
<glyph name="tbar" format="2">
  <advance width="856"/>
  <unicode hex="0167"/>
  <anchor x="488.0" y="0" name="bottom"/>
  <anchor x="540.0" y="0" name="cedilla"/>
  <anchor x="816.0" y="0" name="lfthook"/>
  <anchor x="639.92" y="1344" name="top"/>
  <anchor x="998.2" y="1490" name="raccent"/>
  <outline>
    <contour>
      <point x="936.06" y="667" type="line"/>
      <point x="140.06" y="667" type="line"/>
      <point x="101.17999999999999" y="451" type="line"/>
      <point x="897.18" y="451" type="line"/>
    </contour>
    <component base="t" yxScale="0.18"/>
  </outline>
</glyph>
<glyph name="Btopbar" format="2">
  <advance width="1309"/>
  <unicode hex="0182"/>
  <outline>
    <contour>
      <point x="-7" y="0" type="line"/>
      <point x="549" y="0" type="line" smooth="yes"/>
      <point x="926" y="0"/>
      <point x="1209" y="204"/>
      <point x="1259" y="500" type="curve" smooth="yes"/>
      <point x="1307" y="797"/>
      <point x="1089" y="989"/>
      <point x="715" y="990" type="curve" smooth="yes"/>
      <point x="565" y="990" type="line"/>
      <point x="591" y="1164" type="line"/>
      <point x="1233" y="1164" type="line"/>
      <point x="1289" y="1490" type="line"/>
      <point x="241" y="1490" type="line"/>
    </contour>
    <contour>
      <point x="451" y="318" type="line"/>
      <point x="511" y="680" type="line"/>
      <point x="663" y="680" type="line" smooth="yes"/>
      <point x="808" y="681"/>
      <point x="875" y="605"/>
      <point x="857" y="504" type="curve" smooth="yes"/>
      <point x="840" y="396"/>
      <point x="748" y="317"/>
      <point x="601" y="318" type="curve" smooth="yes"/>
    </contour>
  </outline>
</glyph>
<glyph name="tonesix" format="2">
  <advance width="1440"/>
  <unicode hex="0185"/>
  <outline>
    <contour>
      <point x="277" y="554" type="line"/>
      <point x="649" y="1056" type="line"/>
      <point x="280" y="1056" type="line"/>
      <point x="27" y="714" type="line"/>
    </contour>
    <component base="softsigncyrillic" xOffset="308"/>
  </outline>
</glyph>
<glyph name="Dtopbar" format="2">
  <advance width="1396"/>
  <unicode hex="018B"/>
  <outline>
    <contour>
      <point x="1198" y="0" type="line"/>
      <point x="1448" y="1502" type="line"/>
      <point x="400" y="1502" type="line"/>
      <point x="348" y="1184" type="line"/>
      <point x="1006" y="1184" type="line"/>
      <point x="974" y="990" type="line"/>
      <point x="808" y="990" type="line" smooth="yes"/>
      <point x="432" y="989"/>
      <point x="147" y="794"/>
      <point x="100" y="500" type="curve" smooth="yes"/>
      <point x="51" y="207"/>
      <point x="266" y="0"/>
      <point x="642" y="0" type="curve" smooth="yes"/>
    </contour>
    <contour>
      <point x="860" y="312" type="line"/>
      <point x="694" y="312" type="line" smooth="yes"/>
      <point x="545" y="311"/>
      <point x="473" y="396"/>
      <point x="490" y="504" type="curve" smooth="yes"/>
      <point x="508" y="605"/>
      <point x="607" y="681"/>
      <point x="754" y="680" type="curve" smooth="yes"/>
      <point x="920" y="680" type="line"/>
    </contour>
  </outline>
</glyph>
<glyph name="deltaturn" format="2">
  <advance width="1466"/>
  <unicode hex="018D"/>
  <outline>
    <contour>
      <point x="1014" y="-376" type="line"/>
      <point x="1042" y="-192" type="line"/>
      <point x="1003" y="-145"/>
      <point x="860" y="29"/>
      <point x="792" y="84" type="curve"/>
      <point x="808" y="84"/>
      <point x="831" y="84"/>
      <point x="830" y="84" type="curve" smooth="yes"/>
      <point x="1032" y="122"/>
      <point x="1255" y="311"/>
      <point x="1298" y="608" type="curve" smooth="yes"/>
      <point x="1302" y="628" type="line" smooth="yes"/>
      <point x="1347" y="932"/>
      <point x="1188" y="1132"/>
      <point x="830" y="1132" type="curve" smooth="yes"/>
      <point x="469" y="1132"/>
      <point x="231" y="905"/>
      <point x="182" y="570" type="curve" smooth="yes"/>
      <point x="178" y="550" type="line" smooth="yes"/>
      <point x="148" y="340"/>
      <point x="252" y="169"/>
      <point x="424" y="24" type="curve" smooth="yes"/>
      <point x="505" y="-47"/>
      <point x="549" y="-55"/>
      <point x="580" y="-76" type="curve"/>
      <point x="176" y="-76" type="line"/>
      <point x="126" y="-376" type="line"/>
    </contour>
    <contour>
      <point x="914" y="550" type="line"/>
      <point x="887" y="387"/>
      <point x="825" y="262"/>
      <point x="688" y="262" type="curve" smooth="yes"/>
      <point x="677" y="262"/>
      <point x="665" y="262"/>
      <point x="654" y="268" type="curve"/>
      <point x="581" y="308"/>
      <point x="533" y="404"/>
      <point x="554" y="550" type="curve" smooth="yes"/>
      <point x="558" y="570" type="line" smooth="yes"/>
      <point x="580" y="721"/>
      <point x="632" y="832"/>
      <point x="780" y="832" type="curve" smooth="yes"/>
      <point x="940" y="832"/>
      <point x="937" y="705"/>
      <point x="918" y="570" type="curve" smooth="yes"/>
    </contour>
  </outline>
</glyph>
<glyph name="Schwa" format="2">
  <advance width="1508"/>
  <unicode hex="018F"/>
  <outline>
    <contour>
      <point x="661" y="-24" type="curve" smooth="yes"/>
      <point x="1105" y="-24"/>
      <point x="1426" y="273"/>
      <point x="1504" y="744" type="curve" smooth="yes"/>
      <point x="1587" y="1242"/>
      <point x="1323" y="1514"/>
      <point x="916" y="1514" type="curve" smooth="yes"/>
      <point x="553" y="1514"/>
      <point x="222" y="1300"/>
      <point x="142" y="976" type="curve"/>
      <point x="566" y="976" type="line"/>
      <point x="605" y="1087"/>
      <point x="698" y="1154"/>
      <point x="849" y="1154" type="curve" smooth="yes"/>
      <point x="1068" y="1154"/>
      <point x="1128" y="1009"/>
      <point x="1084" y="744" type="curve" smooth="yes"/>
      <point x="1039" y="469"/>
      <point x="929" y="336"/>
      <point x="714" y="336" type="curve" smooth="yes"/>
      <point x="541" y="336"/>
      <point x="444" y="419"/>
      <point x="465" y="543" type="curve"/>
      <point x="378" y="535" type="line"/>
      <point x="1139" y="535" type="line"/>
      <point x="1188" y="832" type="line"/>
      <point x="107" y="832" type="line"/>
      <point x="71" y="617" type="line" smooth="yes"/>
      <point x="7" y="229"/>
      <point x="248" y="-24"/>
    </contour>
  </outline>
</glyph>
<glyph name="Epsilon1" format="2">
  <advance width="1306"/>
  <unicode hex="0190"/>
  <anchor x="566" y="0" name="bottom"/>
  <anchor x="807" y="1490" name="top"/>
  <outline>
    <contour>
      <point x="576" y="-24" type="curve" smooth="yes"/>
      <point x="1002" y="-24"/>
      <point x="1207" y="234"/>
      <point x="1253" y="512" type="curve"/>
      <point x="863" y="512" type="line"/>
      <point x="839" y="371"/>
      <point x="737" y="286"/>
      <point x="605" y="286" type="curve" smooth="yes"/>
      <point x="486" y="286"/>
      <point x="423" y="354"/>
      <point x="439" y="451" type="curve" smooth="yes"/>
      <point x="455" y="551"/>
      <point x="555" y="616"/>
      <point x="694" y="616" type="curve" smooth="yes"/>
      <point x="838" y="616" type="line"/>
      <point x="884" y="896" type="line"/>
      <point x="740" y="896" type="line" smooth="yes"/>
      <point x="606" y="896"/>
      <point x="537" y="953"/>
      <point x="553" y="1050" type="curve" smooth="yes"/>
      <point x="569" y="1145"/>
      <point x="664" y="1214"/>
      <point x="769" y="1214" type="curve" smooth="yes"/>
      <point x="879" y="1214"/>
      <point x="941" y="1139"/>
      <point x="923" y="1032" type="curve"/>
      <point x="1311" y="1032" type="line"/>
      <point x="1356" y="1305"/>
      <point x="1159" y="1514"/>
      <point x="795" y="1514" type="curve" smooth="yes"/>
      <point x="465" y="1514"/>
      <point x="220" y="1343"/>
      <point x="180" y="1100" type="curve" smooth="yes"/>
      <point x="150" y="918"/>
      <point x="260" y="802"/>
      <point x="425" y="782" type="curve"/>
      <point x="425" y="779" type="line"/>
      <point x="197" y="756"/>
      <point x="51" y="598"/>
      <point x="22" y="420" type="curve" smooth="yes"/>
      <point x="-21" y="165"/>
      <point x="211" y="-24"/>
    </contour>
  </outline>
</glyph>
<glyph name="florin" format="2">
  <advance width="1042"/>
  <unicode hex="0192"/>
  <outline>
    <contour>
      <point x="1003.714" y="1082" type="line"/>
      <point x="777.714" y="1082" type="line"/>
      <point x="790.627" y="1160" type="line" smooth="yes"/>
      <point x="802.884" y="1228"/>
      <point x="860.678" y="1263"/>
      <point x="937.513" y="1262" type="curve" smooth="yes"/>
      <point x="994.678" y="1263"/>
      <point x="1020.182" y="1260"/>
      <point x="1050.189" y="1254" type="curve"/>
      <point x="1117.204" y="1538" type="line"/>
      <point x="1061.86" y="1548"/>
      <point x="1014.184" y="1556"/>
      <point x="946.184" y="1556" type="curve" smooth="yes"/>
      <point x="647.184" y="1556"/>
      <point x="452.67" y="1420"/>
      <point x="408.627" y="1160" type="curve" smooth="yes"/>
      <point x="395.714" y="1082" type="line"/>
      <point x="235.714" y="1082" type="line"/>
      <point x="191.347" y="814" type="line"/>
      <point x="351.347" y="814" type="line"/>
      <point x="217.583" y="6" type="line" smooth="yes"/>
      <point x="205.002" y="-70"/>
      <point x="192.89" y="-119"/>
      <point x="92.724" y="-120" type="curve" smooth="yes"/>
      <point x="61.89" y="-119"/>
      <point x="24.883" y="-113"/>
      <point x="0.711" y="-108" type="curve"/>
      <point x="-62.292" y="-404" type="line"/>
      <point x="0.722" y="-416"/>
      <point x="52.225" y="-419"/>
      <point x="109.391" y="-418" type="curve" smooth="yes"/>
      <point x="372.225" y="-419"/>
      <point x="552.726" y="-271"/>
      <point x="599.583" y="6" type="curve" smooth="yes"/>
      <point x="733.347" y="814" type="line"/>
      <point x="959.347" y="814" type="line"/>
    </contour>
  </outline>
</glyph>
<glyph name="Gamma1" format="2">
  <advance width="1650"/>
  <unicode hex="0194"/>
  <outline>
    <contour>
      <point x="241.258" y="1490" type="line"/>
      <point x="726.402" y="168" type="line" smooth="yes"/>
      <point x="759.669" y="79"/>
      <point x="771.63" y="-36"/>
      <point x="759.386" y="-116" type="curve" smooth="yes"/>
      <point x="750.275" y="-165"/>
      <point x="734.798" y="-186"/>
      <point x="705.798" y="-186" type="curve" smooth="yes"/>
      <point x="677.798" y="-186"/>
      <point x="669.44" y="-164"/>
      <point x="677.055" y="-118" type="curve" smooth="yes"/>
      <point x="690.299" y="-38"/>
      <point x="739.841" y="74"/>
      <point x="806.402" y="168" type="curve" smooth="yes"/>
      <point x="1725.258" y="1490" type="line"/>
      <point x="1257.258" y="1490" type="line"/>
      <point x="748.488" y="688" type="line" smooth="yes"/>
      <point x="342.205" y="46"/>
      <point x="288.485" y="-55"/>
      <point x="275.413" y="-140" type="curve" smooth="yes"/>
      <point x="243.456" y="-327"/>
      <point x="404.418" y="-442"/>
      <point x="663.418" y="-442" type="curve" smooth="yes"/>
      <point x="918.418" y="-442"/>
      <point x="1109.442" y="-315"/>
      <point x="1137.427" y="-152" type="curve" smooth="yes"/>
      <point x="1156.955" y="-28"/>
      <point x="1096.15" y="245"/>
      <point x="958.157" y="686" type="curve" smooth="yes"/>
      <point x="707.258" y="1490" type="line"/>
    </contour>
  </outline>
</glyph>
<glyph name="hv" format="2">
  <advance width="2030"/>
  <unicode hex="0195"/>
  <outline>
    <contour>
      <point x="-1.41" y="0" type="line"/>
      <point x="400.59" y="0" type="line"/>
      <point x="504.555" y="628" type="line" smooth="yes"/>
      <point x="522.931" y="739"/>
      <point x="598.023" y="806"/>
      <point x="696.023" y="806" type="curve" smooth="yes"/>
      <point x="799.023" y="806"/>
      <point x="844.931" y="739"/>
      <point x="826.555" y="628" type="curve" smooth="yes"/>
      <point x="814.966" y="558" type="line"/>
      <point x="1216.966" y="558" type="line"/>
      <point x="1242.461" y="712" type="line" smooth="yes"/>
      <point x="1283.02" y="957"/>
      <point x="1157.992" y="1132"/>
      <point x="921.992" y="1132" type="curve" smooth="yes"/>
      <point x="756.992" y="1132"/>
      <point x="620.92" y="1047"/>
      <point x="546.246" y="904" type="curve"/>
      <point x="534.246" y="904" type="line"/>
      <point x="631.258" y="1490" type="line"/>
      <point x="245.258" y="1490" type="line"/>
    </contour>
    <contour>
      <point x="1223.279" y="-20" type="curve" smooth="yes"/>
      <point x="1694.279" y="-20"/>
      <point x="1913.711" y="339"/>
      <point x="2024.126" y="1012" type="curve"/>
      <point x="2041.674" y="1118" type="line"/>
      <point x="1641.674" y="1118" type="line"/>
      <point x="1624.126" y="1012" type="line" smooth="yes"/>
      <point x="1550.45" y="573"/>
      <point x="1455.083" y="305"/>
      <point x="1289.248" y="306" type="curve" smooth="yes"/>
      <point x="1218.083" y="305"/>
      <point x="1183.029" y="353"/>
      <point x="1195.776" y="430" type="curve"/>
      <point x="1216.966" y="558" type="line"/>
      <point x="814.966" y="558" type="line"/>
      <point x="793.776" y="430" type="line" smooth="yes"/>
      <point x="749.74" y="164"/>
      <point x="884.279" y="-20"/>
    </contour>
  </outline>
</glyph>
<glyph name="Khook" format="2">
  <advance width="1538"/>
  <unicode hex="0198"/>
  <outline>
    <contour>
      <point x="-7.41" y="0" type="line"/>
      <point x="396.59" y="0" type="line"/>
      <point x="449.235" y="318" type="line"/>
      <point x="660.027" y="504" type="line"/>
      <point x="960.59" y="0" type="line"/>
      <point x="1444.59" y="0" type="line"/>
      <point x="967.705" y="792" type="line"/>
      <point x="1320.032" y="1096" type="line" smooth="yes"/>
      <point x="1393.461" y="1159"/>
      <point x="1441.587" y="1196"/>
      <point x="1527.303" y="1152" type="curve"/>
      <point x="1693.987" y="1434" type="line"/>
      <point x="1482.178" y="1562"/>
      <point x="1268.39" y="1521"/>
      <point x="1060.757" y="1342" type="curve" smooth="yes"/>
      <point x="567.902" y="914" type="line"/>
      <point x="547.902" y="914" type="line"/>
      <point x="643.258" y="1490" type="line"/>
      <point x="239.258" y="1490" type="line"/>
    </contour>
  </outline>
</glyph>
<glyph name="lambdabar" format="2">
  <advance width="1388"/>
  <unicode hex="019B"/>
  <outline>
    <contour>
      <point x="1060" y="1370" type="line"/>
      <point x="302" y="1158" type="line"/>
      <point x="268" y="940" type="line"/>
      <point x="1024" y="1158" type="line"/>
    </contour>
    <contour>
      <point x="696" y="606" type="line" name="hr00"/>
      <point x="850" y="1122" type="line"/>
      <point x="590" y="1120" type="line"/>
      <point x="-2" y="0" type="line"/>
      <point x="400" y="0" type="line"/>
    </contour>
    <contour>
      <point x="594" y="1556" type="curve"/>
      <point x="540" y="1556"/>
      <point x="436" y="1548"/>
      <point x="370" y="1530" type="curve"/>
      <point x="336" y="1250" type="line"/>
      <point x="370" y="1254"/>
      <point x="388" y="1254"/>
      <point x="406" y="1254" type="curve" smooth="yes"/>
      <point x="489" y="1254"/>
      <point x="528" y="1220"/>
      <point x="544" y="1170" type="curve" smooth="yes"/>
      <point x="614" y="946" type="line"/>
      <point x="754" y="224" type="line" smooth="yes"/>
      <point x="777" y="104"/>
      <point x="866" y="-20"/>
      <point x="1068" y="-20" type="curve" smooth="yes"/>
      <point x="1125" y="-20"/>
      <point x="1168" y="-23"/>
      <point x="1206" y="-18" type="curve"/>
      <point x="1256" y="276" type="line"/>
      <point x="1249" y="276"/>
      <point x="1238" y="276"/>
      <point x="1222" y="276" type="curve" smooth="yes"/>
      <point x="1159" y="276"/>
      <point x="1137" y="358"/>
      <point x="1124" y="408" type="curve" smooth="yes"/>
      <point x="866" y="1378" type="line" smooth="yes"/>
      <point x="837" y="1492"/>
      <point x="746" y="1556"/>
    </contour>
  </outline>
</glyph>
<glyph name="mcapturn" format="2">
  <advance width="1990"/>
  <unicode hex="019C"/>
  <outline>
    <contour>
      <point x="1426" y="286" type="line"/>
      <point x="1424" y="0" type="line"/>
      <point x="1758" y="0" type="line"/>
      <point x="2006" y="1490" type="line"/>
      <point x="1628" y="1490" type="line"/>
    </contour>
    <contour>
      <point x="1514" y="504" type="line"/>
      <point x="1494" y="375"/>
      <point x="1421" y="279"/>
      <point x="1270" y="280" type="curve" smooth="yes"/>
      <point x="1177" y="279"/>
      <point x="1142" y="335"/>
      <point x="1156" y="414" type="curve"/>
      <point x="1334" y="1490" type="line"/>
      <point x="962" y="1490" type="line"/>
      <point x="784" y="414" type="line"/>
      <point x="732" y="99"/>
      <point x="860" y="-20"/>
      <point x="1092" y="-20" type="curve" smooth="yes"/>
      <point x="1363" y="-20"/>
      <point x="1564" y="204"/>
      <point x="1614" y="506" type="curve"/>
    </contour>
    <contour>
      <point x="848" y="504" type="line"/>
      <point x="825" y="372"/>
      <point x="755" y="279"/>
      <point x="604" y="280" type="curve" smooth="yes"/>
      <point x="511" y="279"/>
      <point x="477" y="335"/>
      <point x="490" y="414" type="curve" smooth="yes"/>
      <point x="668" y="1490" type="line"/>
      <point x="296" y="1490" type="line"/>
      <point x="118" y="414" type="line" smooth="yes"/>
      <point x="66" y="102"/>
      <point x="161" y="-20"/>
      <point x="426" y="-20" type="curve" smooth="yes"/>
      <point x="708" y="-20"/>
      <point x="900" y="195"/>
      <point x="952" y="506" type="curve"/>
    </contour>
  </outline>
</glyph>
<glyph name="Ohorn" format="2">
  <advance width="1528"/>
  <unicode hex="01A0"/>
  <anchor x="678" y="0" name="bottom"/>
  <anchor x="801" y="745" name="center"/>
  <anchor x="1535" y="893" name="ogonek"/>
  <anchor x="330" y="1490" name="tonos"/>
  <anchor x="924" y="1490" name="top"/>
  <anchor x="928" y="1514" name="tophorn"/>
  <outline>
    <contour>
      <point x="888" y="1282" type="line"/>
      <point x="1043" y="1282"/>
      <point x="1195" y="1258"/>
      <point x="1350" y="1258" type="curve" smooth="yes"/>
      <point x="1494" y="1258"/>
      <point x="1619" y="1320"/>
      <point x="1643" y="1470" type="curve" smooth="yes"/>
      <point x="1686" y="1730" type="line"/>
      <point x="1338" y="1730" type="line"/>
      <point x="1304" y="1522" type="line" smooth="yes"/>
      <point x="1300" y="1501"/>
      <point x="1288" y="1490"/>
      <point x="1267" y="1490" type="curve" smooth="yes"/>
      <point x="1101" y="1490"/>
      <point x="1042" y="1514"/>
      <point x="927" y="1514" type="curve"/>
    </contour>
    <component base="O"/>
  </outline>
</glyph>
<glyph name="ohorn" format="2">
  <advance width="1244"/>
  <unicode hex="01A1"/>
  <anchor x="535" y="0" name="bottom"/>
  <anchor x="622" y="528" name="center"/>
  <anchor x="1198" y="528" name="ogonek"/>
  <anchor x="709" y="1056" name="top"/>
  <anchor x="713" y="1080" name="tophorn"/>
  <outline>
    <contour>
      <point x="670" y="824" type="line"/>
      <point x="781" y="824"/>
      <point x="893" y="824"/>
      <point x="1004" y="824" type="curve" smooth="yes"/>
      <point x="1148" y="824"/>
      <point x="1297" y="886"/>
      <point x="1322" y="1036" type="curve" smooth="yes"/>
      <point x="1365" y="1296" type="line"/>
      <point x="1025" y="1296" type="line"/>
      <point x="990" y="1088" type="line" smooth="yes"/>
      <point x="987" y="1067"/>
      <point x="974" y="1057"/>
      <point x="953" y="1057" type="curve" smooth="yes"/>
      <point x="891" y="1057"/>
      <point x="835" y="1080"/>
      <point x="713" y="1080" type="curve"/>
    </contour>
    <component base="o"/>
  </outline>
</glyph>
<glyph name="OI" format="2">
  <advance width="1982"/>
  <unicode hex="01A2"/>
  <outline>
    <contour>
      <point x="1432" y="966" type="line"/>
      <point x="1054" y="966" type="line"/>
      <point x="948" y="340" type="line"/>
      <point x="909" y="317"/>
      <point x="835" y="291"/>
      <point x="740" y="290" type="curve" smooth="yes"/>
      <point x="497" y="291"/>
      <point x="455" y="451"/>
      <point x="494" y="690" type="curve" smooth="yes"/>
      <point x="510" y="776" type="line"/>
      <point x="110" y="774" type="line"/>
      <point x="96" y="690" type="line" smooth="yes"/>
      <point x="22" y="241"/>
      <point x="236" y="-20"/>
      <point x="674" y="-20" type="curve" smooth="yes"/>
      <point x="972" y="-20"/>
      <point x="1204" y="96"/>
      <point x="1300" y="178" type="curve"/>
    </contour>
    <contour>
      <point x="1488" y="1312" type="line"/>
      <point x="1420" y="1396"/>
      <point x="1228" y="1510"/>
      <point x="928" y="1510" type="curve" smooth="yes"/>
      <point x="489" y="1510"/>
      <point x="189" y="1251"/>
      <point x="114" y="800" type="curve" smooth="yes"/>
      <point x="98" y="698" type="line"/>
      <point x="496" y="696" type="line"/>
      <point x="514" y="800" type="line" smooth="yes"/>
      <point x="555" y="1053"/>
      <point x="636" y="1199"/>
      <point x="894" y="1198" type="curve" smooth="yes"/>
      <point x="965" y="1199"/>
      <point x="1041" y="1187"/>
      <point x="1084" y="1152" type="curve"/>
      <point x="980" y="530" type="line"/>
      <point x="1360" y="536" type="line"/>
    </contour>
    <contour>
      <point x="2052" y="1490" type="line"/>
      <point x="1774" y="1490" type="line"/>
      <point x="1266" y="1266" type="line"/>
      <point x="1192" y="832" type="line"/>
      <point x="1602" y="1016" type="line"/>
      <point x="1364" y="-418" type="line"/>
      <point x="1736" y="-418" type="line"/>
    </contour>
  </outline>
</glyph>
<glyph name="oi" format="2">
  <advance width="1644"/>
  <unicode hex="01A3"/>
  <outline>
    <contour>
      <point x="556" y="282" type="curve" smooth="yes"/>
      <point x="401" y="282"/>
      <point x="424" y="416"/>
      <point x="444" y="532" type="curve" smooth="yes"/>
      <point x="446" y="550" type="line" smooth="yes"/>
      <point x="473" y="710"/>
      <point x="504" y="832"/>
      <point x="642" y="832" type="curve"/>
      <point x="708" y="832"/>
      <point x="742" y="809"/>
      <point x="760" y="766" type="curve"/>
      <point x="740" y="638" type="line"/>
      <point x="1110" y="602" type="line"/>
      <point x="1146" y="824" type="line"/>
      <point x="1113" y="943"/>
      <point x="969" y="1132"/>
      <point x="706" y="1132" type="curve" smooth="yes"/>
      <point x="347" y="1132"/>
      <point x="132" y="899"/>
      <point x="74" y="550" type="curve" smooth="yes"/>
      <point x="72" y="532" type="line" smooth="yes"/>
      <point x="17" y="209"/>
      <point x="156" y="-20"/>
      <point x="514" y="-20" type="curve"/>
      <point x="808" y="-20"/>
      <point x="953" y="105"/>
      <point x="1050" y="248" type="curve"/>
      <point x="1122" y="686" type="line"/>
      <point x="748" y="686" type="line"/>
      <point x="690" y="328" type="line"/>
      <point x="660" y="297"/>
      <point x="614" y="282"/>
    </contour>
    <contour>
      <point x="1666" y="1118" type="line"/>
      <point x="1422" y="1118" type="line"/>
      <point x="1010" y="962" type="line"/>
      <point x="958" y="646" type="line"/>
      <point x="1222" y="718" type="line"/>
      <point x="1034" y="-418" type="line"/>
      <point x="1412" y="-418" type="line"/>
    </contour>
  </outline>
</glyph>
<glyph name="YR" format="2">
  <advance width="1586"/>
  <unicode hex="01A6"/>
  <outline>
    <contour>
      <point x="214" y="1388" type="line"/>
      <point x="604" y="1388" type="line"/>
      <point x="638" y="1592" type="line"/>
      <point x="248" y="1592" type="line"/>
    </contour>
    <contour>
      <point x="232" y="1490" type="line" name="hr01"/>
      <point x="-16" y="0" type="line"/>
      <point x="376" y="0" type="line"/>
      <point x="572" y="1176" type="line"/>
      <point x="796" y="1176" type="line" smooth="yes"/>
      <point x="917" y="1175"/>
      <point x="980" y="1111"/>
      <point x="962" y="1000" type="curve" smooth="yes"/>
      <point x="943" y="890"/>
      <point x="863" y="829"/>
      <point x="738" y="830" type="curve" smooth="yes"/>
      <point x="360" y="830" type="line"/>
      <point x="312" y="518" type="line"/>
      <point x="820" y="518" type="line"/>
      <point x="968" y="600" type="line"/>
      <point x="1167" y="675"/>
      <point x="1314" y="777"/>
      <point x="1358" y="1048" type="curve" smooth="yes"/>
      <point x="1406" y="1335"/>
      <point x="1199" y="1489"/>
      <point x="848" y="1490" type="curve" smooth="yes"/>
    </contour>
    <contour>
      <point x="940" y="-344" type="line"/>
      <point x="1358" y="-344" type="line"/>
      <point x="1362" y="-328" type="line"/>
      <point x="1000" y="640" type="line"/>
      <point x="588" y="640" type="line"/>
    </contour>
  </outline>
</glyph>
<glyph name="Tonetwo" format="2">
  <advance width="1403"/>
  <unicode hex="01A7"/>
  <anchor x="612" y="0" name="bottom"/>
  <anchor x="615" y="0" name="cedilla"/>
  <anchor x="862" y="1490" name="top"/>
  <outline>
    <contour>
      <point x="632" y="-24" type="curve" smooth="yes"/>
      <point x="1045" y="-24"/>
      <point x="1279" y="161"/>
      <point x="1334" y="496" type="curve"/>
      <point x="941" y="496" type="line"/>
      <point x="915" y="375"/>
      <point x="800" y="304"/>
      <point x="649" y="304" type="curve" smooth="yes"/>
      <point x="518" y="304"/>
      <point x="447" y="357"/>
      <point x="460" y="435" type="curve" smooth="yes"/>
      <point x="472" y="507"/>
      <point x="555" y="549"/>
      <point x="728" y="581" type="curve" smooth="yes"/>
      <point x="881" y="609" type="line" smooth="yes"/>
      <point x="1178" y="663"/>
      <point x="1359" y="817"/>
      <point x="1396" y="1038" type="curve" smooth="yes"/>
      <point x="1443" y="1321"/>
      <point x="1204" y="1514"/>
      <point x="842" y="1514" type="curve" smooth="yes"/>
      <point x="470" y="1514"/>
      <point x="238" y="1330"/>
      <point x="177" y="1018" type="curve"/>
      <point x="559" y="1018" type="line"/>
      <point x="586" y="1122"/>
      <point x="687" y="1186"/>
      <point x="811" y="1186" type="curve" smooth="yes"/>
      <point x="928" y="1186"/>
      <point x="994" y="1133"/>
      <point x="981" y="1058" type="curve" smooth="yes"/>
      <point x="969" y="987"/>
      <point x="896" y="950"/>
      <point x="736" y="921" type="curve" smooth="yes"/>
      <point x="613" y="899" type="line" smooth="yes"/>
      <point x="260" y="836"/>
      <point x="94" y="704"/>
      <point x="54" y="466" type="curve" smooth="yes"/>
      <point x="2" y="154"/>
      <point x="228" y="-24"/>
    </contour>
  </outline>
</glyph>
<glyph name="tonetwo" format="2">
  <advance width="1143"/>
  <unicode hex="01A8"/>
  <anchor x="480" y="0" name="bottom"/>
  <anchor x="472" y="0" name="cedilla"/>
  <anchor x="673" y="1056" name="top"/>
  <outline>
    <contour>
      <point x="93" y="705" type="curve"/>
      <point x="457" y="705" type="line"/>
      <point x="469" y="766"/>
      <point x="536" y="813"/>
      <point x="613" y="813" type="curve" smooth="yes"/>
      <point x="690" y="813"/>
      <point x="728" y="784"/>
      <point x="721" y="745" type="curve" smooth="yes"/>
      <point x="716" y="712"/>
      <point x="677" y="688"/>
      <point x="612" y="677" type="curve" smooth="yes"/>
      <point x="380" y="639" type="line" smooth="yes"/>
      <point x="152" y="602"/>
      <point x="33" y="511"/>
      <point x="6" y="353" type="curve" smooth="yes"/>
      <point x="-31" y="129"/>
      <point x="152" y="-27"/>
      <point x="468" y="-27" type="curve" smooth="yes"/>
      <point x="782" y="-27"/>
      <point x="1019" y="122"/>
      <point x="1077" y="345" type="curve"/>
      <point x="683" y="345" type="line"/>
      <point x="664" y="282"/>
      <point x="604" y="239"/>
      <point x="518" y="239" type="curve" smooth="yes"/>
      <point x="439" y="239"/>
      <point x="398" y="266"/>
      <point x="405" y="307" type="curve" smooth="yes"/>
      <point x="410" y="341"/>
      <point x="452" y="364"/>
      <point x="534" y="377" type="curve" smooth="yes"/>
      <point x="738" y="409" type="line" smooth="yes"/>
      <point x="955" y="443"/>
      <point x="1087" y="552"/>
      <point x="1116" y="723" type="curve" smooth="yes"/>
      <point x="1152" y="941"/>
      <point x="988" y="1077"/>
      <point x="672" y="1077" type="curve" smooth="yes"/>
      <point x="353" y="1077"/>
      <point x="137" y="934"/>
    </contour>
  </outline>
</glyph>
<glyph name="eshlooprev" format="2">
  <advance width="1458"/>
  <unicode hex="01AA"/>
  <outline>
    <contour>
      <point x="752" y="896" type="line"/>
      <point x="606" y="8" type="line" smooth="yes"/>
      <point x="557" y="-284"/>
      <point x="709" y="-444"/>
      <point x="986" y="-444" type="curve" smooth="yes"/>
      <point x="1052" y="-444"/>
      <point x="1105" y="-441"/>
      <point x="1164" y="-430" type="curve"/>
      <point x="1210" y="-136" type="line"/>
      <point x="1166" y="-141"/>
      <point x="1137" y="-144"/>
      <point x="1102" y="-144" type="curve" smooth="yes"/>
      <point x="1012" y="-144"/>
      <point x="964" y="-89"/>
      <point x="980" y="8" type="curve" smooth="yes"/>
      <point x="1162" y="1100" type="line"/>
    </contour>
    <contour>
      <point x="222" y="1100" type="curve" smooth="yes"/>
      <point x="182" y="846"/>
      <point x="359" y="643"/>
      <point x="616" y="642" type="curve" smooth="yes"/>
      <point x="873" y="643"/>
      <point x="1121" y="849"/>
      <point x="1162" y="1100" type="curve" smooth="yes"/>
      <point x="1203" y="1347"/>
      <point x="1025" y="1556"/>
      <point x="766" y="1556" type="curve" smooth="yes"/>
      <point x="507" y="1556"/>
      <point x="263" y="1347"/>
    </contour>
    <contour>
      <point x="670" y="954" type="curve" smooth="yes"/>
      <point x="583" y="954"/>
      <point x="527" y="1004"/>
      <point x="546" y="1102" type="curve" smooth="yes"/>
      <point x="562" y="1195"/>
      <point x="629" y="1245"/>
      <point x="718" y="1246" type="curve" smooth="yes"/>
      <point x="792" y="1245"/>
      <point x="850" y="1199"/>
      <point x="836" y="1102" type="curve" smooth="yes"/>
      <point x="822" y="1003"/>
      <point x="748" y="954"/>
    </contour>
  </outline>
</glyph>
<glyph name="thook" format="2">
  <advance width="853"/>
  <unicode hex="01AD"/>
  <anchor x="674" y="1056" name="_topr"/>
  <anchor x="389" y="0" name="bottom"/>
  <anchor x="556" y="1542" name="top"/>
  <anchor x="674" y="1056" name="topr"/>
  <outline>
    <contour>
      <point x="497" y="0" type="curve" smooth="yes"/>
      <point x="587" y="0"/>
      <point x="681" y="0"/>
      <point x="717" y="0" type="curve"/>
      <point x="767" y="304" type="line"/>
      <point x="745" y="304"/>
      <point x="693" y="304"/>
      <point x="657" y="304" type="curve" smooth="yes"/>
      <point x="578" y="304"/>
      <point x="554" y="333"/>
      <point x="567" y="410" type="curve" smooth="yes"/>
      <point x="653" y="928" type="line"/>
      <point x="253" y="928" type="line"/>
      <point x="155" y="340" type="line" smooth="yes"/>
      <point x="116" y="104"/>
      <point x="221" y="0"/>
    </contour>
    <contour>
      <point x="61" y="752" type="line"/>
      <point x="841" y="752" type="line"/>
      <point x="892" y="1056" type="line"/>
      <point x="112" y="1056" type="line"/>
    </contour>
    <component base="_part.top_r_hook" xOffset="103"/>
  </outline>
</glyph>
<glyph name="Trthook" format="2">
  <advance width="1345"/>
  <unicode hex="01AE"/>
  <anchor x="584" y="0" name="bottom"/>
  <anchor x="793" y="0" name="bottomr"/>
  <anchor x="578" y="0" name="cedilla"/>
  <anchor x="694" y="666" name="cross"/>
  <anchor x="793" y="0" name="cyrtic"/>
  <anchor x="738" y="0" name="right"/>
  <anchor x="833" y="1490" name="top"/>
  <outline>
    <contour>
      <point x="798.59" y="0" type="line"/>
      <point x="400.59" y="0" type="line"/>
      <point x="395.293" y="-32" type="line" smooth="yes"/>
      <point x="336.019" y="-384"/>
      <point x="556.225" y="-419"/>
      <point x="769.391" y="-418" type="curve"/>
      <point x="945.391" y="-418" type="line"/>
      <point x="994.724" y="-120" type="line"/>
      <point x="926.724" y="-120" type="line"/>
      <point x="855.89" y="-119"/>
      <point x="781.704" y="-102"/>
      <point x="792.962" y="-34" type="curve" smooth="yes"/>
    </contour>
    <component base="T"/>
  </outline>
</glyph>
<glyph name="Uhorn" format="2">
  <advance width="1443"/>
  <unicode hex="01AF"/>
  <anchor x="635" y="0" name="bottom"/>
  <anchor x="1362" y="517" name="ogonek"/>
  <anchor x="763" y="0" name="right"/>
  <anchor x="1119" y="1490" name="rtophorn"/>
  <anchor x="881" y="1490" name="top"/>
  <outline>
    <contour>
      <point x="1080" y="1258" type="line"/>
      <point x="1381" y="1258" type="line" smooth="yes"/>
      <point x="1525" y="1258"/>
      <point x="1650" y="1320"/>
      <point x="1674" y="1470" type="curve" smooth="yes"/>
      <point x="1717" y="1730" type="line"/>
      <point x="1369" y="1730" type="line"/>
      <point x="1335" y="1522" type="line" smooth="yes"/>
      <point x="1331" y="1501"/>
      <point x="1319" y="1490"/>
      <point x="1298" y="1490" type="curve" smooth="yes"/>
      <point x="1119" y="1490" type="line"/>
    </contour>
    <component base="U"/>
  </outline>
</glyph>
<glyph name="uhorn" format="2">
  <advance width="1411"/>
  <unicode hex="01B0"/>
  <anchor x="569" y="0" name="bottom"/>
  <anchor x="1092" y="0" name="ogonek"/>
  <anchor x="867" y="1056" name="rtophorn"/>
  <anchor x="720" y="1056" name="top"/>
  <outline>
    <contour>
      <point x="996" y="824" type="line"/>
      <point x="1161" y="824" type="line" smooth="yes"/>
      <point x="1305" y="824"/>
      <point x="1430" y="886"/>
      <point x="1455" y="1036" type="curve" smooth="yes"/>
      <point x="1498" y="1296" type="line"/>
      <point x="1198" y="1296" type="line"/>
      <point x="1163" y="1088" type="line" smooth="yes"/>
      <point x="1160" y="1067"/>
      <point x="1147" y="1056"/>
      <point x="1126" y="1056" type="curve" smooth="yes"/>
      <point x="1035" y="1056" type="line"/>
    </contour>
    <component base="u"/>
  </outline>
</glyph>
<glyph name="Upsilon2" format="2">
  <advance width="1586"/>
  <unicode hex="01B1"/>
  <outline>
    <contour>
      <point x="78.846" y="666" type="curve" smooth="yes"/>
      <point x="13.461" y="265"/>
      <point x="271.279" y="-20"/>
      <point x="701.279" y="-20" type="curve" smooth="yes"/>
      <point x="1132.279" y="-20"/>
      <point x="1485.461" y="265"/>
      <point x="1550.846" y="666" type="curve"/>
      <point x="1589.425" y="893"/>
      <point x="1516.913" y="1053"/>
      <point x="1375.303" y="1152" type="curve"/>
      <point x="1377.289" y="1164" type="line"/>
      <point x="1633.289" y="1164" type="line"/>
      <point x="1687.258" y="1490" type="line"/>
      <point x="1057.258" y="1490" type="line"/>
      <point x="989.714" y="1082" type="line"/>
      <point x="1114.106" y="1030"/>
      <point x="1174.439" y="881"/>
      <point x="1145.468" y="706" type="curve" smooth="yes"/>
      <point x="1109.544" y="489"/>
      <point x="950.049" y="335"/>
      <point x="759.884" y="334" type="curve" smooth="yes"/>
      <point x="572.049" y="335"/>
      <point x="463.544" y="489"/>
      <point x="499.468" y="706" type="curve"/>
      <point x="528.439" y="881"/>
      <point x="637.106" y="1030"/>
      <point x="779.714" y="1082" type="curve"/>
      <point x="847.258" y="1490" type="line"/>
      <point x="215.258" y="1490" type="line"/>
      <point x="161.289" y="1164" type="line"/>
      <point x="417.289" y="1164" type="line"/>
      <point x="415.303" y="1152" type="line"/>
      <point x="242.913" y="1053"/>
      <point x="117.425" y="893"/>
    </contour>
  </outline>
</glyph>
<glyph name="Vcursive" format="2">
  <advance width="1388"/>
  <unicode hex="01B2"/>
  <outline>
    <contour>
      <point x="600" y="-20" type="curve" smooth="yes"/>
      <point x="974" y="-20"/>
      <point x="1243" y="177"/>
      <point x="1298" y="520" type="curve" smooth="yes"/>
      <point x="1386" y="1058" type="line" smooth="yes"/>
      <point x="1433" y="1351"/>
      <point x="1300" y="1510"/>
      <point x="1006" y="1510" type="curve" smooth="yes"/>
      <point x="955" y="1510"/>
      <point x="904" y="1505"/>
      <point x="840" y="1492" type="curve"/>
      <point x="786" y="1182" type="line"/>
      <point x="831" y="1187"/>
      <point x="863" y="1190"/>
      <point x="894" y="1190" type="curve" smooth="yes"/>
      <point x="994" y="1190"/>
      <point x="1007" y="1161"/>
      <point x="990" y="1058" type="curve" smooth="yes"/>
      <point x="904" y="520" type="line" smooth="yes"/>
      <point x="880" y="378"/>
      <point x="814" y="291"/>
      <point x="654" y="290" type="curve" smooth="yes"/>
      <point x="491" y="291"/>
      <point x="447" y="378"/>
      <point x="470" y="520" type="curve" smooth="yes"/>
      <point x="630" y="1490" type="line"/>
      <point x="240" y="1490" type="line"/>
      <point x="80" y="520" type="line" smooth="yes"/>
      <point x="23" y="175"/>
      <point x="238" y="-20"/>
    </contour>
  </outline>
</glyph>
<glyph name="Yhook" format="2">
  <advance width="1698"/>
  <unicode hex="01B3"/>
  <outline>
    <contour>
      <point x="877.307" y="850" type="line"/>
      <point x="913.307" y="850" type="line"/>
      <point x="918.935" y="884" type="line"/>
      <point x="882.935" y="884" type="line"/>
    </contour>
    <contour>
      <point x="195.258" y="1490" type="line"/>
      <point x="645.642" y="550" type="line"/>
      <point x="554.59" y="0" type="line"/>
      <point x="954.59" y="0" type="line"/>
      <point x="1045.642" y="550" type="line"/>
      <point x="1481.383" y="1080" type="line" smooth="yes"/>
      <point x="1556.945" y="1174"/>
      <point x="1603.911" y="1204"/>
      <point x="1716.614" y="1172" type="curve"/>
      <point x="1847.947" y="1470" type="line"/>
      <point x="1648.867" y="1542"/>
      <point x="1400.225" y="1520"/>
      <point x="1214.493" y="1280" type="curve" smooth="yes"/>
      <point x="898.618" y="870" type="line"/>
      <point x="629.258" y="1490" type="line"/>
    </contour>
  </outline>
</glyph>
<glyph name="yhook" format="2">
  <advance width="1476"/>
  <unicode hex="01B4"/>
  <anchor x="894" y="0" name="bottom"/>
  <anchor x="725" y="0" name="ogonek"/>
  <anchor x="659" y="1056" name="top"/>
  <outline>
    <contour>
      <point x="884" y="1056" type="line"/>
      <point x="1302" y="1056" type="line"/>
      <point x="1313" y="1076" type="line" smooth="yes"/>
      <point x="1341" y="1127"/>
      <point x="1371" y="1176"/>
      <point x="1438" y="1176" type="curve" smooth="yes"/>
      <point x="1489" y="1176"/>
      <point x="1519" y="1176"/>
      <point x="1543" y="1176" type="curve"/>
      <point x="1595" y="1490" type="line"/>
      <point x="1551" y="1490"/>
      <point x="1468" y="1490"/>
      <point x="1366" y="1490" type="curve" smooth="yes"/>
      <point x="1096" y="1490"/>
      <point x="1038" y="1364"/>
      <point x="917" y="1122" type="curve" smooth="yes"/>
    </contour>
    <component base="y"/>
  </outline>
</glyph>
<glyph name="Ezh" format="2">
  <advance width="1385"/>
  <unicode hex="01B7"/>
  <anchor x="883" y="1676" name="top"/>
  <outline>
    <contour>
      <point x="-25" y="136" type="line"/>
      <point x="-75" y="-199"/>
      <point x="157" y="-442"/>
      <point x="529" y="-442" type="curve" smooth="yes"/>
      <point x="911" y="-442"/>
      <point x="1236" y="-164"/>
      <point x="1299" y="222" type="curve" smooth="yes"/>
      <point x="1351" y="534"/>
      <point x="1193" y="759"/>
      <point x="897" y="792" type="curve"/>
      <point x="901" y="806" type="line"/>
      <point x="1423" y="1198" type="line"/>
      <point x="1471" y="1490" type="line"/>
      <point x="281" y="1490" type="line"/>
      <point x="225" y="1158" type="line"/>
      <point x="929" y="1158" type="line"/>
      <point x="929" y="1146" type="line"/>
      <point x="515" y="832" type="line"/>
      <point x="469" y="552" type="line"/>
      <point x="663" y="552" type="line" smooth="yes"/>
      <point x="818" y="553"/>
      <point x="907" y="425"/>
      <point x="873" y="214" type="curve" smooth="yes"/>
      <point x="842" y="26"/>
      <point x="733" y="-108"/>
      <point x="577" y="-108" type="curve" smooth="yes"/>
      <point x="445" y="-108"/>
      <point x="365" y="-9"/>
      <point x="383" y="136" type="curve"/>
    </contour>
  </outline>
</glyph>
<glyph name="Ezhreversed" format="2">
  <advance width="1385"/>
  <unicode hex="01B8"/>
  <anchor x="882" y="1676" name="top"/>
  <outline>
    <contour>
      <point x="1280" y="136" type="curve"/>
      <point x="872" y="136" type="line"/>
      <point x="842" y="-9"/>
      <point x="728" y="-108"/>
      <point x="596" y="-108" type="curve" smooth="yes"/>
      <point x="441" y="-108"/>
      <point x="377" y="26"/>
      <point x="408" y="214" type="curve" smooth="yes"/>
      <point x="443" y="425"/>
      <point x="575" y="553"/>
      <point x="728" y="552" type="curve" smooth="yes"/>
      <point x="922" y="552" type="line"/>
      <point x="970" y="832" type="line"/>
      <point x="662" y="1146" type="line"/>
      <point x="662" y="1158" type="line"/>
      <point x="1366" y="1158" type="line"/>
      <point x="1422" y="1490" type="line"/>
      <point x="232" y="1490" type="line"/>
      <point x="184" y="1198" type="line"/>
      <point x="576" y="806" type="line"/>
      <point x="572" y="792" type="line"/>
      <point x="268" y="759"/>
      <point x="36" y="534"/>
      <point x="-16" y="222" type="curve" smooth="yes"/>
      <point x="-79" y="-164"/>
      <point x="152" y="-442"/>
      <point x="534" y="-442" type="curve" smooth="yes"/>
      <point x="905" y="-442"/>
      <point x="1217" y="-199"/>
    </contour>
  </outline>
</glyph>
<glyph name="ezhreversed" format="2">
  <advance width="1305"/>
  <unicode hex="01B9"/>
  <anchor x="737" y="1056" name="top"/>
  <outline>
    <contour>
      <point x="488" y="-458" type="curve" smooth="yes"/>
      <point x="914" y="-458"/>
      <point x="1135" y="-200"/>
      <point x="1181" y="78" type="curve"/>
      <point x="791" y="78" type="line"/>
      <point x="768" y="-63"/>
      <point x="673" y="-148"/>
      <point x="541" y="-148" type="curve" smooth="yes"/>
      <point x="422" y="-148"/>
      <point x="351" y="-80"/>
      <point x="367" y="17" type="curve" smooth="yes"/>
      <point x="383" y="115"/>
      <point x="494" y="182"/>
      <point x="618" y="182" type="curve" smooth="yes"/>
      <point x="806" y="182" type="line"/>
      <point x="850" y="450" type="line"/>
      <point x="601" y="717" type="line"/>
      <point x="601" y="718" type="line"/>
      <point x="1215" y="718" type="line"/>
      <point x="1271" y="1056" type="line"/>
      <point x="169" y="1056" type="line"/>
      <point x="120" y="764" type="line"/>
      <point x="472" y="404" type="line"/>
      <point x="472" y="403" type="line"/>
      <point x="113" y="360"/>
      <point x="-23.002" y="151"/>
      <point x="-50" y="-14" type="curve" smooth="yes"/>
      <point x="-93" y="-269"/>
      <point x="123" y="-458"/>
    </contour>
  </outline>
</glyph>
<glyph name="ezhtail" format="2">
  <advance width="1195"/>
  <unicode hex="01BA"/>
  <outline>
    <contour>
      <point x="243" y="1056" type="line" name="hr00"/>
      <point x="193" y="756" type="line"/>
      <point x="545" y="756" type="line"/>
      <point x="336" y="640" type="line"/>
      <point x="301" y="430" type="line"/>
      <point x="523" y="430" type="line"/>
      <point x="1132" y="844" type="line"/>
      <point x="1167" y="1056" type="line"/>
    </contour>
    <contour>
      <point x="354" y="-119" type="curve" smooth="yes"/>
      <point x="364" y="-58"/>
      <point x="454" y="-37"/>
      <point x="558" y="-12" type="curve" smooth="yes"/>
      <point x="699" y="22"/>
      <point x="1005" y="91"/>
      <point x="1046" y="337" type="curve" smooth="yes"/>
      <point x="1077" y="524"/>
      <point x="931" y="674"/>
      <point x="630" y="674" type="curve" smooth="yes"/>
      <point x="454" y="674" type="line"/>
      <point x="413" y="430" type="line"/>
      <point x="589" y="430" type="line" smooth="yes"/>
      <point x="656" y="430"/>
      <point x="702" y="411"/>
      <point x="693" y="356" type="curve" smooth="yes"/>
      <point x="681" y="281"/>
      <point x="588" y="268"/>
      <point x="478" y="248" type="curve" smooth="yes"/>
      <point x="315" y="219"/>
      <point x="37" y="161"/>
      <point x="-4" y="-87" type="curve" smooth="yes"/>
      <point x="-40" y="-303"/>
      <point x="141" y="-442"/>
      <point x="433" y="-442" type="curve" smooth="yes"/>
      <point x="773" y="-442"/>
      <point x="977" y="-254"/>
      <point x="1012" y="-72" type="curve"/>
      <point x="664" y="-72" type="line"/>
      <point x="644" y="-166"/>
      <point x="557" y="-192"/>
      <point x="476" y="-192" type="curve" smooth="yes"/>
      <point x="404" y="-192"/>
      <point x="346" y="-171"/>
    </contour>
  </outline>
</glyph>
<glyph name="Tonefive" format="2">
  <advance width="1350"/>
  <unicode hex="01BC"/>
  <outline>
    <contour>
      <point x="522" y="1490" type="line"/>
      <point x="200" y="1490" type="line"/>
      <point x="146" y="1166" type="line"/>
      <point x="468" y="1166" type="line"/>
    </contour>
    <component base="five" xOffset="79"/>
  </outline>
</glyph>
<glyph name="tonefive" format="2">
  <advance width="1466"/>
  <unicode hex="01BD"/>
  <outline>
    <contour>
      <point x="618" y="454" type="line" name="hr00"/>
      <point x="641" y="463"/>
      <point x="687" y="465"/>
      <point x="758" y="466" type="curve" smooth="yes"/>
      <point x="850" y="465"/>
      <point x="903" y="431"/>
      <point x="894" y="378" type="curve" smooth="yes"/>
      <point x="882" y="317"/>
      <point x="830" y="285"/>
      <point x="734" y="286" type="curve" smooth="yes"/>
      <point x="638" y="285"/>
      <point x="583" y="297"/>
      <point x="580" y="346" type="curve"/>
      <point x="202" y="334" type="line"/>
      <point x="161" y="84"/>
      <point x="393" y="-17"/>
      <point x="686" y="-18" type="curve" smooth="yes"/>
      <point x="1051" y="-17"/>
      <point x="1228" y="134"/>
      <point x="1264" y="344" type="curve" smooth="yes"/>
      <point x="1298" y="564"/>
      <point x="1170" y="695"/>
      <point x="912" y="696" type="curve" smooth="yes"/>
      <point x="804" y="695"/>
      <point x="722" y="675"/>
      <point x="670" y="654" type="curve"/>
      <point x="722" y="798" type="line"/>
      <point x="1250" y="798" type="line"/>
      <point x="1296" y="1082" type="line"/>
      <point x="466" y="1082" type="line"/>
      <point x="274" y="466" type="line"/>
    </contour>
    <contour>
      <point x="584" y="1082" type="line"/>
      <point x="254" y="1082" type="line"/>
      <point x="208" y="798" type="line"/>
      <point x="536" y="798" type="line"/>
    </contour>
  </outline>
</glyph>
<glyph name="glottalstopbarinv" format="2">
  <advance width="1196"/>
  <unicode hex="01BE"/>
  <outline>
    <contour>
      <point x="702" y="312" type="curve" smooth="yes" name="hr00"/>
      <point x="695" y="253"/>
      <point x="634" y="230"/>
      <point x="554" y="230" type="curve" smooth="yes"/>
      <point x="474" y="230"/>
      <point x="399" y="259"/>
      <point x="406" y="350" type="curve"/>
      <point x="56" y="350" type="line"/>
      <point x="32" y="183"/>
      <point x="175" y="-20"/>
      <point x="504" y="-20" type="curve" smooth="yes"/>
      <point x="815" y="-20"/>
      <point x="1033" y="125"/>
      <point x="1064" y="318" type="curve" smooth="yes"/>
      <point x="1123" y="663"/>
      <point x="733" y="532"/>
      <point x="782" y="838" type="curve" smooth="yes"/>
      <point x="868" y="1358" type="line"/>
      <point x="490" y="1358" type="line"/>
      <point x="402" y="846" type="line" smooth="yes"/>
      <point x="335" y="416"/>
      <point x="727" y="454"/>
    </contour>
    <contour>
      <point x="1006" y="1082" type="line"/>
      <point x="310" y="1082" type="line"/>
      <point x="266" y="814" type="line"/>
      <point x="962" y="814" type="line"/>
    </contour>
  </outline>
</glyph>
<glyph name="wynn" format="2">
  <advance width="1408"/>
  <unicode hex="01BF"/>
  <outline>
    <contour>
      <point x="602" y="910" type="line"/>
      <point x="610" y="1118" type="line"/>
      <point x="254" y="1118" type="line"/>
      <point x="28" y="-416" type="line"/>
      <point x="406" y="-416" type="line"/>
    </contour>
    <contour>
      <point x="530" y="574" type="line"/>
      <point x="545" y="762"/>
      <point x="599" y="835"/>
      <point x="744" y="834" type="curve" smooth="yes"/>
      <point x="873" y="835"/>
      <point x="883" y="722"/>
      <point x="866" y="588" type="curve" smooth="yes"/>
      <point x="858" y="532" type="line" smooth="yes"/>
      <point x="822" y="255"/>
      <point x="597" y="90"/>
      <point x="308" y="82" type="curve"/>
      <point x="308" y="-212" type="line"/>
      <point x="854" y="-99"/>
      <point x="1180" y="104"/>
      <point x="1236" y="532" type="curve" smooth="yes"/>
      <point x="1244" y="588" type="line" smooth="yes"/>
      <point x="1287" y="914"/>
      <point x="1167" y="1132"/>
      <point x="882" y="1132" type="curve" smooth="yes"/>
      <point x="605" y="1132"/>
      <point x="470" y="867"/>
      <point x="382" y="570" type="curve"/>
    </contour>
  </outline>
</glyph>
<glyph name="pipe" format="2">
  <advance width="628"/>
  <unicode hex="01C0"/>
  <outline>
    <contour>
      <point x="558" y="1446" type="line"/>
      <point x="362" y="1446" type="line"/>
      <point x="124" y="0" type="line"/>
      <point x="318" y="0" type="line"/>
    </contour>
  </outline>
</glyph>
<glyph name="uni01F6" format="2">
  <advance width="2220"/>
  <unicode hex="01F6"/>
  <outline>
    <contour>
      <point x="1497" y="-24" type="curve" smooth="yes"/>
      <point x="1819" y="-24"/>
      <point x="2073" y="157"/>
      <point x="2118" y="433" type="curve" smooth="yes"/>
      <point x="2221" y="1056" type="line"/>
      <point x="1821" y="1056" type="line"/>
      <point x="1727" y="485" type="line" smooth="yes"/>
      <point x="1709" y="378"/>
      <point x="1622" y="298"/>
      <point x="1511" y="298" type="curve" smooth="yes"/>
      <point x="1422" y="298"/>
      <point x="1379" y="352"/>
      <point x="1397" y="459" type="curve" smooth="yes"/>
      <point x="1567" y="1490" type="line"/>
      <point x="1151" y="1490" type="line"/>
      <point x="1059" y="933" type="line"/>
      <point x="563" y="933" type="line"/>
      <point x="655" y="1490" type="line"/>
      <point x="239" y="1490" type="line"/>
      <point x="-7" y="0" type="line"/>
      <point x="409" y="0" type="line"/>
      <point x="505" y="581" type="line"/>
      <point x="1001" y="581" type="line"/>
      <point x="981" y="459" type="line" smooth="yes"/>
      <point x="935" y="183"/>
      <point x="1149" y="-24"/>
    </contour>
  </outline>
</glyph>
<glyph name="uni01F7" format="2">
  <advance width="1658"/>
  <unicode hex="01F7"/>
  <outline>
    <contour>
      <point x="728" y="1486" type="line"/>
      <point x="342" y="1486" type="line"/>
      <point x="30" y="-418" type="line"/>
      <point x="418" y="-418" type="line"/>
    </contour>
    <contour>
      <point x="290" y="-192" type="line"/>
      <point x="1041" y="29"/>
      <point x="1412" y="363"/>
      <point x="1504" y="774" type="curve" smooth="yes"/>
      <point x="1516" y="826" type="line" smooth="yes"/>
      <point x="1611" y="1255"/>
      <point x="1354" y="1507"/>
      <point x="990" y="1506" type="curve" smooth="yes"/>
      <point x="807" y="1507"/>
      <point x="672" y="1449"/>
      <point x="600" y="1374" type="curve"/>
      <point x="530" y="960" type="line"/>
      <point x="602" y="1088"/>
      <point x="780" y="1196"/>
      <point x="942" y="1196" type="curve" smooth="yes"/>
      <point x="1164" y="1196"/>
      <point x="1145" y="976"/>
      <point x="1114" y="830" type="curve" smooth="yes"/>
      <point x="1102" y="774" type="line" smooth="yes"/>
      <point x="1039" y="471"/>
      <point x="800" y="282"/>
      <point x="342" y="126" type="curve"/>
    </contour>
  </outline>
</glyph>
<glyph name="uni021C" format="2">
  <advance width="1394"/>
  <unicode hex="021C"/>
  <outline>
    <contour>
      <point x="190" y="306" type="line"/>
      <point x="991" y="495"/>
      <point x="1289" y="706"/>
      <point x="1348" y="1062" type="curve" smooth="yes"/>
      <point x="1399" y="1370"/>
      <point x="1198" y="1510"/>
      <point x="832" y="1510" type="curve" smooth="yes"/>
      <point x="498" y="1510"/>
      <point x="239" y="1335"/>
      <point x="198" y="1088" type="curve"/>
      <point x="588" y="1088" type="line"/>
      <point x="599" y="1157"/>
      <point x="668" y="1199"/>
      <point x="780" y="1198" type="curve" smooth="yes"/>
      <point x="917" y="1199"/>
      <point x="975" y="1145"/>
      <point x="952" y="1006" type="curve" smooth="yes"/>
      <point x="920" y="827"/>
      <point x="796" y="755"/>
      <point x="238" y="600" type="curve"/>
    </contour>
    <contour>
      <point x="696" y="504" type="line"/>
      <point x="844" y="524"/>
      <point x="885" y="495"/>
      <point x="864" y="366" type="curve" smooth="yes"/>
      <point x="825" y="133"/>
      <point x="546" y="-52"/>
      <point x="118" y="-128" type="curve"/>
      <point x="66" y="-436" type="line"/>
      <point x="711" y="-373"/>
      <point x="1184" y="-56"/>
      <point x="1252" y="358" type="curve" smooth="yes"/>
      <point x="1295" y="612"/>
      <point x="1098" y="759"/>
      <point x="772" y="734" type="curve"/>
    </contour>
  </outline>
</glyph>
<glyph name="uni021D" format="2">
  <advance width="1198"/>
  <unicode hex="021D"/>
  <outline>
    <contour>
      <point x="176" y="120" type="line"/>
      <point x="783" y="290"/>
      <point x="1065" y="488"/>
      <point x="1112" y="774" type="curve" smooth="yes"/>
      <point x="1153" y="1012"/>
      <point x="996" y="1132"/>
      <point x="676" y="1132" type="curve" smooth="yes"/>
      <point x="363" y="1132"/>
      <point x="171" y="994"/>
      <point x="134" y="762" type="curve"/>
      <point x="512" y="762" type="line"/>
      <point x="521" y="823"/>
      <point x="561" y="858"/>
      <point x="634" y="858" type="curve" smooth="yes"/>
      <point x="711" y="858"/>
      <point x="745" y="821"/>
      <point x="730" y="738" type="curve" smooth="yes"/>
      <point x="705" y="593"/>
      <point x="584" y="509"/>
      <point x="220" y="386" type="curve"/>
    </contour>
    <contour>
      <point x="538" y="360" type="line"/>
      <point x="624" y="379"/>
      <point x="680" y="324"/>
      <point x="662" y="216" type="curve" smooth="yes"/>
      <point x="639" y="79"/>
      <point x="513" y="-17"/>
      <point x="130" y="-166" type="curve"/>
      <point x="84" y="-436" type="line"/>
      <point x="666" y="-303"/>
      <point x="990" y="-88"/>
      <point x="1038" y="196" type="curve" smooth="yes"/>
      <point x="1074" y="418"/>
      <point x="916" y="528"/>
      <point x="594" y="504" type="curve"/>
    </contour>
  </outline>
</glyph>
<glyph name="uni0220" format="2">
  <advance width="1400"/>
  <unicode hex="0220"/>
  <outline>
    <contour>
      <point x="1106" y="-416" type="line"/>
      <point x="1354" y="1088" type="line" smooth="yes"/>
      <point x="1397" y="1347"/>
      <point x="1212" y="1510"/>
      <point x="938" y="1510" type="curve" smooth="yes"/>
      <point x="677" y="1510"/>
      <point x="472" y="1364"/>
      <point x="334" y="1218" type="curve"/>
      <point x="272" y="862" type="line"/>
      <point x="475" y="1100"/>
      <point x="658" y="1213"/>
      <point x="832" y="1214" type="curve" smooth="yes"/>
      <point x="961" y="1213"/>
      <point x="983" y="1152"/>
      <point x="974" y="1088" type="curve" smooth="yes"/>
      <point x="726" y="-416" type="line"/>
    </contour>
    <contour>
      <point x="668" y="1490" type="line"/>
      <point x="290" y="1490" type="line"/>
      <point x="42" y="0" type="line"/>
      <point x="420" y="0" type="line"/>
    </contour>
  </outline>
</glyph>
<glyph name="uni0222" format="2">
  <advance width="1396"/>
  <unicode hex="0222"/>
  <outline>
    <contour>
      <point x="754" y="954" type="line"/>
      <point x="383" y="954"/>
      <point x="140" y="782"/>
      <point x="92" y="482" type="curve" smooth="yes"/>
      <point x="42" y="178"/>
      <point x="239" y="-20"/>
      <point x="594" y="-20" type="curve" smooth="yes"/>
      <point x="614" y="-20" type="line" smooth="yes"/>
      <point x="965" y="-20"/>
      <point x="1225" y="178"/>
      <point x="1278" y="486" type="curve" smooth="yes"/>
      <point x="1327" y="782"/>
      <point x="1141" y="954"/>
      <point x="776" y="954" type="curve" smooth="yes"/>
    </contour>
    <contour>
      <point x="730" y="684" type="line"/>
      <point x="841" y="684"/>
      <point x="897" y="608"/>
      <point x="878" y="486" type="curve" smooth="yes"/>
      <point x="859" y="360"/>
      <point x="775" y="285"/>
      <point x="664" y="286" type="curve" smooth="yes"/>
      <point x="644" y="286" type="line" smooth="yes"/>
      <point x="531" y="285"/>
      <point x="470" y="364"/>
      <point x="490" y="482" type="curve" smooth="yes"/>
      <point x="511" y="605"/>
      <point x="596" y="684"/>
      <point x="710" y="684" type="curve" smooth="yes"/>
    </contour>
    <contour>
      <point x="760" y="998" type="line"/>
      <point x="628" y="998"/>
      <point x="580" y="1018"/>
      <point x="594" y="1114" type="curve" smooth="yes"/>
      <point x="604" y="1170"/>
      <point x="626" y="1198"/>
      <point x="684" y="1208" type="curve"/>
      <point x="734" y="1510" type="line"/>
      <point x="431" y="1516"/>
      <point x="237" y="1365"/>
      <point x="196" y="1114" type="curve" smooth="yes"/>
      <point x="155" y="859"/>
      <point x="341" y="730"/>
      <point x="714" y="730" type="curve" smooth="yes"/>
      <point x="734" y="730" type="line" smooth="yes"/>
      <point x="1108" y="730"/>
      <point x="1345" y="861"/>
      <point x="1386" y="1114" type="curve" smooth="yes"/>
      <point x="1427" y="1363"/>
      <point x="1280" y="1516"/>
      <point x="978" y="1510" type="curve"/>
      <point x="928" y="1208" type="line"/>
      <point x="980" y="1197"/>
      <point x="996" y="1169"/>
      <point x="988" y="1114" type="curve" smooth="yes"/>
      <point x="974" y="1021"/>
      <point x="912" y="998"/>
      <point x="780" y="998" type="curve" smooth="yes"/>
    </contour>
  </outline>
</glyph>
